AnekDevanagari-CondensedMedium.ufo
<glyph name="quotedbl" format="2">
  <advance width="555"/>
  <unicode hex="0022"/>
  <outline>
    <contour>
      <point x="231" y="1329" type="line"/>
      <point x="60" y="1329" type="line"/>
      <point x="77" y="872" type="line"/>
      <point x="215" y="872" type="line"/>
    </contour>
    <contour>
      <point x="495" y="1329" type="line"/>
      <point x="324" y="1329" type="line"/>
      <point x="341" y="872" type="line"/>
      <point x="479" y="872" type="line"/>
    </contour>
  </outline>
</glyph>
<glyph name="numbersign" format="2">
  <advance width="847"/>
  <unicode hex="0023"/>
  <outline>
    <contour>
      <point x="271" y="0" type="line"/>
      <point x="385" y="1278" type="line"/>
      <point x="248" y="1278" type="line"/>
      <point x="134" y="0" type="line"/>
    </contour>
    <contour>
      <point x="765" y="337" type="line"/>
      <point x="765" y="467" type="line"/>
      <point x="42" y="467" type="line"/>
      <point x="42" y="337" type="line"/>
    </contour>
    <contour>
      <point x="600" y="0" type="line"/>
      <point x="713" y="1278" type="line"/>
      <point x="576" y="1278" type="line"/>
      <point x="463" y="0" type="line"/>
    </contour>
    <contour>
      <point x="805" y="817" type="line"/>
      <point x="805" y="947" type="line"/>
      <point x="84" y="947" type="line"/>
      <point x="84" y="817" type="line"/>
    </contour>
  </outline>
</glyph>
<glyph name="colon" format="2">
  <advance width="320"/>
  <unicode hex="003A"/>
  <outline>
    <contour>
      <point x="160" y="-18" type="curve" smooth="yes"/>
      <point x="223" y="-18"/>
      <point x="255" y="25"/>
      <point x="255" y="103" type="curve" smooth="yes"/>
      <point x="255" y="120" type="line" smooth="yes"/>
      <point x="255" y="197"/>
      <point x="223" y="240"/>
      <point x="160" y="240" type="curve" smooth="yes"/>
      <point x="94" y="240"/>
      <point x="65" y="197"/>
      <point x="65" y="120" type="curve" smooth="yes"/>
      <point x="65" y="103" type="line" smooth="yes"/>
      <point x="65" y="25"/>
      <point x="94" y="-18"/>
    </contour>
    <contour>
      <point x="160" y="672" type="curve" smooth="yes"/>
      <point x="223" y="672"/>
      <point x="255" y="715"/>
      <point x="255" y="793" type="curve" smooth="yes"/>
      <point x="255" y="810" type="line" smooth="yes"/>
      <point x="255" y="887"/>
      <point x="223" y="930"/>
      <point x="160" y="930" type="curve" smooth="yes"/>
      <point x="94" y="930"/>
      <point x="65" y="887"/>
      <point x="65" y="810" type="curve" smooth="yes"/>
      <point x="65" y="793" type="line" smooth="yes"/>
      <point x="65" y="715"/>
      <point x="94" y="672"/>
    </contour>
  </outline>
</glyph>
<glyph name="less" format="2">
  <advance width="694"/>
  <unicode hex="003C"/>
  <outline>
    <contour>
      <point x="613" y="755" type="line"/>
      <point x="613" y="904" type="line"/>
      <point x="57" y="750" type="line"/>
      <point x="57" y="524" type="line"/>
      <point x="613" y="370" type="line"/>
      <point x="613" y="519" type="line"/>
      <point x="179" y="630" type="line"/>
      <point x="179" y="644" type="line"/>
    </contour>
  </outline>
</glyph>
<glyph name="greater" format="2">
  <advance width="694"/>
  <unicode hex="003E"/>
  <outline>
    <contour>
      <point x="515" y="630" type="line"/>
      <point x="81" y="519" type="line"/>
      <point x="81" y="370" type="line"/>
      <point x="637" y="524" type="line"/>
      <point x="637" y="750" type="line"/>
      <point x="81" y="904" type="line"/>
      <point x="81" y="755" type="line"/>
      <point x="515" y="644" type="line"/>
    </contour>
  </outline>
</glyph>
<glyph name="N" format="2">
  <advance width="844"/>
  <unicode hex="004E"/>
  <anchor x="427" y="0" name="bottom"/>
  <anchor x="427" y="1278" name="top"/>
  <outline>
    <contour>
      <point x="98" y="1279" type="line"/>
      <point x="98" y="0" type="line"/>
      <point x="267" y="0" type="line"/>
      <point x="267" y="464" type="line"/>
      <point x="252" y="1088" type="line"/>
      <point x="262" y="1088" type="line"/>
      <point x="484" y="0" type="line"/>
      <point x="746" y="0" type="line"/>
      <point x="746" y="1279" type="line"/>
      <point x="578" y="1279" type="line"/>
      <point x="578" y="815" type="line"/>
      <point x="592" y="199" type="line"/>
      <point x="582" y="199" type="line"/>
      <point x="360" y="1279" type="line"/>
    </contour>
  </outline>
</glyph>
<glyph name="j" format="2">
  <advance width="361"/>
  <unicode hex="006A"/>
  <outline>
    <contour>
      <point x="270" y="203" type="line"/>
      <point x="270" y="998" type="line"/>
      <point x="96" y="998" type="line"/>
      <point x="96" y="203" type="line"/>
    </contour>
    <contour>
      <point x="183" y="1111" type="curve" smooth="yes"/>
      <point x="248" y="1111"/>
      <point x="277" y="1150"/>
      <point x="277" y="1216" type="curve" smooth="yes"/>
      <point x="277" y="1228" type="line" smooth="yes"/>
      <point x="277" y="1294"/>
      <point x="248" y="1332"/>
      <point x="183" y="1332" type="curve" smooth="yes"/>
      <point x="118" y="1332"/>
      <point x="89" y="1294"/>
      <point x="89" y="1228" type="curve" smooth="yes"/>
      <point x="89" y="1216" type="line" smooth="yes"/>
      <point x="89" y="1150"/>
      <point x="118" y="1111"/>
    </contour>
    <contour>
      <point x="38" y="-358" type="curve" smooth="yes"/>
      <point x="203" y="-358"/>
      <point x="270" y="-258"/>
      <point x="270" y="-95" type="curve" smooth="yes"/>
      <point x="270" y="254" type="line"/>
      <point x="96" y="254" type="line"/>
      <point x="96" y="-88" type="line" smooth="yes"/>
      <point x="96" y="-165"/>
      <point x="73" y="-210"/>
      <point x="-4" y="-210" type="curve" smooth="yes"/>
      <point x="-36" y="-210"/>
      <point x="-64" y="-203"/>
      <point x="-93" y="-190" type="curve"/>
      <point x="-79" y="-336" type="line"/>
      <point x="-50" y="-350"/>
      <point x="-7" y="-358"/>
    </contour>
  </outline>
</glyph>
<glyph name="braceleft" format="2">
  <advance width="513"/>
  <unicode hex="007B"/>
  <outline>
    <contour>
      <point x="481" y="1338" type="line"/>
      <point x="441" y="1350"/>
      <point x="405" y="1357"/>
      <point x="367" y="1357" type="curve" smooth="yes"/>
      <point x="218" y="1357"/>
      <point x="144" y="1279"/>
      <point x="144" y="1101" type="curve" smooth="yes"/>
      <point x="144" y="1012"/>
      <point x="158" y="857"/>
      <point x="158" y="787" type="curve" smooth="yes"/>
      <point x="158" y="692"/>
      <point x="129" y="648"/>
      <point x="44" y="639" type="curve"/>
      <point x="44" y="477" type="line"/>
      <point x="129" y="468"/>
      <point x="158" y="424"/>
      <point x="158" y="329" type="curve" smooth="yes"/>
      <point x="158" y="261"/>
      <point x="144" y="103"/>
      <point x="144" y="11" type="curve" smooth="yes"/>
      <point x="144" y="-167"/>
      <point x="218" y="-245"/>
      <point x="367" y="-245" type="curve" smooth="yes"/>
      <point x="405" y="-245"/>
      <point x="441" y="-238"/>
      <point x="481" y="-226" type="curve"/>
      <point x="481" y="-91" type="line"/>
      <point x="461" y="-98"/>
      <point x="437" y="-103"/>
      <point x="413" y="-103" type="curve" smooth="yes"/>
      <point x="343" y="-103"/>
      <point x="314" y="-63"/>
      <point x="314" y="25" type="curve" smooth="yes"/>
      <point x="314" y="97"/>
      <point x="327" y="253"/>
      <point x="327" y="328" type="curve" smooth="yes"/>
      <point x="327" y="458"/>
      <point x="295" y="535"/>
      <point x="172" y="556" type="curve"/>
      <point x="184" y="519" type="line"/>
      <point x="184" y="563" type="line"/>
      <point x="292" y="586"/>
      <point x="327" y="657"/>
      <point x="327" y="788" type="curve" smooth="yes"/>
      <point x="327" y="861"/>
      <point x="314" y="1015"/>
      <point x="314" y="1087" type="curve" smooth="yes"/>
      <point x="314" y="1175"/>
      <point x="343" y="1215"/>
      <point x="413" y="1215" type="curve" smooth="yes"/>
      <point x="437" y="1215"/>
      <point x="461" y="1210"/>
      <point x="481" y="1203" type="curve"/>
    </contour>
  </outline>
</glyph>
<glyph name="dieresis" format="2">
  <advance width="603"/>
  <unicode hex="00A8"/>
  <anchor x="302" y="998" name="_top"/>
  <anchor x="302" y="1322" name="top"/>
  <outline>
    <contour>
      <point x="181" y="1119" type="curve" smooth="yes"/>
      <point x="237" y="1119"/>
      <point x="262" y="1157"/>
      <point x="262" y="1222" type="curve" smooth="yes"/>
      <point x="262" y="1233" type="line" smooth="yes"/>
      <point x="262" y="1298"/>
      <point x="237" y="1335"/>
      <point x="181" y="1335" type="curve" smooth="yes"/>
      <point x="125" y="1335"/>
      <point x="100" y="1298"/>
      <point x="100" y="1233" type="curve" smooth="yes"/>
      <point x="100" y="1222" type="line" smooth="yes"/>
      <point x="100" y="1157"/>
      <point x="125" y="1119"/>
    </contour>
    <contour>
      <point x="422" y="1119" type="curve" smooth="yes"/>
      <point x="477" y="1119"/>
      <point x="503" y="1158"/>
      <point x="503" y="1222" type="curve" smooth="yes"/>
      <point x="503" y="1233" type="line" smooth="yes"/>
      <point x="503" y="1297"/>
      <point x="477" y="1335"/>
      <point x="422" y="1335" type="curve" smooth="yes"/>
      <point x="365" y="1335"/>
      <point x="341" y="1297"/>
      <point x="341" y="1233" type="curve" smooth="yes"/>
      <point x="341" y="1222" type="line" smooth="yes"/>
      <point x="341" y="1158"/>
      <point x="365" y="1119"/>
    </contour>
  </outline>
</glyph>
<glyph name="guillemetleft" format="2">
  <advance width="722"/>
  <unicode hex="00AB"/>
  <outline>
    <contour>
      <point x="677" y="897" type="line"/>
      <point x="517" y="897" type="line"/>
      <point x="370" y="520" type="line"/>
      <point x="370" y="477" type="line"/>
      <point x="517" y="100" type="line"/>
      <point x="677" y="100" type="line"/>
      <point x="526" y="498" type="line"/>
    </contour>
    <contour>
      <point x="361" y="897" type="line"/>
      <point x="201" y="897" type="line"/>
      <point x="54" y="520" type="line"/>
      <point x="54" y="477" type="line"/>
      <point x="201" y="100" type="line"/>
      <point x="361" y="100" type="line"/>
      <point x="210" y="498" type="line"/>
    </contour>
  </outline>
</glyph>
<glyph name="degree" format="2">
  <advance width="509"/>
  <unicode hex="00B0"/>
  <outline>
    <contour>
      <point x="255" y="811" type="curve" smooth="yes"/>
      <point x="383" y="811"/>
      <point x="453" y="893"/>
      <point x="453" y="1044" type="curve"/>
      <point x="453" y="1064" type="line"/>
      <point x="453" y="1215"/>
      <point x="383" y="1297"/>
      <point x="255" y="1297" type="curve" smooth="yes"/>
      <point x="126" y="1297"/>
      <point x="56" y="1215"/>
      <point x="56" y="1064" type="curve"/>
      <point x="56" y="1044" type="line"/>
      <point x="56" y="893"/>
      <point x="126" y="811"/>
    </contour>
    <contour>
      <point x="255" y="926" type="curve" smooth="yes"/>
      <point x="206" y="926"/>
      <point x="185" y="966"/>
      <point x="185" y="1043" type="curve" smooth="yes"/>
      <point x="185" y="1065" type="line" smooth="yes"/>
      <point x="185" y="1141"/>
      <point x="206" y="1182"/>
      <point x="255" y="1182" type="curve" smooth="yes"/>
      <point x="304" y="1182"/>
      <point x="324" y="1141"/>
      <point x="324" y="1065" type="curve" smooth="yes"/>
      <point x="324" y="1043" type="line" smooth="yes"/>
      <point x="324" y="966"/>
      <point x="304" y="926"/>
    </contour>
  </outline>
</glyph>
<glyph name="twosuperior" format="2">
  <advance width="367"/>
  <unicode hex="00B2"/>
  <outline>
    <contour>
      <point x="339" y="700" type="line"/>
      <point x="339" y="806" type="line"/>
      <point x="110" y="806" type="line"/>
      <point x="154" y="786" type="line"/>
      <point x="154" y="811" type="line"/>
      <point x="241" y="947" type="line" smooth="yes"/>
      <point x="307" y="1051"/>
      <point x="336" y="1120"/>
      <point x="336" y="1202" type="curve" smooth="yes"/>
      <point x="336" y="1218" type="line" smooth="yes"/>
      <point x="336" y="1325"/>
      <point x="281" y="1394"/>
      <point x="169" y="1394" type="curve" smooth="yes"/>
      <point x="117" y="1394"/>
      <point x="75" y="1380"/>
      <point x="44" y="1361" type="curve"/>
      <point x="35" y="1252" type="line"/>
      <point x="60" y="1267"/>
      <point x="92" y="1284"/>
      <point x="134" y="1284" type="curve" smooth="yes"/>
      <point x="191" y="1284"/>
      <point x="211" y="1251"/>
      <point x="211" y="1197" type="curve" smooth="yes"/>
      <point x="211" y="1185" type="line" smooth="yes"/>
      <point x="211" y="1128"/>
      <point x="188" y="1074"/>
      <point x="132" y="985" type="curve" smooth="yes"/>
      <point x="25" y="813" type="line"/>
      <point x="25" y="700" type="line"/>
    </contour>
  </outline>
</glyph>
<glyph name="periodcentered" format="2">
  <advance width="286"/>
  <unicode hex="00B7"/>
  <anchor x="143" y="309" name="_top"/>
  <anchor x="143" y="631" name="top"/>
  <outline>
    <contour>
      <point x="142" y="428" type="curve" smooth="yes"/>
      <point x="202" y="428"/>
      <point x="232" y="466"/>
      <point x="232" y="534" type="curve" smooth="yes"/>
      <point x="232" y="541" type="line" smooth="yes"/>
      <point x="232" y="609"/>
      <point x="202" y="646"/>
      <point x="142" y="646" type="curve" smooth="yes"/>
      <point x="83" y="646"/>
      <point x="54" y="609"/>
      <point x="54" y="541" type="curve" smooth="yes"/>
      <point x="54" y="534" type="line" smooth="yes"/>
      <point x="54" y="466"/>
      <point x="83" y="428"/>
    </contour>
  </outline>
</glyph>
<glyph name="onequarter" format="2">
  <advance width="917"/>
  <unicode hex="00BC"/>
  <outline>
    <contour>
      <point x="261" y="594" type="line"/>
      <point x="261" y="1278" type="line"/>
      <point x="154" y="1278" type="line"/>
      <point x="19" y="1182" type="line"/>
      <point x="16" y="1056" type="line"/>
      <point x="134" y="1143" type="line"/>
      <point x="141" y="1143" type="line"/>
      <point x="142" y="594" type="line"/>
    </contour>
    <contour>
      <point x="251" y="0" type="line"/>
      <point x="732" y="1278" type="line"/>
      <point x="612" y="1278" type="line"/>
      <point x="131" y="0" type="line"/>
    </contour>
    <contour>
      <point x="848" y="0" type="line"/>
      <point x="848" y="684" type="line"/>
      <point x="657" y="684" type="line"/>
      <point x="518" y="220" type="line"/>
      <point x="518" y="113" type="line"/>
      <point x="905" y="113" type="line"/>
      <point x="905" y="213" type="line"/>
      <point x="573" y="213" type="line"/>
      <point x="630" y="186" type="line"/>
      <point x="630" y="219" type="line"/>
      <point x="733" y="595" type="line"/>
      <point x="744" y="595" type="line"/>
      <point x="737" y="390" type="line"/>
      <point x="737" y="0" type="line"/>
    </contour>
  </outline>
</glyph>
<glyph name="Acircumflex" format="2">
  <advance width="751"/>
  <unicode hex="00C2"/>
  <anchor x="376" y="0" name="bottom"/>
  <anchor x="755" y="0" name="ogonek"/>
  <anchor x="376" y="1557" name="top"/>
  <outline>
    <contour>
      <point x="213" y="0" type="line"/>
      <point x="363" y="1149" type="line"/>
      <point x="385" y="1149" type="line"/>
      <point x="538" y="0" type="line"/>
      <point x="713" y="0" type="line"/>
      <point x="517" y="1278" type="line"/>
      <point x="231" y="1278" type="line"/>
      <point x="38" y="0" type="line"/>
    </contour>
    <contour>
      <point x="544" y="343" type="line"/>
      <point x="544" y="494" type="line"/>
      <point x="205" y="494" type="line"/>
      <point x="205" y="343" type="line"/>
    </contour>
    <contour>
      <point x="134" y="1367" type="line"/>
      <point x="134" y="1367" type="line"/>
      <point x="266" y="1367" type="line"/>
      <point x="372" y="1507" type="line"/>
      <point x="380" y="1507" type="line"/>
      <point x="486" y="1367" type="line"/>
      <point x="618" y="1367" type="line"/>
      <point x="618" y="1367" type="line"/>
      <point x="468" y="1604" type="line"/>
      <point x="284" y="1604" type="line"/>
    </contour>
  </outline>
</glyph>
<glyph name="Adieresis" format="2">
  <advance width="751"/>
  <unicode hex="00C4"/>
  <anchor x="376" y="0" name="bottom"/>
  <anchor x="755" y="0" name="ogonek"/>
  <anchor x="376" y="1577" name="top"/>
  <outline>
    <contour>
      <point x="213" y="0" type="line"/>
      <point x="363" y="1149" type="line"/>
      <point x="385" y="1149" type="line"/>
      <point x="538" y="0" type="line"/>
      <point x="713" y="0" type="line"/>
      <point x="517" y="1278" type="line"/>
      <point x="231" y="1278" type="line"/>
      <point x="38" y="0" type="line"/>
    </contour>
    <contour>
      <point x="544" y="343" type="line"/>
      <point x="544" y="494" type="line"/>
      <point x="205" y="494" type="line"/>
      <point x="205" y="343" type="line"/>
    </contour>
    <contour>
      <point x="255" y="1392" type="curve" smooth="yes"/>
      <point x="311" y="1392"/>
      <point x="336" y="1430"/>
      <point x="336" y="1495" type="curve" smooth="yes"/>
      <point x="336" y="1506" type="line" smooth="yes"/>
      <point x="336" y="1571"/>
      <point x="311" y="1608"/>
      <point x="255" y="1608" type="curve" smooth="yes"/>
      <point x="199" y="1608"/>
      <point x="174" y="1571"/>
      <point x="174" y="1506" type="curve" smooth="yes"/>
      <point x="174" y="1495" type="line" smooth="yes"/>
      <point x="174" y="1430"/>
      <point x="199" y="1392"/>
    </contour>
    <contour>
      <point x="496" y="1392" type="curve" smooth="yes"/>
      <point x="551" y="1392"/>
      <point x="577" y="1431"/>
      <point x="577" y="1495" type="curve" smooth="yes"/>
      <point x="577" y="1506" type="line" smooth="yes"/>
      <point x="577" y="1570"/>
      <point x="551" y="1608"/>
      <point x="496" y="1608" type="curve" smooth="yes"/>
      <point x="439" y="1608"/>
      <point x="415" y="1570"/>
      <point x="415" y="1506" type="curve" smooth="yes"/>
      <point x="415" y="1495" type="line" smooth="yes"/>
      <point x="415" y="1431"/>
      <point x="439" y="1392"/>
    </contour>
  </outline>
</glyph>
<glyph name="Egrave" format="2">
  <advance width="637"/>
  <unicode hex="00C8"/>
  <anchor x="339" y="0" name="bottom"/>
  <anchor x="610" y="0" name="ogonek"/>
  <anchor x="271" y="1567" name="top"/>
  <anchor x="20" y="1278" name="topleft"/>
  <outline>
    <contour>
      <point x="272" y="0" type="line"/>
      <point x="272" y="1278" type="line"/>
      <point x="98" y="1278" type="line"/>
      <point x="98" y="0" type="line"/>
    </contour>
    <contour>
      <point x="578" y="0" type="line"/>
      <point x="578" y="158" type="line"/>
      <point x="205" y="158" type="line"/>
      <point x="205" y="0" type="line"/>
    </contour>
    <contour>
      <point x="570" y="574" type="line"/>
      <point x="570" y="731" type="line"/>
      <point x="212" y="731" type="line"/>
      <point x="212" y="574" type="line"/>
    </contour>
    <contour>
      <point x="578" y="1120" type="line"/>
      <point x="578" y="1278" type="line"/>
      <point x="203" y="1278" type="line"/>
      <point x="203" y="1120" type="line"/>
    </contour>
    <contour>
      <point x="72" y="1604" type="line"/>
      <point x="72" y="1604" type="line"/>
      <point x="271" y="1367" type="line"/>
      <point x="418" y="1367" type="line"/>
      <point x="418" y="1367" type="line"/>
      <point x="252" y="1604" type="line"/>
    </contour>
  </outline>
</glyph>
<glyph name="Edieresis" format="2">
  <advance width="637"/>
  <unicode hex="00CB"/>
  <anchor x="339" y="0" name="bottom"/>
  <anchor x="610" y="0" name="ogonek"/>
  <anchor x="339" y="1577" name="top"/>
  <anchor x="20" y="1278" name="topleft"/>
  <outline>
    <contour>
      <point x="272" y="0" type="line"/>
      <point x="272" y="1278" type="line"/>
      <point x="98" y="1278" type="line"/>
      <point x="98" y="0" type="line"/>
    </contour>
    <contour>
      <point x="578" y="0" type="line"/>
      <point x="578" y="158" type="line"/>
      <point x="205" y="158" type="line"/>
      <point x="205" y="0" type="line"/>
    </contour>
    <contour>
      <point x="570" y="574" type="line"/>
      <point x="570" y="731" type="line"/>
      <point x="212" y="731" type="line"/>
      <point x="212" y="574" type="line"/>
    </contour>
    <contour>
      <point x="578" y="1120" type="line"/>
      <point x="578" y="1278" type="line"/>
      <point x="203" y="1278" type="line"/>
      <point x="203" y="1120" type="line"/>
    </contour>
    <contour>
      <point x="218" y="1392" type="curve" smooth="yes"/>
      <point x="274" y="1392"/>
      <point x="299" y="1430"/>
      <point x="299" y="1495" type="curve" smooth="yes"/>
      <point x="299" y="1506" type="line" smooth="yes"/>
      <point x="299" y="1571"/>
      <point x="274" y="1608"/>
      <point x="218" y="1608" type="curve" smooth="yes"/>
      <point x="162" y="1608"/>
      <point x="137" y="1571"/>
      <point x="137" y="1506" type="curve" smooth="yes"/>
      <point x="137" y="1495" type="line" smooth="yes"/>
      <point x="137" y="1430"/>
      <point x="162" y="1392"/>
    </contour>
    <contour>
      <point x="459" y="1392" type="curve" smooth="yes"/>
      <point x="514" y="1392"/>
      <point x="540" y="1431"/>
      <point x="540" y="1495" type="curve" smooth="yes"/>
      <point x="540" y="1506" type="line" smooth="yes"/>
      <point x="540" y="1570"/>
      <point x="514" y="1608"/>
      <point x="459" y="1608" type="curve" smooth="yes"/>
      <point x="402" y="1608"/>
      <point x="378" y="1570"/>
      <point x="378" y="1506" type="curve" smooth="yes"/>
      <point x="378" y="1495" type="line" smooth="yes"/>
      <point x="378" y="1431"/>
      <point x="402" y="1392"/>
    </contour>
  </outline>
</glyph>
<glyph name="Iacute" format="2">
  <advance width="378"/>
  <unicode hex="00CD"/>
  <anchor x="189" y="0" name="bottom"/>
  <anchor x="318" y="0" name="ogonek"/>
  <anchor x="189" y="1567" name="top"/>
  <anchor x="20" y="1278" name="topleft"/>
  <outline>
    <contour>
      <point x="279" y="1278" type="line"/>
      <point x="99" y="1278" type="line"/>
      <point x="99" y="0" type="line"/>
      <point x="279" y="0" type="line"/>
    </contour>
    <contour>
      <point x="109" y="1367" type="line"/>
      <point x="109" y="1367" type="line"/>
      <point x="256" y="1367" type="line"/>
      <point x="455" y="1604" type="line"/>
      <point x="455" y="1604" type="line"/>
      <point x="275" y="1604" type="line"/>
    </contour>
  </outline>
</glyph>
<glyph name="Icircumflex" format="2">
  <advance width="378"/>
  <unicode hex="00CE"/>
  <anchor x="189" y="0" name="bottom"/>
  <anchor x="318" y="0" name="ogonek"/>
  <anchor x="189" y="1557" name="top"/>
  <anchor x="20" y="1278" name="topleft"/>
  <outline>
    <contour>
      <point x="279" y="1278" type="line"/>
      <point x="99" y="1278" type="line"/>
      <point x="99" y="0" type="line"/>
      <point x="279" y="0" type="line"/>
    </contour>
    <contour>
      <point x="-53" y="1367" type="line"/>
      <point x="-53" y="1367" type="line"/>
      <point x="79" y="1367" type="line"/>
      <point x="185" y="1507" type="line"/>
      <point x="193" y="1507" type="line"/>
      <point x="299" y="1367" type="line"/>
      <point x="431" y="1367" type="line"/>
      <point x="431" y="1367" type="line"/>
      <point x="281" y="1604" type="line"/>
      <point x="97" y="1604" type="line"/>
    </contour>
  </outline>
</glyph>
<glyph name="Idieresis" format="2">
  <advance width="378"/>
  <unicode hex="00CF"/>
  <anchor x="189" y="0" name="bottom"/>
  <anchor x="318" y="0" name="ogonek"/>
  <anchor x="189" y="1577" name="top"/>
  <anchor x="20" y="1278" name="topleft"/>
  <outline>
    <contour>
      <point x="279" y="1278" type="line"/>
      <point x="99" y="1278" type="line"/>
      <point x="99" y="0" type="line"/>
      <point x="279" y="0" type="line"/>
    </contour>
    <contour>
      <point x="68" y="1392" type="curve" smooth="yes"/>
      <point x="124" y="1392"/>
      <point x="149" y="1430"/>
      <point x="149" y="1495" type="curve" smooth="yes"/>
      <point x="149" y="1506" type="line" smooth="yes"/>
      <point x="149" y="1571"/>
      <point x="124" y="1608"/>
      <point x="68" y="1608" type="curve" smooth="yes"/>
      <point x="12" y="1608"/>
      <point x="-13" y="1571"/>
      <point x="-13" y="1506" type="curve" smooth="yes"/>
      <point x="-13" y="1495" type="line" smooth="yes"/>
      <point x="-13" y="1430"/>
      <point x="12" y="1392"/>
    </contour>
    <contour>
      <point x="309" y="1392" type="curve" smooth="yes"/>
      <point x="364" y="1392"/>
      <point x="390" y="1431"/>
      <point x="390" y="1495" type="curve" smooth="yes"/>
      <point x="390" y="1506" type="line" smooth="yes"/>
      <point x="390" y="1570"/>
      <point x="364" y="1608"/>
      <point x="309" y="1608" type="curve" smooth="yes"/>
      <point x="252" y="1608"/>
      <point x="228" y="1570"/>
      <point x="228" y="1506" type="curve" smooth="yes"/>
      <point x="228" y="1495" type="line" smooth="yes"/>
      <point x="228" y="1431"/>
      <point x="252" y="1392"/>
    </contour>
  </outline>
</glyph>
<glyph name="Udieresis" format="2">
  <advance width="804"/>
  <unicode hex="00DC"/>
  <anchor x="402" y="0" name="bottom"/>
  <anchor x="582" y="5" name="ogonek"/>
  <anchor x="402" y="1577" name="top"/>
  <anchor x="798" y="1278" name="topright"/>
  <outline>
    <contour>
      <point x="402" y="-19" type="curve" smooth="yes"/>
      <point x="612" y="-19"/>
      <point x="713" y="106"/>
      <point x="713" y="342" type="curve" smooth="yes"/>
      <point x="713" y="1278" type="line"/>
      <point x="533" y="1278" type="line"/>
      <point x="533" y="327" type="line" smooth="yes"/>
      <point x="533" y="200"/>
      <point x="496" y="135"/>
      <point x="402" y="135" type="curve" smooth="yes"/>
      <point x="308" y="135"/>
      <point x="271" y="200"/>
      <point x="271" y="327" type="curve" smooth="yes"/>
      <point x="271" y="1278" type="line"/>
      <point x="91" y="1278" type="line"/>
      <point x="91" y="342" type="line" smooth="yes"/>
      <point x="91" y="106"/>
      <point x="192" y="-19"/>
    </contour>
    <contour>
      <point x="281" y="1392" type="curve" smooth="yes"/>
      <point x="337" y="1392"/>
      <point x="362" y="1430"/>
      <point x="362" y="1495" type="curve" smooth="yes"/>
      <point x="362" y="1506" type="line" smooth="yes"/>
      <point x="362" y="1571"/>
      <point x="337" y="1608"/>
      <point x="281" y="1608" type="curve" smooth="yes"/>
      <point x="225" y="1608"/>
      <point x="200" y="1571"/>
      <point x="200" y="1506" type="curve" smooth="yes"/>
      <point x="200" y="1495" type="line" smooth="yes"/>
      <point x="200" y="1430"/>
      <point x="225" y="1392"/>
    </contour>
    <contour>
      <point x="522" y="1392" type="curve" smooth="yes"/>
      <point x="577" y="1392"/>
      <point x="603" y="1431"/>
      <point x="603" y="1495" type="curve" smooth="yes"/>
      <point x="603" y="1506" type="line" smooth="yes"/>
      <point x="603" y="1570"/>
      <point x="577" y="1608"/>
      <point x="522" y="1608" type="curve" smooth="yes"/>
      <point x="465" y="1608"/>
      <point x="441" y="1570"/>
      <point x="441" y="1506" type="curve" smooth="yes"/>
      <point x="441" y="1495" type="line" smooth="yes"/>
      <point x="441" y="1431"/>
      <point x="465" y="1392"/>
    </contour>
  </outline>
</glyph>
<glyph name="atilde" format="2">
  <advance width="684"/>
  <unicode hex="00E3"/>
  <anchor x="337" y="0" name="bottom"/>
  <anchor x="636" y="0" name="ogonek"/>
  <anchor x="338" y="1317" name="top"/>
  <outline>
    <contour>
      <point x="604" y="0" type="line"/>
      <point x="604" y="688" type="line" smooth="yes"/>
      <point x="604" y="905"/>
      <point x="524" y="1014"/>
      <point x="326" y="1014" type="curve" smooth="yes"/>
      <point x="227" y="1014"/>
      <point x="145" y="981"/>
      <point x="89" y="944" type="curve"/>
      <point x="77" y="788" type="line"/>
      <point x="138" y="826"/>
      <point x="215" y="862"/>
      <point x="292" y="862" type="curve" smooth="yes"/>
      <point x="393" y="862"/>
      <point x="431" y="805"/>
      <point x="431" y="681" type="curve" smooth="yes"/>
      <point x="431" y="601" type="line"/>
      <point x="431" y="172" type="line"/>
      <point x="439" y="172" type="line"/>
      <point x="432" y="0" type="line"/>
    </contour>
    <contour>
      <point x="248" y="-14" type="curve" smooth="yes"/>
      <point x="364" y="-14"/>
      <point x="410" y="55"/>
      <point x="429" y="145" type="curve"/>
      <point x="455" y="145" type="line"/>
      <point x="434" y="266" type="line"/>
      <point x="421" y="188"/>
      <point x="384" y="132"/>
      <point x="318" y="132" type="curve" smooth="yes"/>
      <point x="246" y="132"/>
      <point x="221" y="185"/>
      <point x="221" y="278" type="curve" smooth="yes"/>
      <point x="221" y="319" type="line" smooth="yes"/>
      <point x="221" y="400"/>
      <point x="251" y="443"/>
      <point x="327" y="466" type="curve" smooth="yes"/>
      <point x="470" y="510" type="line"/>
      <point x="452" y="648" type="line"/>
      <point x="284" y="598" type="line" smooth="yes"/>
      <point x="117" y="548"/>
      <point x="49" y="472"/>
      <point x="49" y="310" type="curve" smooth="yes"/>
      <point x="49" y="251" type="line" smooth="yes"/>
      <point x="49" y="79"/>
      <point x="113" y="-14"/>
    </contour>
    <contour>
      <point x="444" y="1124" type="curve" smooth="yes"/>
      <point x="528" y="1124"/>
      <point x="562" y="1181"/>
      <point x="562" y="1280" type="curve" smooth="yes"/>
      <point x="562" y="1312" type="line"/>
      <point x="455" y="1312" type="line"/>
      <point x="455" y="1299" type="line" smooth="yes"/>
      <point x="455" y="1265"/>
      <point x="447" y="1248"/>
      <point x="419" y="1248" type="curve" smooth="yes"/>
      <point x="378" y="1248"/>
      <point x="313" y="1303"/>
      <point x="241" y="1303" type="curve" smooth="yes"/>
      <point x="156" y="1303"/>
      <point x="122" y="1244"/>
      <point x="122" y="1146" type="curve" smooth="yes"/>
      <point x="122" y="1114" type="line"/>
      <point x="229" y="1114" type="line"/>
      <point x="229" y="1127" type="line" smooth="yes"/>
      <point x="229" y="1160"/>
      <point x="238" y="1178"/>
      <point x="266" y="1178" type="curve" smooth="yes"/>
      <point x="308" y="1178"/>
      <point x="378" y="1124"/>
    </contour>
  </outline>
</glyph>
<glyph name="adieresis" format="2">
  <advance width="684"/>
  <unicode hex="00E4"/>
  <anchor x="337" y="0" name="bottom"/>
  <anchor x="636" y="0" name="ogonek"/>
  <anchor x="337" y="1322" name="top"/>
  <outline>
    <contour>
      <point x="604" y="0" type="line"/>
      <point x="604" y="688" type="line" smooth="yes"/>
      <point x="604" y="905"/>
      <point x="524" y="1014"/>
      <point x="326" y="1014" type="curve" smooth="yes"/>
      <point x="227" y="1014"/>
      <point x="145" y="981"/>
      <point x="89" y="944" type="curve"/>
      <point x="77" y="788" type="line"/>
      <point x="138" y="826"/>
      <point x="215" y="862"/>
      <point x="292" y="862" type="curve" smooth="yes"/>
      <point x="393" y="862"/>
      <point x="431" y="805"/>
      <point x="431" y="681" type="curve" smooth="yes"/>
      <point x="431" y="601" type="line"/>
      <point x="431" y="172" type="line"/>
      <point x="439" y="172" type="line"/>
      <point x="432" y="0" type="line"/>
    </contour>
    <contour>
      <point x="248" y="-14" type="curve" smooth="yes"/>
      <point x="364" y="-14"/>
      <point x="410" y="55"/>
      <point x="429" y="145" type="curve"/>
      <point x="455" y="145" type="line"/>
      <point x="434" y="266" type="line"/>
      <point x="421" y="188"/>
      <point x="384" y="132"/>
      <point x="318" y="132" type="curve" smooth="yes"/>
      <point x="246" y="132"/>
      <point x="221" y="185"/>
      <point x="221" y="278" type="curve" smooth="yes"/>
      <point x="221" y="319" type="line" smooth="yes"/>
      <point x="221" y="400"/>
      <point x="251" y="443"/>
      <point x="327" y="466" type="curve" smooth="yes"/>
      <point x="470" y="510" type="line"/>
      <point x="452" y="648" type="line"/>
      <point x="284" y="598" type="line" smooth="yes"/>
      <point x="117" y="548"/>
      <point x="49" y="472"/>
      <point x="49" y="310" type="curve" smooth="yes"/>
      <point x="49" y="251" type="line" smooth="yes"/>
      <point x="49" y="79"/>
      <point x="113" y="-14"/>
    </contour>
    <contour>
      <point x="216" y="1119" type="curve" smooth="yes"/>
      <point x="272" y="1119"/>
      <point x="297" y="1157"/>
      <point x="297" y="1222" type="curve" smooth="yes"/>
      <point x="297" y="1233" type="line" smooth="yes"/>
      <point x="297" y="1298"/>
      <point x="272" y="1335"/>
      <point x="216" y="1335" type="curve" smooth="yes"/>
      <point x="160" y="1335"/>
      <point x="135" y="1298"/>
      <point x="135" y="1233" type="curve" smooth="yes"/>
      <point x="135" y="1222" type="line" smooth="yes"/>
      <point x="135" y="1157"/>
      <point x="160" y="1119"/>
    </contour>
    <contour>
      <point x="457" y="1119" type="curve" smooth="yes"/>
      <point x="512" y="1119"/>
      <point x="538" y="1158"/>
      <point x="538" y="1222" type="curve" smooth="yes"/>
      <point x="538" y="1233" type="line" smooth="yes"/>
      <point x="538" y="1297"/>
      <point x="512" y="1335"/>
      <point x="457" y="1335" type="curve" smooth="yes"/>
      <point x="400" y="1335"/>
      <point x="376" y="1297"/>
      <point x="376" y="1233" type="curve" smooth="yes"/>
      <point x="376" y="1222" type="line" smooth="yes"/>
      <point x="376" y="1158"/>
      <point x="400" y="1119"/>
    </contour>
  </outline>
</glyph>
<glyph name="ccedilla" format="2">
  <advance width="555"/>
  <unicode hex="00E7"/>
  <anchor x="342" y="-339" name="bottom"/>
  <anchor x="311" y="998" name="top"/>
  <outline>
    <contour>
      <point x="339" y="-14" type="curve" smooth="yes"/>
      <point x="411" y="-14"/>
      <point x="471" y="8"/>
      <point x="509" y="40" type="curve"/>
      <point x="521" y="192" type="line"/>
      <point x="484" y="163"/>
      <point x="441" y="142"/>
      <point x="386" y="142" type="curve" smooth="yes"/>
      <point x="285" y="142"/>
      <point x="243" y="209"/>
      <point x="243" y="323" type="curve" smooth="yes"/>
      <point x="243" y="676" type="line" smooth="yes"/>
      <point x="243" y="793"/>
      <point x="280" y="860"/>
      <point x="380" y="860" type="curve" smooth="yes"/>
      <point x="437" y="860"/>
      <point x="478" y="839"/>
      <point x="515" y="810" type="curve"/>
      <point x="503" y="959" type="line"/>
      <point x="464" y="989"/>
      <point x="408" y="1012"/>
      <point x="337" y="1012" type="curve" smooth="yes"/>
      <point x="152" y="1012"/>
      <point x="69" y="890"/>
      <point x="69" y="678" type="curve" smooth="yes"/>
      <point x="69" y="319" type="line" smooth="yes"/>
      <point x="69" y="107"/>
      <point x="152" y="-14"/>
    </contour>
    <contour>
      <point x="260" y="21" type="line"/>
      <point x="250" y="-126" type="line"/>
      <point x="250" y="-126"/>
      <point x="254" y="-126"/>
      <point x="254" y="-126" type="curve"/>
      <point x="335" y="-132"/>
      <point x="364" y="-148"/>
      <point x="364" y="-185" type="curve"/>
      <point x="364" y="-187" type="line"/>
      <point x="364" y="-215"/>
      <point x="341" y="-235"/>
      <point x="291" y="-235" type="curve" smooth="yes"/>
      <point x="260" y="-235"/>
      <point x="226" y="-227"/>
      <point x="200" y="-218" type="curve"/>
      <point x="215" y="-321" type="line"/>
      <point x="242" y="-328"/>
      <point x="276" y="-335"/>
      <point x="315" y="-335" type="curve" smooth="yes"/>
      <point x="418" y="-335"/>
      <point x="481" y="-292"/>
      <point x="481" y="-203" type="curve" smooth="yes"/>
      <point x="481" y="-197" type="line" smooth="yes"/>
      <point x="481" y="-115"/>
      <point x="424" y="-72"/>
      <point x="327" y="-67" type="curve" smooth="yes"/>
      <point x="311" y="-66"/>
      <point x="297" y="-68"/>
      <point x="280" y="-70" type="curve"/>
      <point x="355" y="-115" type="line"/>
      <point x="366" y="21" type="line"/>
    </contour>
  </outline>
</glyph>
<glyph name="igrave" format="2">
  <advance width="356"/>
  <unicode hex="00EC"/>
  <anchor x="178" y="0" name="bottom"/>
  <anchor x="297" y="0" name="ogonek"/>
  <anchor x="105" y="1317" name="top"/>
  <outline>
    <contour>
      <point x="265" y="0" type="line"/>
      <point x="265" y="998" type="line"/>
      <point x="91" y="998" type="line"/>
      <point x="91" y="0" type="line"/>
    </contour>
    <contour>
      <point x="4" y="1349" type="line"/>
      <point x="4" y="1349" type="line"/>
      <point x="109" y="1092" type="line"/>
      <point x="245" y="1092" type="line"/>
      <point x="245" y="1092" type="line"/>
      <point x="179" y="1349" type="line"/>
    </contour>
  </outline>
</glyph>
<glyph name="icircumflex" format="2">
  <advance width="356"/>
  <unicode hex="00EE"/>
  <anchor x="178" y="0" name="bottom"/>
  <anchor x="297" y="0" name="ogonek"/>
  <anchor x="178" y="1307" name="top"/>
  <outline>
    <contour>
      <point x="265" y="0" type="line"/>
      <point x="265" y="998" type="line"/>
      <point x="91" y="998" type="line"/>
      <point x="91" y="0" type="line"/>
    </contour>
    <contour>
      <point x="-10" y="1092" type="line"/>
      <point x="-10" y="1092" type="line"/>
      <point x="109" y="1092" type="line"/>
      <point x="174" y="1252" type="line"/>
      <point x="182" y="1252" type="line"/>
      <point x="247" y="1092" type="line"/>
      <point x="366" y="1092" type="line"/>
      <point x="366" y="1092" type="line"/>
      <point x="269" y="1349" type="line"/>
      <point x="87" y="1349" type="line"/>
    </contour>
  </outline>
</glyph>
<glyph name="ntilde" format="2">
  <advance width="748"/>
  <unicode hex="00F1"/>
  <anchor x="375" y="0" name="bottom"/>
  <anchor x="376" y="1317" name="top"/>
  <outline>
    <contour>
      <point x="666" y="0" type="line"/>
      <point x="666" y="726" type="line" smooth="yes"/>
      <point x="666" y="916"/>
      <point x="604" y="1012"/>
      <point x="463" y="1012" type="curve" smooth="yes"/>
      <point x="338" y="1012"/>
      <point x="286" y="946"/>
      <point x="264" y="853" type="curve"/>
      <point x="222" y="853" type="line"/>
      <point x="259" y="732" type="line"/>
      <point x="273" y="810"/>
      <point x="313" y="866"/>
      <point x="385" y="866" type="curve" smooth="yes"/>
      <point x="464" y="866"/>
      <point x="492" y="810"/>
      <point x="492" y="704" type="curve" smooth="yes"/>
      <point x="492" y="0" type="line"/>
    </contour>
    <contour>
      <point x="262" y="0" type="line"/>
      <point x="262" y="826" type="line"/>
      <point x="254" y="833" type="line"/>
      <point x="261" y="998" type="line"/>
      <point x="88" y="998" type="line"/>
      <point x="88" y="0" type="line"/>
    </contour>
    <contour>
      <point x="482" y="1124" type="curve" smooth="yes"/>
      <point x="566" y="1124"/>
      <point x="600" y="1181"/>
      <point x="600" y="1280" type="curve" smooth="yes"/>
      <point x="600" y="1312" type="line"/>
      <point x="493" y="1312" type="line"/>
      <point x="493" y="1299" type="line" smooth="yes"/>
      <point x="493" y="1265"/>
      <point x="485" y="1248"/>
      <point x="457" y="1248" type="curve" smooth="yes"/>
      <point x="416" y="1248"/>
      <point x="351" y="1303"/>
      <point x="279" y="1303" type="curve" smooth="yes"/>
      <point x="194" y="1303"/>
      <point x="160" y="1244"/>
      <point x="160" y="1146" type="curve" smooth="yes"/>
      <point x="160" y="1114" type="line"/>
      <point x="267" y="1114" type="line"/>
      <point x="267" y="1127" type="line" smooth="yes"/>
      <point x="267" y="1160"/>
      <point x="276" y="1178"/>
      <point x="304" y="1178" type="curve" smooth="yes"/>
      <point x="346" y="1178"/>
      <point x="416" y="1124"/>
    </contour>
  </outline>
</glyph>
<glyph name="odieresis" format="2">
  <advance width="725"/>
  <unicode hex="00F6"/>
  <anchor x="363" y="0" name="bottom"/>
  <anchor x="363" y="499" name="center"/>
  <anchor x="543" y="5" name="ogonek"/>
  <anchor x="363" y="1322" name="top"/>
  <anchor x="685" y="998" name="topright"/>
  <outline>
    <contour>
      <point x="363" y="-17" type="curve" smooth="yes"/>
      <point x="556" y="-17"/>
      <point x="656" y="99"/>
      <point x="656" y="314" type="curve" smooth="yes"/>
      <point x="656" y="685" type="line" smooth="yes"/>
      <point x="656" y="900"/>
      <point x="556" y="1015"/>
      <point x="363" y="1015" type="curve" smooth="yes"/>
      <point x="169" y="1015"/>
      <point x="69" y="900"/>
      <point x="69" y="685" type="curve" smooth="yes"/>
      <point x="69" y="314" type="line" smooth="yes"/>
      <point x="69" y="99"/>
      <point x="169" y="-17"/>
    </contour>
    <contour>
      <point x="363" y="127" type="curve" smooth="yes"/>
      <point x="278" y="127"/>
      <point x="243" y="185"/>
      <point x="243" y="301" type="curve" smooth="yes"/>
      <point x="243" y="698" type="line" smooth="yes"/>
      <point x="243" y="814"/>
      <point x="278" y="871"/>
      <point x="363" y="871" type="curve" smooth="yes"/>
      <point x="447" y="871"/>
      <point x="482" y="814"/>
      <point x="482" y="698" type="curve" smooth="yes"/>
      <point x="482" y="301" type="line" smooth="yes"/>
      <point x="482" y="185"/>
      <point x="447" y="127"/>
    </contour>
    <contour>
      <point x="242" y="1119" type="curve" smooth="yes"/>
      <point x="298" y="1119"/>
      <point x="323" y="1157"/>
      <point x="323" y="1222" type="curve" smooth="yes"/>
      <point x="323" y="1233" type="line" smooth="yes"/>
      <point x="323" y="1298"/>
      <point x="298" y="1335"/>
      <point x="242" y="1335" type="curve" smooth="yes"/>
      <point x="186" y="1335"/>
      <point x="161" y="1298"/>
      <point x="161" y="1233" type="curve" smooth="yes"/>
      <point x="161" y="1222" type="line" smooth="yes"/>
      <point x="161" y="1157"/>
      <point x="186" y="1119"/>
    </contour>
    <contour>
      <point x="483" y="1119" type="curve" smooth="yes"/>
      <point x="538" y="1119"/>
      <point x="564" y="1158"/>
      <point x="564" y="1222" type="curve" smooth="yes"/>
      <point x="564" y="1233" type="line" smooth="yes"/>
      <point x="564" y="1297"/>
      <point x="538" y="1335"/>
      <point x="483" y="1335" type="curve" smooth="yes"/>
      <point x="426" y="1335"/>
      <point x="402" y="1297"/>
      <point x="402" y="1233" type="curve" smooth="yes"/>
      <point x="402" y="1222" type="line" smooth="yes"/>
      <point x="402" y="1158"/>
      <point x="426" y="1119"/>
    </contour>
  </outline>
</glyph>
<glyph name="oslash" format="2">
  <advance width="725"/>
  <unicode hex="00F8"/>
  <anchor x="363" y="0" name="bottom"/>
  <anchor x="363" y="499" name="center"/>
  <anchor x="650" y="10" name="ogonek"/>
  <anchor x="363" y="998" name="top"/>
  <anchor x="702" y="998" name="topright"/>
  <outline>
    <contour>
      <point x="363" y="-17" type="curve" smooth="yes"/>
      <point x="558" y="-17"/>
      <point x="656" y="101"/>
      <point x="656" y="328" type="curve"/>
      <point x="656" y="671" type="line"/>
      <point x="656" y="895"/>
      <point x="551" y="1015"/>
      <point x="363" y="1015" type="curve" smooth="yes"/>
      <point x="167" y="1015"/>
      <point x="69" y="898"/>
      <point x="69" y="671" type="curve"/>
      <point x="69" y="328" type="line"/>
      <point x="69" y="104"/>
      <point x="174" y="-17"/>
    </contour>
    <contour>
      <point x="239" y="-78" type="line"/>
      <point x="276" y="43" type="line"/>
      <point x="294" y="100" type="line"/>
      <point x="516" y="849" type="line"/>
      <point x="558" y="919" type="line"/>
      <point x="609" y="1076" type="line"/>
      <point x="486" y="1076" type="line"/>
      <point x="451" y="962" type="line"/>
      <point x="436" y="915" type="line"/>
      <point x="216" y="170" type="line"/>
      <point x="175" y="103" type="line"/>
      <point x="116" y="-78" type="line"/>
    </contour>
    <contour>
      <point x="363" y="125" type="curve" smooth="yes"/>
      <point x="272" y="125"/>
      <point x="235" y="187"/>
      <point x="235" y="311" type="curve" smooth="yes"/>
      <point x="235" y="686" type="line" smooth="yes"/>
      <point x="235" y="812"/>
      <point x="272" y="874"/>
      <point x="363" y="874" type="curve" smooth="yes"/>
      <point x="453" y="874"/>
      <point x="490" y="813"/>
      <point x="490" y="689" type="curve" smooth="yes"/>
      <point x="490" y="313" type="line" smooth="yes"/>
      <point x="490" y="187"/>
      <point x="453" y="125"/>
    </contour>
  </outline>
</glyph>
<glyph name="udieresis" format="2">
  <advance width="748"/>
  <unicode hex="00FC"/>
  <anchor x="375" y="0" name="bottom"/>
  <anchor x="692" y="0" name="ogonek"/>
  <anchor x="375" y="1322" name="top"/>
  <anchor x="736" y="998" name="topright"/>
  <outline>
    <contour>
      <point x="82" y="998" type="line"/>
      <point x="82" y="272" type="line" smooth="yes"/>
      <point x="82" y="82"/>
      <point x="144" y="-14"/>
      <point x="285" y="-14" type="curve" smooth="yes"/>
      <point x="410" y="-14"/>
      <point x="462" y="52"/>
      <point x="484" y="145" type="curve"/>
      <point x="526" y="145" type="line"/>
      <point x="489" y="266" type="line"/>
      <point x="475" y="188"/>
      <point x="435" y="132"/>
      <point x="363" y="132" type="curve" smooth="yes"/>
      <point x="284" y="132"/>
      <point x="256" y="188"/>
      <point x="256" y="294" type="curve" smooth="yes"/>
      <point x="256" y="998" type="line"/>
    </contour>
    <contour>
      <point x="486" y="998" type="line"/>
      <point x="486" y="172" type="line"/>
      <point x="494" y="165" type="line"/>
      <point x="487" y="0" type="line"/>
      <point x="660" y="0" type="line"/>
      <point x="660" y="998" type="line"/>
    </contour>
    <contour>
      <point x="254" y="1119" type="curve" smooth="yes"/>
      <point x="310" y="1119"/>
      <point x="335" y="1157"/>
      <point x="335" y="1222" type="curve" smooth="yes"/>
      <point x="335" y="1233" type="line" smooth="yes"/>
      <point x="335" y="1298"/>
      <point x="310" y="1335"/>
      <point x="254" y="1335" type="curve" smooth="yes"/>
      <point x="198" y="1335"/>
      <point x="173" y="1298"/>
      <point x="173" y="1233" type="curve" smooth="yes"/>
      <point x="173" y="1222" type="line" smooth="yes"/>
      <point x="173" y="1157"/>
      <point x="198" y="1119"/>
    </contour>
    <contour>
      <point x="495" y="1119" type="curve" smooth="yes"/>
      <point x="550" y="1119"/>
      <point x="576" y="1158"/>
      <point x="576" y="1222" type="curve" smooth="yes"/>
      <point x="576" y="1233" type="line" smooth="yes"/>
      <point x="576" y="1297"/>
      <point x="550" y="1335"/>
      <point x="495" y="1335" type="curve" smooth="yes"/>
      <point x="438" y="1335"/>
      <point x="414" y="1297"/>
      <point x="414" y="1233" type="curve" smooth="yes"/>
      <point x="414" y="1222" type="line" smooth="yes"/>
      <point x="414" y="1158"/>
      <point x="438" y="1119"/>
    </contour>
  </outline>
</glyph>
<glyph name="circumflex" format="2">
  <advance width="624"/>
  <unicode hex="02C6"/>
  <anchor x="312" y="998" name="_top"/>
  <anchor x="312" y="1307" name="top"/>
  <outline>
    <contour>
      <point x="100" y="1092" type="line"/>
      <point x="100" y="1092" type="line"/>
      <point x="228" y="1092" type="line"/>
      <point x="308" y="1252" type="line"/>
      <point x="316" y="1252" type="line"/>
      <point x="396" y="1092" type="line"/>
      <point x="524" y="1092" type="line"/>
      <point x="524" y="1092" type="line"/>
      <point x="409" y="1349" type="line"/>
      <point x="214" y="1349" type="line"/>
    </contour>
  </outline>
</glyph>
<glyph name="macroncomb" format="2">
  <advance width="615"/>
  <unicode hex="0304"/>
  <anchor x="308" y="998" name="_top"/>
  <anchor x="308" y="1276" name="top"/>
  <outline>
    <contour>
      <point x="516" y="1140" type="line"/>
      <point x="516" y="1263" type="line"/>
      <point x="99" y="1263" type="line"/>
      <point x="99" y="1140" type="line"/>
    </contour>
  </outline>
</glyph>
<glyph name="ringcomb" format="2">
  <advance width="542"/>
  <unicode hex="030A"/>
  <anchor x="271" y="998" name="_top"/>
  <anchor x="272" y="1374" name="top"/>
  <outline>
    <contour>
      <point x="100" y="1234" type="line" smooth="yes"/>
      <point x="100" y="1145"/>
      <point x="156" y="1081"/>
      <point x="271" y="1081" type="curve" smooth="yes"/>
      <point x="385" y="1081"/>
      <point x="442" y="1145"/>
      <point x="442" y="1234" type="curve" smooth="yes"/>
      <point x="442" y="1238" type="line" smooth="yes"/>
      <point x="442" y="1329"/>
      <point x="385" y="1392"/>
      <point x="271" y="1392" type="curve" smooth="yes"/>
      <point x="156" y="1392"/>
      <point x="100" y="1329"/>
      <point x="100" y="1238" type="curve" smooth="yes"/>
    </contour>
    <contour>
      <point x="201" y="1238" type="line" smooth="yes"/>
      <point x="201" y="1281"/>
      <point x="226" y="1305"/>
      <point x="271" y="1305" type="curve" smooth="yes"/>
      <point x="315" y="1305"/>
      <point x="340" y="1281"/>
      <point x="340" y="1238" type="curve" smooth="yes"/>
      <point x="340" y="1235" type="line" smooth="yes"/>
      <point x="340" y="1192"/>
      <point x="315" y="1168"/>
      <point x="271" y="1168" type="curve" smooth="yes"/>
      <point x="226" y="1168"/>
      <point x="201" y="1192"/>
      <point x="201" y="1235" type="curve" smooth="yes"/>
    </contour>
  </outline>
</glyph>
<glyph name="Visarga.dv" format="2">
  <advance width="316"/>
  <unicode hex="0903"/>
  <outline>
    <contour>
      <point x="-23" y="1154.5" type="line"/>
      <point x="-33.5" y="1289.5" type="line"/>
      <point x="339" y="1289.5" type="line"/>
      <point x="349" y="1154.5" type="line"/>
    </contour>
    <contour>
      <point x="153.523" y="672.277" type="curve" smooth="yes"/>
      <point x="223.944" y="672.277"/>
      <point x="256.698" y="718.133"/>
      <point x="256.698" y="796.743" type="curve" smooth="yes"/>
      <point x="256.698" y="814.211" type="line" smooth="yes"/>
      <point x="256.698" y="892.821"/>
      <point x="225.036" y="939.223"/>
      <point x="153.523" y="939.223" type="curve" smooth="yes"/>
      <point x="82.01" y="939.223"/>
      <point x="49.8019" y="892.821"/>
      <point x="49.8019" y="814.211" type="curve" smooth="yes"/>
      <point x="49.8019" y="796.743" type="line" smooth="yes"/>
      <point x="49.8019" y="718.133"/>
      <point x="82.01" y="672.277"/>
    </contour>
    <contour>
      <point x="153.523" y="157.277" type="curve" smooth="yes"/>
      <point x="223.944" y="157.277"/>
      <point x="256.698" y="203.133"/>
      <point x="256.698" y="281.743" type="curve" smooth="yes"/>
      <point x="256.698" y="299.211" type="line" smooth="yes"/>
      <point x="256.698" y="377.821"/>
      <point x="225.036" y="424.223"/>
      <point x="153.523" y="424.223" type="curve" smooth="yes"/>
      <point x="82.01" y="424.223"/>
      <point x="49.8019" y="377.821"/>
      <point x="49.8019" y="299.211" type="curve" smooth="yes"/>
      <point x="49.8019" y="281.743" type="line" smooth="yes"/>
      <point x="49.8019" y="203.133"/>
      <point x="82.01" y="157.277"/>
    </contour>
  </outline>
</glyph>
<glyph name="vowelShortA.dv" format="2">
  <advance width="1025"/>
  <unicode hex="0904"/>
  <anchor x="897" y="1258.5" name="top"/>
  <outline>
    <contour>
      <point x="466.195" y="1752.94" type="curve" smooth="yes"/>
      <point x="466.195" y="1648.39"/>
      <point x="495.995" y="1612.52"/>
      <point x="604.087" y="1607.47" type="curve" smooth="yes"/>
      <point x="651.061" y="1605.45" type="line" smooth="yes"/>
      <point x="832.897" y="1597.88"/>
      <point x="896.035" y="1509.99"/>
      <point x="896.035" y="1339.27" type="curve" smooth="yes"/>
      <point x="896.035" y="1252.89" type="line"/>
      <point x="747.03" y="1252.89" type="line"/>
      <point x="747.03" y="1333.38" type="line" smooth="yes"/>
      <point x="747.03" y="1421.82"/>
      <point x="722.328" y="1461.47"/>
      <point x="626.816" y="1466.03" type="curve" smooth="yes"/>
      <point x="574.791" y="1468.52" type="line" smooth="yes"/>
      <point x="399.519" y="1476.89"/>
      <point x="320.726" y="1544.53"/>
      <point x="320.726" y="1689.44" type="curve" smooth="yes"/>
      <point x="320.726" y="1715.26"/>
      <point x="323.756" y="1744.36"/>
      <point x="331.333" y="1771.63" type="curve"/>
      <point x="466.195" y="1771.63" type="line"/>
      <point x="466.195" y="1768.59"/>
      <point x="466.195" y="1756.17"/>
    </contour>
    <contour>
      <point x="1058" y="1155" type="line"/>
      <point x="618" y="1155" type="line"/>
      <point x="608" y="1290" type="line"/>
      <point x="1049" y="1290" type="line"/>
    </contour>
    <contour>
      <point x="740" y="6.48342e-08" type="line"/>
      <point x="740" y="1206" type="line"/>
      <point x="909" y="1206" type="line"/>
      <point x="909" y="6.48342e-08" type="line"/>
    </contour>
    <contour>
      <point x="32" y="245" type="line"/>
      <point x="92" y="203"/>
      <point x="157" y="176"/>
      <point x="226" y="176" type="curve" smooth="yes"/>
      <point x="329" y="176"/>
      <point x="375" y="230"/>
      <point x="375" y="362" type="curve" smooth="yes"/>
      <point x="375" y="416" type="line" smooth="yes"/>
      <point x="375" y="540"/>
      <point x="328.011" y="597.269"/>
      <point x="205" y="602" type="curve" smooth="yes"/>
      <point x="127" y="605" type="line"/>
      <point x="127" y="747" type="line"/>
      <point x="200" y="752" type="line" smooth="yes"/>
      <point x="318.025" y="760.084"/>
      <point x="364" y="814.407"/>
      <point x="364" y="941" type="curve" smooth="yes"/>
      <point x="364" y="996" type="line" smooth="yes"/>
      <point x="364" y="1108"/>
      <point x="325" y="1157"/>
      <point x="235" y="1157" type="curve" smooth="yes"/>
      <point x="175.289" y="1157"/>
      <point x="120.639" y="1137"/>
      <point x="67" y="1105" type="curve"/>
      <point x="74" y="1257" type="line"/>
      <point x="122.249" y="1284.59"/>
      <point x="187.608" y="1304"/>
      <point x="264" y="1304" type="curve" smooth="yes"/>
      <point x="444" y="1304"/>
      <point x="528" y="1208.3"/>
      <point x="528" y="1015.13" type="curve" smooth="yes"/>
      <point x="528" y="963" type="line" smooth="yes"/>
      <point x="528" y="805.118"/>
      <point x="469.5" y="726.899"/>
      <point x="316" y="708" type="curve"/>
      <point x="316" y="644" type="line"/>
      <point x="487.233" y="598.805"/>
      <point x="540" y="512.87"/>
      <point x="540" y="371" type="curve" smooth="yes"/>
      <point x="540" y="325" type="line" smooth="yes"/>
      <point x="540" y="121.349"/>
      <point x="451.623" y="26"/>
      <point x="253" y="26" type="curve" smooth="yes"/>
      <point x="165" y="26"/>
      <point x="91.4739" y="49.7931"/>
      <point x="40" y="86" type="curve"/>
    </contour>
    <contour>
      <point x="304" y="722" type="line"/>
      <point x="400" y="737" type="line"/>
      <point x="404" y="721" type="line"/>
      <point x="470.706" y="730.824"/>
      <point x="534.802" y="736"/>
      <point x="619" y="736" type="curve" smooth="yes"/>
      <point x="793" y="736" type="line"/>
      <point x="793" y="592" type="line"/>
      <point x="620" y="592" type="line" smooth="yes"/>
      <point x="529.839" y="592"/>
      <point x="467" y="603"/>
      <point x="400" y="624" type="curve"/>
      <point x="394" y="600" type="line"/>
      <point x="304" y="620" type="line"/>
    </contour>
  </outline>
  <guideline angle="90" x="693" y="0"/>
  <guideline angle="90" x="711" y="0"/>
</glyph>
<glyph name="vowelI.dv" format="2">
  <advance width="727"/>
  <unicode hex="0907"/>
  <anchor x="649" y="-222" name="bottom3"/>
  <anchor x="523.5" y="1258.5" name="top"/>
  <outline>
    <contour>
      <point x="369.5" y="1154.5" type="line"/>
      <point x="359.5" y="1289.5" type="line"/>
      <point x="720" y="1289.5" type="line"/>
      <point x="730" y="1154.5" type="line"/>
    </contour>
    <contour>
      <point x="606" y="1204" type="line"/>
      <point x="606" y="988.5" type="line"/>
      <point x="442" y="988.5" type="line"/>
      <point x="442" y="1204" type="line"/>
    </contour>
    <contour>
      <point x="760" y="1155" type="line"/>
      <point x="-23" y="1155" type="line"/>
      <point x="-33" y="1290" type="line"/>
      <point x="750" y="1290" type="line"/>
    </contour>
    <contour>
      <point x="441" y="1193" type="line"/>
      <point x="606" y="1193" type="line"/>
      <point x="606" y="837" type="line"/>
      <point x="441" y="893" type="line"/>
    </contour>
    <contour>
      <point x="547" y="-334" type="line"/>
      <point x="364" y="-334" type="line"/>
      <point x="196" y="8" type="line"/>
      <point x="78" y="70" type="line"/>
      <point x="326" y="32" type="line"/>
      <point x="326" y="4" type="line"/>
      <point x="380" y="-48"/>
      <point x="418.574" y="-96.6795"/>
      <point x="458" y="-168" type="curve" smooth="yes"/>
      <point x="547" y="-329" type="line"/>
    </contour>
    <contour>
      <point x="68" y="248" type="line"/>
      <point x="156" y="184"/>
      <point x="244" y="142"/>
      <point x="334" y="142" type="curve" smooth="yes"/>
      <point x="441" y="142"/>
      <point x="491" y="193"/>
      <point x="491" y="297" type="curve" smooth="yes"/>
      <point x="491" y="309" type="line" smooth="yes"/>
      <point x="491" y="402"/>
      <point x="456" y="454"/>
      <point x="374" y="454" type="curve" smooth="yes"/>
      <point x="321" y="454"/>
      <point x="274" y="435.595"/>
      <point x="229" y="411" type="curve"/>
      <point x="122" y="478.238"/>
      <point x="75" y="563.532"/>
      <point x="75" y="694" type="curve" smooth="yes"/>
      <point x="75" y="708" type="line" smooth="yes"/>
      <point x="75" y="890"/>
      <point x="171" y="986"/>
      <point x="370" y="986" type="curve" smooth="yes"/>
      <point x="462" y="986"/>
      <point x="539" y="972"/>
      <point x="606" y="953" type="curve"/>
      <point x="606" y="827" type="line"/>
      <point x="545" y="839"/>
      <point x="483" y="845"/>
      <point x="419" y="845" type="curve" smooth="yes"/>
      <point x="289" y="845"/>
      <point x="243" y="800"/>
      <point x="243" y="705" type="curve" smooth="yes"/>
      <point x="243" y="695" type="line" smooth="yes"/>
      <point x="243" y="638.471"/>
      <point x="254.537" y="603.76"/>
      <point x="286" y="575" type="curve"/>
      <point x="323" y="592.414"/>
      <point x="368.015" y="603"/>
      <point x="420" y="603" type="curve" smooth="yes"/>
      <point x="586" y="603"/>
      <point x="661" y="507.665"/>
      <point x="661" y="315" type="curve" smooth="yes"/>
      <point x="661" y="292" type="line" smooth="yes"/>
      <point x="661" y="98.3579"/>
      <point x="575.725" y="-8"/>
      <point x="347" y="-8" type="curve" smooth="yes"/>
      <point x="289.936" y="-8"/>
      <point x="237.881" y="3.95456"/>
      <point x="191.906" y="25.5678" type="curve"/>
      <point x="78" y="70" type="line"/>
    </contour>
  </outline>
  <guideline angle="0" x="0" y="-178"/>
  <guideline angle="90" x="491" y="0"/>
</glyph>
<glyph name="vowelU.dv" format="2">
  <advance width="624"/>
  <unicode hex="0909"/>
  <anchor x="568" y="23" name="bottom3"/>
  <anchor x="291.5" y="42.5" name="bottom5"/>
  <anchor x="345.5" y="1258.5" name="top"/>
  <outline>
    <contour>
      <point x="-26" y="1155" type="line"/>
      <point x="-36" y="1290" type="line"/>
      <point x="648" y="1290" type="line"/>
      <point x="658" y="1155" type="line"/>
    </contour>
    <contour>
      <point x="471" y="1183" type="line"/>
      <point x="510" y="1134.45"/>
      <point x="528" y="1069.05"/>
      <point x="528" y="966" type="curve" smooth="yes"/>
      <point x="528" y="941.492" type="line" smooth="yes"/>
      <point x="528" y="777.829"/>
      <point x="483.076" y="692"/>
      <point x="351" y="669" type="curve"/>
      <point x="351" y="661" type="line"/>
      <point x="488.524" y="636"/>
      <point x="541" y="549.135"/>
      <point x="541" y="365.421" type="curve" smooth="yes"/>
      <point x="541" y="306.513" type="line" smooth="yes"/>
      <point x="541" y="93.8476"/>
      <point x="456" y="-6"/>
      <point x="252" y="-6" type="curve" smooth="yes"/>
      <point x="169" y="-6"/>
      <point x="100" y="16"/>
      <point x="52" y="51.2605" type="curve"/>
      <point x="44" y="210" type="line"/>
      <point x="104.333" y="168"/>
      <point x="164.667" y="145"/>
      <point x="225" y="145" type="curve" smooth="yes"/>
      <point x="327.299" y="145"/>
      <point x="371" y="199.877"/>
      <point x="371" y="321.605" type="curve" smooth="yes"/>
      <point x="371" y="383.467" type="line" smooth="yes"/>
      <point x="371" y="531.136"/>
      <point x="332.059" y="583.337"/>
      <point x="190" y="589.007" type="curve" smooth="yes"/>
      <point x="115" y="592" type="line"/>
      <point x="115" y="736" type="line"/>
      <point x="192" y="739" type="line" smooth="yes"/>
      <point x="319.045" y="743.95"/>
      <point x="358" y="806"/>
      <point x="358" y="950" type="curve" smooth="yes"/>
      <point x="358" y="972" type="line" smooth="yes"/>
      <point x="358" y="1072"/>
      <point x="344" y="1133"/>
      <point x="298" y="1183" type="curve"/>
    </contour>
  </outline>
  <guideline angle="90" x="692" y="0"/>
</glyph>
<glyph name="vowelRu.dv" format="2">
  <advance width="1188"/>
  <unicode hex="090B"/>
  <anchor x="880.5" y="23" name="bottom3"/>
  <anchor x="606.5" y="42.5" name="bottom5"/>
  <anchor x="606" y="1258.5" name="top"/>
  <outline>
    <contour>
      <point x="1216" y="1155" type="line"/>
      <point x="-24" y="1155" type="line"/>
      <point x="-33" y="1290" type="line"/>
      <point x="1206" y="1290" type="line"/>
    </contour>
    <contour>
      <point x="941" y="723" type="line"/>
      <point x="1001" y="595" type="line"/>
      <point x="648" y="393" type="line"/>
      <point x="644" y="555" type="line"/>
    </contour>
    <contour>
      <point x="1010" y="970" type="line"/>
      <point x="1035" y="891.698"/>
      <point x="1052" y="810.283"/>
      <point x="1064" y="715" type="curve"/>
      <point x="1018" y="612" type="line"/>
      <point x="875" y="587" type="line"/>
      <point x="875" y="970" type="line"/>
    </contour>
    <contour>
      <point x="824" y="48" type="curve"/>
      <point x="815" y="188" type="line"/>
      <point x="835" y="180"/>
      <point x="854" y="176"/>
      <point x="878" y="176" type="curve" smooth="yes"/>
      <point x="938.75" y="176"/>
      <point x="959" y="212.5"/>
      <point x="959" y="322" type="curve" smooth="yes"/>
      <point x="959" y="371" type="line" smooth="yes"/>
      <point x="959" y="478"/>
      <point x="950.545" y="530"/>
      <point x="897" y="581" type="curve"/>
      <point x="1001" y="645" type="line"/>
      <point x="1091.45" y="574"/>
      <point x="1123" y="493"/>
      <point x="1123" y="352" type="curve" smooth="yes"/>
      <point x="1123" y="301" type="line" smooth="yes"/>
      <point x="1123" y="103"/>
      <point x="1058.32" y="30"/>
      <point x="922" y="30" type="curve" smooth="yes"/>
      <point x="883.588" y="30"/>
      <point x="850.268" y="36.4118"/>
    </contour>
    <contour>
      <point x="692" y="0" type="line"/>
      <point x="522" y="0" type="line"/>
      <point x="522" y="1188" type="line"/>
      <point x="692" y="1188" type="line"/>
    </contour>
    <contour>
      <point x="566" y="354" type="line"/>
      <point x="57" y="56" type="line"/>
      <point x="57" y="232.404" type="line"/>
      <point x="260" y="352" type="line"/>
      <point x="283" y="351" type="line"/>
      <point x="326" y="385"/>
      <point x="357.657" y="404.596"/>
      <point x="406" y="432" type="curve" smooth="yes"/>
      <point x="563" y="521" type="line"/>
    </contour>
    <contour>
      <point x="322" y="361" type="line"/>
      <point x="172" y="288" type="line"/>
      <point x="214.218" y="364.235"/>
      <point x="226" y="423.529"/>
      <point x="226" y="586" type="curve" smooth="yes"/>
      <point x="226" y="664" type="line" smooth="yes"/>
      <point x="226" y="789.326"/>
      <point x="201.278" y="833"/>
      <point x="137" y="833" type="curve" smooth="yes"/>
      <point x="102" y="833"/>
      <point x="73" y="823"/>
      <point x="47" y="808" type="curve"/>
      <point x="58" y="955" type="line"/>
      <point x="90.2465" y="970"/>
      <point x="130.555" y="979"/>
      <point x="176.909" y="979" type="curve" smooth="yes"/>
      <point x="320.549" y="979"/>
      <point x="385" y="893.435"/>
      <point x="385" y="688.092" type="curve" smooth="yes"/>
      <point x="385" y="644.288" type="line" smooth="yes"/>
      <point x="385" y="513.759"/>
      <point x="367.654" y="450"/>
      <point x="309" y="388" type="curve"/>
    </contour>
  </outline>
</glyph>
<glyph name="vowelLru.dv" format="2">
  <advance width="1018"/>
  <unicode hex="090C"/>
  <anchor x="809" y="-135" name="bottom3"/>
  <anchor x="726" y="1258.5" name="top"/>
  <outline>
    <contour>
      <point x="941.5" y="551.854" type="line" smooth="yes"/>
      <point x="941.5" y="409.141"/>
      <point x="918.454" y="331.209"/>
      <point x="846" y="216.874" type="curve" smooth="yes"/>
      <point x="776.323" y="106.921"/>
      <point x="753" y="70.7498"/>
      <point x="753" y="7.26115" type="curve" smooth="yes"/>
      <point x="753" y="-49.9061"/>
      <point x="783" y="-82"/>
      <point x="843" y="-82" type="curve" smooth="yes"/>
      <point x="885.686" y="-82"/>
      <point x="919.114" y="-69.3077"/>
      <point x="951" y="-49" type="curve"/>
      <point x="943.479" y="-193.509" type="line"/>
      <point x="910.522" y="-213.978"/>
      <point x="866.475" y="-225"/>
      <point x="810.788" y="-225" type="curve" smooth="yes"/>
      <point x="681" y="-225"/>
      <point x="595" y="-148.347"/>
      <point x="595" y="-4" type="curve" smooth="yes"/>
      <point x="595" y="89.1329"/>
      <point x="615.501" y="148.006"/>
      <point x="692" y="269" type="curve" smooth="yes"/>
      <point x="757.029" y="371.852"/>
      <point x="771" y="421.872"/>
      <point x="771" y="540.005" type="curve" smooth="yes"/>
      <point x="771" y="593.268" type="line"/>
      <point x="941.5" y="601.638" type="line"/>
    </contour>
    <contour>
      <point x="572" y="1154.5" type="line"/>
      <point x="562" y="1289.5" type="line"/>
      <point x="922.5" y="1289.5" type="line"/>
      <point x="932.5" y="1154.5" type="line"/>
    </contour>
    <contour>
      <point x="808.5" y="1204" type="line"/>
      <point x="808.5" y="988.5" type="line"/>
      <point x="644.5" y="988.5" type="line"/>
      <point x="644.5" y="1204" type="line"/>
    </contour>
    <contour>
      <point x="-23" y="1154.5" type="line"/>
      <point x="-33" y="1289.5" type="line"/>
      <point x="1033" y="1289.5" type="line"/>
      <point x="1043" y="1154.5" type="line"/>
    </contour>
    <contour>
      <point x="808.5" y="1175.5" type="line"/>
      <point x="808.5" y="898.5" type="line"/>
      <point x="643.5" y="898.5" type="line"/>
      <point x="643.5" y="1175.5" type="line"/>
    </contour>
    <contour>
      <point x="84" y="458" type="curve" smooth="yes"/>
      <point x="84" y="605.5" type="line" smooth="yes"/>
      <point x="84" y="842.5"/>
      <point x="170.231" y="937.5"/>
      <point x="322.56" y="937.5" type="curve" smooth="yes"/>
      <point x="431.123" y="937.5"/>
      <point x="488.687" y="888.477"/>
      <point x="510" y="796.5" type="curve"/>
      <point x="519" y="796.5" type="line"/>
      <point x="540.386" y="887.543"/>
      <point x="600.744" y="937.5"/>
      <point x="708.384" y="937.5" type="curve" smooth="yes"/>
      <point x="860.747" y="937.5"/>
      <point x="941.5" y="844.482"/>
      <point x="941.5" y="617.5" type="curve" smooth="yes"/>
      <point x="941.5" y="586" type="line"/>
      <point x="771" y="576.978" type="line"/>
      <point x="771" y="620.265" type="line" smooth="yes"/>
      <point x="771" y="747"/>
      <point x="745.513" y="787.5"/>
      <point x="682.431" y="787.5" type="curve" smooth="yes"/>
      <point x="626.847" y="787.5"/>
      <point x="598.659" y="755.63"/>
      <point x="596" y="642.643" type="curve" smooth="yes"/>
      <point x="588.358" y="317.885" type="line"/>
      <point x="433.743" y="317.885" type="line"/>
      <point x="426.846" y="642.924" type="line" smooth="yes"/>
      <point x="424.464" y="755.205"/>
      <point x="400.033" y="787.5"/>
      <point x="345.996" y="787.5" type="curve" smooth="yes"/>
      <point x="282.263" y="787.5"/>
      <point x="255.5" y="744.914"/>
      <point x="255.5" y="605.5" type="curve" smooth="yes"/>
      <point x="255.5" y="459" type="line" smooth="yes"/>
      <point x="255.5" y="238.5"/>
      <point x="297.5" y="131.5"/>
      <point x="404" y="3" type="curve"/>
      <point x="404" y="0" type="line"/>
      <point x="210.5" y="0" type="line"/>
      <point x="119.358" y="117.5"/>
      <point x="84" y="229.5"/>
    </contour>
  </outline>
  <guideline angle="90" x="700" y="0"/>
  <guideline angle="90" x="693.5" y="0"/>
</glyph>
<glyph name="vowelShortE.dv" format="2">
  <advance width="797"/>
  <unicode hex="090E"/>
  <anchor x="691" y="23" name="bottom3"/>
  <anchor x="686" y="1258.5" name="top"/>
  <outline>
    <contour>
      <point x="264" y="1753.5" type="curve" smooth="yes"/>
      <point x="264" y="1650"/>
      <point x="293.5" y="1614.5"/>
      <point x="400.5" y="1609.5" type="curve" smooth="yes"/>
      <point x="447" y="1607.5" type="line" smooth="yes"/>
      <point x="627" y="1600"/>
      <point x="689.5" y="1513"/>
      <point x="689.5" y="1344" type="curve" smooth="yes"/>
      <point x="689.5" y="1258.5" type="line"/>
      <point x="542" y="1258.5" type="line"/>
      <point x="542" y="1338.17" type="line" smooth="yes"/>
      <point x="542" y="1425.72"/>
      <point x="517.547" y="1464.97"/>
      <point x="423" y="1469.49" type="curve" smooth="yes"/>
      <point x="371.5" y="1471.95" type="line" smooth="yes"/>
      <point x="197.998" y="1480.23"/>
      <point x="120" y="1547.2"/>
      <point x="120" y="1690.64" type="curve" smooth="yes"/>
      <point x="120" y="1716.2"/>
      <point x="123" y="1745"/>
      <point x="130.5" y="1772" type="curve"/>
      <point x="264" y="1772" type="line"/>
      <point x="264" y="1768.99"/>
      <point x="264" y="1756.7"/>
    </contour>
    <contour>
      <point x="-24" y="1155" type="line"/>
      <point x="-34" y="1290" type="line"/>
      <point x="820" y="1290" type="line"/>
      <point x="831" y="1155" type="line"/>
    </contour>
    <contour>
      <point x="278" y="507" type="line" smooth="yes"/>
      <point x="278" y="224.342"/>
      <point x="373.289" y="145"/>
      <point x="546" y="145" type="curve" smooth="yes"/>
      <point x="589.592" y="145"/>
      <point x="634.284" y="151.802"/>
      <point x="672" y="162" type="curve"/>
      <point x="658" y="14" type="line"/>
      <point x="618.803" y="-0.461538"/>
      <point x="572.98" y="-5"/>
      <point x="526" y="-5" type="curve" smooth="yes"/>
      <point x="257.077" y="-5"/>
      <point x="108" y="141"/>
      <point x="108" y="506" type="curve" smooth="yes"/>
      <point x="108" y="1196" type="line"/>
      <point x="278" y="1196" type="line"/>
    </contour>
    <contour>
      <point x="700" y="736" type="line" smooth="yes"/>
      <point x="700" y="477"/>
      <point x="621" y="397"/>
      <point x="470" y="397" type="curve" smooth="yes"/>
      <point x="451" y="397"/>
      <point x="431" y="399.4"/>
      <point x="416" y="403" type="curve"/>
      <point x="416" y="547" type="line"/>
      <point x="417.56" y="547"/>
      <point x="422.44" y="547"/>
      <point x="424" y="547" type="curve"/>
      <point x="507" y="547"/>
      <point x="532" y="588.838"/>
      <point x="532" y="738" type="curve" smooth="yes"/>
      <point x="532" y="1194" type="line"/>
      <point x="700" y="1195" type="line"/>
    </contour>
  </outline>
</glyph>
<glyph name="vowelAi.dv" format="2">
  <advance width="797"/>
  <unicode hex="0910"/>
  <anchor x="691" y="23" name="bottom3"/>
  <anchor x="565" y="1258.5" name="top"/>
  <outline>
    <contour>
      <point x="-24" y="1155" type="line"/>
      <point x="-34" y="1290" type="line"/>
      <point x="820" y="1290" type="line"/>
      <point x="831" y="1155" type="line"/>
    </contour>
    <contour>
      <point x="278" y="507" type="line" smooth="yes"/>
      <point x="278" y="224.342"/>
      <point x="373.289" y="145"/>
      <point x="546" y="145" type="curve" smooth="yes"/>
      <point x="589.592" y="145"/>
      <point x="634.284" y="151.802"/>
      <point x="672" y="162" type="curve"/>
      <point x="658" y="14" type="line"/>
      <point x="618.803" y="-0.461538"/>
      <point x="572.98" y="-5"/>
      <point x="526" y="-5" type="curve" smooth="yes"/>
      <point x="257.077" y="-5"/>
      <point x="108" y="141"/>
      <point x="108" y="506" type="curve" smooth="yes"/>
      <point x="108" y="1196" type="line"/>
      <point x="278" y="1196" type="line"/>
    </contour>
    <contour>
      <point x="700" y="736" type="line" smooth="yes"/>
      <point x="700" y="477"/>
      <point x="621" y="397"/>
      <point x="470" y="397" type="curve" smooth="yes"/>
      <point x="451" y="397"/>
      <point x="431" y="399.4"/>
      <point x="416" y="403" type="curve"/>
      <point x="416" y="547" type="line"/>
      <point x="417.56" y="547"/>
      <point x="422.44" y="547"/>
      <point x="424" y="547" type="curve"/>
      <point x="507" y="547"/>
      <point x="532" y="588.838"/>
      <point x="532" y="738" type="curve" smooth="yes"/>
      <point x="532" y="1194" type="line"/>
      <point x="700" y="1195" type="line"/>
    </contour>
    <contour>
      <point x="104" y="1754.5" type="line"/>
      <point x="288" y="1754.5" type="line"/>
      <point x="368.458" y="1656.02"/>
      <point x="597.47" y="1375.73"/>
      <point x="676.5" y="1279" type="curve"/>
      <point x="676.5" y="1258.5" type="line"/>
      <point x="526.5" y="1258.5" type="line"/>
      <point x="526.5" y="1294" type="line"/>
      <point x="419.344" y="1369"/>
      <point x="360.405" y="1428.86"/>
      <point x="271" y="1537" type="curve" smooth="yes"/>
      <point x="104" y="1739" type="line"/>
    </contour>
  </outline>
</glyph>
<glyph name="vowelO.dv" format="2">
  <advance width="1425"/>
  <unicode hex="0913"/>
  <anchor x="1179" y="1258" name="top"/>
  <outline>
    <contour>
      <point x="712" y="1754.5" type="line"/>
      <point x="896" y="1754.5" type="line"/>
      <point x="976.458" y="1656.02"/>
      <point x="1205.47" y="1375.73"/>
      <point x="1284.5" y="1279" type="curve"/>
      <point x="1284.5" y="1258.5" type="line"/>
      <point x="1134.5" y="1258.5" type="line"/>
      <point x="1134.5" y="1294" type="line"/>
      <point x="1027.34" y="1369"/>
      <point x="968.405" y="1428.86"/>
      <point x="879" y="1537" type="curve" smooth="yes"/>
      <point x="712" y="1739" type="line"/>
    </contour>
    <contour>
      <point x="1308.25" y="0" type="line"/>
      <point x="1138.75" y="0" type="line"/>
      <point x="1138.75" y="1203.5" type="line"/>
      <point x="1308.25" y="1203.5" type="line"/>
    </contour>
    <contour>
      <point x="1457.25" y="1154.5" type="line"/>
      <point x="999.75" y="1154.5" type="line"/>
      <point x="989.75" y="1289.5" type="line"/>
      <point x="1447.25" y="1289.5" type="line"/>
    </contour>
    <contour>
      <point x="1057" y="1155" type="line"/>
      <point x="617" y="1155" type="line"/>
      <point x="607" y="1290" type="line"/>
      <point x="1048" y="1290" type="line"/>
    </contour>
    <contour>
      <point x="739" y="0" type="line"/>
      <point x="739" y="1206" type="line"/>
      <point x="908" y="1206" type="line"/>
      <point x="908" y="0" type="line"/>
    </contour>
    <contour>
      <point x="31" y="245" type="line"/>
      <point x="91" y="203"/>
      <point x="156" y="176"/>
      <point x="225" y="176" type="curve" smooth="yes"/>
      <point x="328" y="176"/>
      <point x="374" y="230"/>
      <point x="374" y="362" type="curve" smooth="yes"/>
      <point x="374" y="416" type="line" smooth="yes"/>
      <point x="374" y="540"/>
      <point x="327.011" y="597.269"/>
      <point x="204" y="602" type="curve" smooth="yes"/>
      <point x="126" y="605" type="line"/>
      <point x="126" y="747" type="line"/>
      <point x="199" y="752" type="line" smooth="yes"/>
      <point x="317.026" y="760.084"/>
      <point x="363" y="814.407"/>
      <point x="363" y="941" type="curve" smooth="yes"/>
      <point x="363" y="996" type="line" smooth="yes"/>
      <point x="363" y="1108"/>
      <point x="324" y="1157"/>
      <point x="234" y="1157" type="curve" smooth="yes"/>
      <point x="174.289" y="1157"/>
      <point x="119.639" y="1137"/>
      <point x="66" y="1105" type="curve"/>
      <point x="73" y="1257" type="line"/>
      <point x="121.249" y="1284.59"/>
      <point x="186.608" y="1304"/>
      <point x="263" y="1304" type="curve" smooth="yes"/>
      <point x="443" y="1304"/>
      <point x="527" y="1208.3"/>
      <point x="527" y="1015.13" type="curve" smooth="yes"/>
      <point x="527" y="963" type="line" smooth="yes"/>
      <point x="527" y="805.118"/>
      <point x="468.5" y="726.899"/>
      <point x="315" y="708" type="curve"/>
      <point x="315" y="644" type="line"/>
      <point x="486.233" y="598.805"/>
      <point x="539" y="512.87"/>
      <point x="539" y="371" type="curve" smooth="yes"/>
      <point x="539" y="325" type="line" smooth="yes"/>
      <point x="539" y="121.349"/>
      <point x="450.623" y="26"/>
      <point x="252" y="26" type="curve" smooth="yes"/>
      <point x="164" y="26"/>
      <point x="90.4739" y="49.7931"/>
      <point x="39" y="86" type="curve"/>
    </contour>
    <contour>
      <point x="303" y="722" type="line"/>
      <point x="399" y="737" type="line"/>
      <point x="403" y="721" type="line"/>
      <point x="469.706" y="730.824"/>
      <point x="533.802" y="736"/>
      <point x="618" y="736" type="curve" smooth="yes"/>
      <point x="792" y="736" type="line"/>
      <point x="792" y="592" type="line"/>
      <point x="619" y="592" type="line" smooth="yes"/>
      <point x="528.839" y="592"/>
      <point x="466" y="603"/>
      <point x="399" y="624" type="curve"/>
      <point x="393" y="600" type="line"/>
      <point x="303" y="620" type="line"/>
    </contour>
  </outline>
  <guideline angle="90" x="643" y="0"/>
  <guideline angle="90" x="1042" y="0"/>
  <guideline angle="90" x="1012" y="0"/>
  <guideline angle="90" x="1029" y="0"/>
  <guideline angle="0" x="0" y="1262"/>
</glyph>
<glyph name="Ka.dv" format="2">
  <advance width="1118"/>
  <unicode hex="0915"/>
  <anchor x="564.5" y="23.5" name="bottom"/>
  <anchor x="557" y="23.5" name="bottom2"/>
  <anchor x="843" y="23.5" name="bottom3"/>
  <anchor x="564.5" y="43" name="bottom5"/>
  <anchor x="564.5" y="1259" name="top"/>
  <outline>
    <contour>
      <point x="-22" y="1155" type="line"/>
      <point x="-32" y="1290" type="line"/>
      <point x="1139" y="1290" type="line"/>
      <point x="1149" y="1155" type="line"/>
    </contour>
    <contour>
      <point x="80" y="468" type="curve" smooth="yes"/>
      <point x="80" y="669" type="line" smooth="yes"/>
      <point x="80" y="888"/>
      <point x="157" y="988"/>
      <point x="317" y="988" type="curve" smooth="yes"/>
      <point x="352" y="988"/>
      <point x="380" y="984"/>
      <point x="404" y="976" type="curve"/>
      <point x="415" y="831" type="line"/>
      <point x="398.241" y="836"/>
      <point x="381.41" y="839"/>
      <point x="360.663" y="839" type="curve" smooth="yes"/>
      <point x="286.566" y="839"/>
      <point x="250" y="786.738"/>
      <point x="250" y="666.437" type="curve" smooth="yes"/>
      <point x="250" y="480" type="line" smooth="yes"/>
      <point x="250" y="350.983"/>
      <point x="290.027" y="308"/>
      <point x="364.004" y="308" type="curve" smooth="yes"/>
      <point x="429.57" y="308"/>
      <point x="470.89" y="347.672"/>
      <point x="484" y="430" type="curve"/>
      <point x="495" y="286" type="line"/>
      <point x="469" y="286" type="line"/>
      <point x="443.868" y="202.385"/>
      <point x="388" y="157"/>
      <point x="298" y="157" type="curve" smooth="yes"/>
      <point x="162.895" y="157"/>
      <point x="80" y="241"/>
    </contour>
    <contour>
      <point x="1038" y="670" type="curve" smooth="yes"/>
      <point x="1038" y="476.225" type="line" smooth="yes"/>
      <point x="1038" y="256.382"/>
      <point x="967" y="157"/>
      <point x="813" y="157" type="curve" smooth="yes"/>
      <point x="778" y="157"/>
      <point x="749" y="161"/>
      <point x="723" y="170" type="curve"/>
      <point x="712" y="315" type="line"/>
      <point x="729.771" y="309"/>
      <point x="746.554" y="306"/>
      <point x="767.287" y="306" type="curve" smooth="yes"/>
      <point x="839.357" y="306"/>
      <point x="868" y="354.725"/>
      <point x="868" y="478.028" type="curve" smooth="yes"/>
      <point x="868" y="662.451" type="line" smooth="yes"/>
      <point x="868" y="786.42"/>
      <point x="835.611" y="837"/>
      <point x="763" y="837" type="curve" smooth="yes"/>
      <point x="703" y="837"/>
      <point x="657" y="800.622"/>
      <point x="645" y="720" type="curve"/>
      <point x="634" y="863" type="line"/>
      <point x="659" y="863" type="line"/>
      <point x="686.68" y="941"/>
      <point x="742.04" y="988"/>
      <point x="832" y="988" type="curve" smooth="yes"/>
      <point x="967.019" y="988"/>
      <point x="1038" y="893"/>
    </contour>
    <contour>
      <point x="649" y="1204.5" type="line"/>
      <point x="649" y="0.5" type="line"/>
      <point x="479" y="0.5" type="line"/>
      <point x="479" y="1204.5" type="line"/>
    </contour>
  </outline>
  <guideline angle="90" x="464" y="0"/>
  <guideline angle="0" x="0" y="9"/>
  <guideline angle="90" x="469" y="0"/>
  <guideline angle="90" x="452" y="0"/>
  <guideline angle="0" x="0" y="1262"/>
  <guideline angle="90" x="487" y="0"/>
  <guideline angle="0" x="0" y="30"/>
</glyph>
<glyph name="Kha.dv" format="2">
  <advance width="1134"/>
  <unicode hex="0916"/>
  <anchor x="934" y="23" name="bottom"/>
  <anchor x="925.5" y="23" name="bottom2"/>
  <anchor x="1018" y="23" name="bottom3"/>
  <anchor x="933" y="42.5" name="bottom5"/>
  <anchor x="931.5" y="1258.5" name="top"/>
  <outline>
    <contour>
      <point x="1017.5" y="1203.5" type="line"/>
      <point x="1017.5" y="0" type="line"/>
      <point x="848" y="0" type="line"/>
      <point x="848" y="1203.5" type="line"/>
    </contour>
    <contour>
      <point x="785.5" y="1154.5" type="line"/>
      <point x="775.5" y="1289.5" type="line"/>
      <point x="1156.5" y="1289.5" type="line"/>
      <point x="1166.5" y="1154.5" type="line"/>
    </contour>
    <contour>
      <point x="-23" y="1155" type="line"/>
      <point x="-33" y="1290" type="line"/>
      <point x="1156" y="1290" type="line"/>
      <point x="1166" y="1155" type="line"/>
    </contour>
    <contour>
      <point x="399" y="947" type="curve" smooth="yes"/>
      <point x="399" y="886" type="line" smooth="yes"/>
      <point x="399" y="636"/>
      <point x="319.98" y="558.284"/>
      <point x="134" y="545" type="curve" smooth="yes"/>
      <point x="106" y="543" type="line"/>
      <point x="34" y="679" type="line"/>
      <point x="65" y="679" type="line" smooth="yes"/>
      <point x="179" y="679"/>
      <point x="229" y="740"/>
      <point x="229" y="903" type="curve" smooth="yes"/>
      <point x="229" y="961" type="line" smooth="yes"/>
      <point x="229" y="1068"/>
      <point x="219" y="1134"/>
      <point x="188" y="1180" type="curve"/>
      <point x="356" y="1180" type="line"/>
      <point x="387" y="1131"/>
      <point x="399" y="1059"/>
    </contour>
    <contour>
      <point x="778" y="59" type="line"/>
      <point x="733" y="39"/>
      <point x="675" y="30"/>
      <point x="613" y="30" type="curve" smooth="yes"/>
      <point x="354" y="30"/>
      <point x="202.85" y="157.064"/>
      <point x="127" y="456" type="curve" smooth="yes"/>
      <point x="110" y="523" type="line"/>
      <point x="34" y="531" type="line"/>
      <point x="34" y="679" type="line"/>
      <point x="248" y="605" type="line"/>
      <point x="272" y="522" type="line" smooth="yes"/>
      <point x="348.922" y="255.977"/>
      <point x="462" y="183"/>
      <point x="634" y="183" type="curve" smooth="yes"/>
      <point x="715" y="183"/>
      <point x="792" y="198.373"/>
      <point x="856" y="232" type="curve"/>
      <point x="856" y="209" type="line"/>
    </contour>
    <contour>
      <point x="687" y="365" type="curve" smooth="yes"/>
      <point x="565.857" y="365"/>
      <point x="496" y="444.113"/>
      <point x="496" y="639" type="curve" smooth="yes"/>
      <point x="496" y="720" type="line" smooth="yes"/>
      <point x="496" y="915"/>
      <point x="566" y="1003"/>
      <point x="705" y="1003" type="curve" smooth="yes"/>
      <point x="731" y="1003"/>
      <point x="752" y="999.625"/>
      <point x="772" y="994" type="curve"/>
      <point x="784" y="851" type="line"/>
      <point x="772.806" y="853.25"/>
      <point x="764.333" y="854"/>
      <point x="753" y="854" type="curve" smooth="yes"/>
      <point x="690.446" y="854"/>
      <point x="665" y="817.43"/>
      <point x="665" y="712.577" type="curve" smooth="yes"/>
      <point x="665" y="659" type="line" smooth="yes"/>
      <point x="665" y="556.338"/>
      <point x="691.292" y="517"/>
      <point x="755" y="517" type="curve" smooth="yes"/>
      <point x="807.459" y="517"/>
      <point x="842.102" y="545.897"/>
      <point x="852" y="606" type="curve"/>
      <point x="864" y="466" type="line"/>
      <point x="836" y="466" type="line"/>
      <point x="814" y="405"/>
      <point x="774" y="365"/>
    </contour>
  </outline>
</glyph>
<glyph name="Ga.dv" format="2">
  <advance width="843"/>
  <unicode hex="0917"/>
  <anchor x="643" y="23" name="bottom"/>
  <anchor x="634.5" y="23" name="bottom2"/>
  <anchor x="727" y="23" name="bottom3"/>
  <anchor x="642" y="42.5" name="bottom5"/>
  <anchor x="640.5" y="1258.5" name="top"/>
  <outline>
    <contour>
      <point x="726.5" y="1203.5" type="line"/>
      <point x="726.5" y="0" type="line"/>
      <point x="557" y="0" type="line"/>
      <point x="557" y="1203.5" type="line"/>
    </contour>
    <contour>
      <point x="494.5" y="1154.5" type="line"/>
      <point x="484.5" y="1289.5" type="line"/>
      <point x="865.5" y="1289.5" type="line"/>
      <point x="875.5" y="1154.5" type="line"/>
    </contour>
    <contour>
      <point x="-20" y="1154.5" type="line"/>
      <point x="-30" y="1289.5" type="line"/>
      <point x="864" y="1289.5" type="line"/>
      <point x="874" y="1154.5" type="line"/>
    </contour>
    <contour>
      <point x="306.5" y="1174" type="line"/>
      <point x="341" y="1112.5"/>
      <point x="351" y="1027"/>
      <point x="351" y="838" type="curve" smooth="yes"/>
      <point x="351" y="684" type="line" smooth="yes"/>
      <point x="351" y="391.335"/>
      <point x="272.454" y="294.5"/>
      <point x="114" y="294.5" type="curve" smooth="yes"/>
      <point x="86.3061" y="294.5"/>
      <point x="56.0491" y="299.409"/>
      <point x="34" y="308" type="curve"/>
      <point x="27" y="467.5" type="line"/>
      <point x="39.6894" y="462.729"/>
      <point x="53.8106" y="461.5"/>
      <point x="68.5" y="461.5" type="curve" smooth="yes"/>
      <point x="147.389" y="461.5"/>
      <point x="180.5" y="504.943"/>
      <point x="180.5" y="709.5" type="curve" smooth="yes"/>
      <point x="180.5" y="857.5" type="line" smooth="yes"/>
      <point x="180.5" y="1024.5"/>
      <point x="171.5" y="1113.5"/>
      <point x="135.5" y="1174" type="curve"/>
    </contour>
  </outline>
  <guideline angle="0" x="0" y="119"/>
  <guideline angle="90" x="50" y="0"/>
  <guideline angle="90" x="603" y="0"/>
  <guideline angle="0" x="0" y="9"/>
  <guideline angle="90" x="608" y="0"/>
  <guideline angle="90" x="591" y="0"/>
  <guideline angle="0" x="0" y="1262"/>
  <guideline angle="90" x="641" y="0"/>
  <guideline angle="0" x="0" y="30"/>
</glyph>
<glyph name="Gha.dv" format="2">
  <advance width="880"/>
  <unicode hex="0918"/>
  <anchor x="680" y="23" name="bottom"/>
  <anchor x="671.5" y="23" name="bottom2"/>
  <anchor x="764" y="23" name="bottom3"/>
  <anchor x="679" y="42.5" name="bottom5"/>
  <anchor x="677.5" y="1258.5" name="top"/>
  <outline>
    <contour>
      <point x="763.5" y="1203.5" type="line"/>
      <point x="763.5" y="0" type="line"/>
      <point x="594" y="0" type="line"/>
      <point x="594" y="1203.5" type="line"/>
    </contour>
    <contour>
      <point x="531.5" y="1154.5" type="line"/>
      <point x="521.5" y="1289.5" type="line"/>
      <point x="902.5" y="1289.5" type="line"/>
      <point x="912.5" y="1154.5" type="line"/>
    </contour>
    <contour>
      <point x="-23" y="1154.5" type="line"/>
      <point x="-33" y="1289.5" type="line"/>
      <point x="901.5" y="1289.5" type="line"/>
      <point x="911.5" y="1154.5" type="line"/>
    </contour>
    <contour>
      <point x="285.5" y="746.5" type="line"/>
      <point x="142.15" y="769.992"/>
      <point x="85.5" y="838.976"/>
      <point x="85.5" y="995.376" type="curve" smooth="yes"/>
      <point x="85.5" y="1023.66" type="line" smooth="yes"/>
      <point x="85.5" y="1096.15"/>
      <point x="98.1087" y="1151.77"/>
      <point x="125.152" y="1188.5" type="curve"/>
      <point x="302" y="1188.5" type="line"/>
      <point x="270.957" y="1152.59"/>
      <point x="258" y="1102.86"/>
      <point x="258" y="1031.92" type="curve" smooth="yes"/>
      <point x="258" y="1003.86" type="line" smooth="yes"/>
      <point x="258" y="871.902"/>
      <point x="305.123" y="822.25"/>
      <point x="417.5" y="815" type="curve" smooth="yes"/>
      <point x="464" y="812" type="line"/>
      <point x="464" y="664.5" type="line"/>
      <point x="416.5" y="662.5" type="line" smooth="yes"/>
      <point x="301.514" y="657.658"/>
      <point x="254" y="610.196"/>
      <point x="254" y="495.785" type="curve" smooth="yes"/>
      <point x="254" y="466.689" type="line" smooth="yes"/>
      <point x="254" y="354.25"/>
      <point x="308" y="302"/>
      <point x="421" y="302" type="curve" smooth="yes"/>
      <point x="512" y="302"/>
      <point x="576.5" y="345.5"/>
      <point x="597" y="442" type="curve"/>
      <point x="602.5" y="288.5" type="line"/>
      <point x="583" y="288.5" type="line"/>
      <point x="553" y="201"/>
      <point x="483" y="150"/>
      <point x="363" y="150" type="curve" smooth="yes"/>
      <point x="179.3" y="150"/>
      <point x="82" y="246"/>
      <point x="82" y="445.5" type="curve" smooth="yes"/>
      <point x="82" y="479" type="line" smooth="yes"/>
      <point x="82" y="642.314"/>
      <point x="141.047" y="721.646"/>
      <point x="285.5" y="739" type="curve"/>
    </contour>
  </outline>
</glyph>
<glyph name="Ca.dv" format="2">
  <advance width="862"/>
  <unicode hex="091A"/>
  <anchor x="662" y="23" name="bottom"/>
  <anchor x="653.5" y="23" name="bottom2"/>
  <anchor x="746" y="23" name="bottom3"/>
  <anchor x="661" y="42.5" name="bottom5"/>
  <anchor x="659.5" y="1258.5" name="top"/>
  <outline>
    <contour>
      <point x="745.5" y="1203.5" type="line"/>
      <point x="745.5" y="0" type="line"/>
      <point x="576" y="0" type="line"/>
      <point x="576" y="1203.5" type="line"/>
    </contour>
    <contour>
      <point x="513.5" y="1154.5" type="line"/>
      <point x="503.5" y="1289.5" type="line"/>
      <point x="884.5" y="1289.5" type="line"/>
      <point x="894.5" y="1154.5" type="line"/>
    </contour>
    <contour>
      <point x="-15" y="1154.5" type="line"/>
      <point x="-25" y="1289.5" type="line"/>
      <point x="883.5" y="1289.5" type="line"/>
      <point x="893" y="1154.5" type="line"/>
    </contour>
    <contour>
      <point x="478" y="950.5" type="line"/>
      <point x="478" y="811" type="line"/>
      <point x="281" y="809.5" type="line"/>
      <point x="195" y="806" type="line"/>
      <point x="41" y="806" type="line"/>
      <point x="41" y="950.5" type="line"/>
    </contour>
    <contour>
      <point x="370" y="150" type="curve" smooth="yes"/>
      <point x="219.383" y="150"/>
      <point x="126" y="238.5"/>
      <point x="126" y="455" type="curve" smooth="yes"/>
      <point x="126" y="564" type="line" smooth="yes"/>
      <point x="126" y="710.446"/>
      <point x="162" y="775.18"/>
      <point x="245.5" y="799" type="curve"/>
      <point x="245.5" y="854" type="line"/>
      <point x="478" y="854" type="line"/>
      <point x="478" y="811" type="line"/>
      <point x="431.5" y="807.5" type="line" smooth="yes"/>
      <point x="335.94" y="800.307"/>
      <point x="298" y="743.9"/>
      <point x="298" y="600" type="curve" smooth="yes"/>
      <point x="298" y="491" type="line" smooth="yes"/>
      <point x="298" y="351"/>
      <point x="345" y="303"/>
      <point x="431" y="303" type="curve" smooth="yes"/>
      <point x="508.593" y="303"/>
      <point x="560.17" y="347.478"/>
      <point x="576.5" y="435" type="curve"/>
      <point x="584" y="282" type="line"/>
      <point x="564" y="282" type="line"/>
      <point x="538" y="201.5"/>
      <point x="479" y="150"/>
    </contour>
  </outline>
</glyph>
<glyph name="Cha.dv" format="2">
  <advance width="1037"/>
  <unicode hex="091B"/>
  <anchor x="543.5" y="15.5" name="bottom"/>
  <anchor x="504.5" y="15.5" name="bottom2"/>
  <anchor x="786" y="15.5" name="bottom3"/>
  <anchor x="518" y="-84.5" name="bottom4"/>
  <anchor x="520.5" y="35" name="bottom5"/>
  <anchor x="748.5" y="1258.5" name="top"/>
  <outline>
    <contour>
      <point x="594.5" y="1154.5" type="line"/>
      <point x="584.5" y="1289.5" type="line"/>
      <point x="945" y="1289.5" type="line"/>
      <point x="955" y="1154.5" type="line"/>
    </contour>
    <contour>
      <point x="831" y="1204" type="line"/>
      <point x="831" y="988.5" type="line"/>
      <point x="667" y="988.5" type="line"/>
      <point x="667" y="1204" type="line"/>
    </contour>
    <contour>
      <point x="1057" y="1290" type="line"/>
      <point x="1067" y="1155" type="line"/>
      <point x="-41" y="1155" type="line"/>
      <point x="-51" y="1290" type="line"/>
    </contour>
    <contour>
      <point x="666" y="966" type="line"/>
      <point x="666" y="1206" type="line"/>
      <point x="831" y="1206" type="line"/>
      <point x="831" y="966" type="line"/>
    </contour>
    <contour>
      <point x="517" y="-8" type="curve" smooth="yes"/>
      <point x="227.041" y="-8"/>
      <point x="87" y="124"/>
      <point x="87" y="366" type="curve" smooth="yes"/>
      <point x="87" y="390" type="line" smooth="yes"/>
      <point x="87" y="561"/>
      <point x="131.947" y="644"/>
      <point x="265" y="668" type="curve"/>
      <point x="265" y="676" type="line"/>
      <point x="131.947" y="701"/>
      <point x="87" y="780"/>
      <point x="87" y="947" type="curve" smooth="yes"/>
      <point x="87" y="974" type="line" smooth="yes"/>
      <point x="87" y="1068"/>
      <point x="99" y="1133"/>
      <point x="130" y="1181" type="curve"/>
      <point x="307" y="1181" type="line"/>
      <point x="272" y="1127.85"/>
      <point x="261" y="1067.68"/>
      <point x="261" y="973.405" type="curve" smooth="yes"/>
      <point x="261" y="951.342" type="line" smooth="yes"/>
      <point x="261" y="815.953"/>
      <point x="286.694" y="752.144"/>
      <point x="401" y="745" type="curve" smooth="yes"/>
      <point x="433" y="743" type="line"/>
      <point x="433" y="595" type="line"/>
      <point x="396" y="593" type="line" smooth="yes"/>
      <point x="286.789" y="587.097"/>
      <point x="261" y="533.175"/>
      <point x="261" y="404.79" type="curve" smooth="yes"/>
      <point x="261" y="384.73" type="line" smooth="yes"/>
      <point x="261" y="219.234"/>
      <point x="347.302" y="141"/>
      <point x="521" y="141" type="curve" smooth="yes"/>
      <point x="718.06" y="141"/>
      <point x="808" y="257"/>
      <point x="808" y="469" type="curve" smooth="yes"/>
      <point x="808" y="487" type="line"/>
      <point x="805" y="511.527" type="line"/>
      <point x="805" y="721.033" type="line" smooth="yes"/>
      <point x="805" y="823.209"/>
      <point x="785.479" y="859"/>
      <point x="730" y="859" type="curve" smooth="yes"/>
      <point x="677.459" y="859"/>
      <point x="658" y="822"/>
      <point x="658" y="724" type="curve" smooth="yes"/>
      <point x="658" y="616" type="line" smooth="yes"/>
      <point x="658" y="523"/>
      <point x="681.628" y="493"/>
      <point x="733.036" y="493" type="curve" smooth="yes"/>
      <point x="774.152" y="493"/>
      <point x="802.861" y="518.184"/>
      <point x="808" y="559" type="curve"/>
      <point x="814" y="448" type="line"/>
      <point x="797" y="448" type="line"/>
      <point x="778" y="395.221"/>
      <point x="742.595" y="359"/>
      <point x="669" y="359" type="curve" smooth="yes"/>
      <point x="566.963" y="359"/>
      <point x="511" y="423.602"/>
      <point x="511" y="590" type="curve" smooth="yes"/>
      <point x="511" y="739" type="line" smooth="yes"/>
      <point x="511" y="910"/>
      <point x="580.381" y="997"/>
      <point x="735" y="997" type="curve" smooth="yes"/>
      <point x="893" y="997"/>
      <point x="963" y="910.619"/>
      <point x="963" y="718" type="curve" smooth="yes"/>
      <point x="963" y="496.61" type="line" smooth="yes"/>
      <point x="963" y="156.547"/>
      <point x="813" y="-8"/>
    </contour>
  </outline>
</glyph>
<glyph name="Nya.dv" format="2">
  <advance width="929"/>
  <unicode hex="091E"/>
  <anchor x="729" y="23" name="bottom"/>
  <anchor x="720.5" y="23" name="bottom2"/>
  <anchor x="813" y="23" name="bottom3"/>
  <anchor x="728" y="42.5" name="bottom5"/>
  <anchor x="726.5" y="1258.5" name="top"/>
  <outline>
    <contour>
      <point x="-23" y="1154.5" type="line"/>
      <point x="-33" y="1289.5" type="line"/>
      <point x="950.5" y="1289.5" type="line"/>
      <point x="960.5" y="1154.5" type="line"/>
    </contour>
    <contour>
      <point x="72" y="954" type="line"/>
      <point x="113.356" y="976.667"/>
      <point x="158.475" y="988"/>
      <point x="215" y="988" type="curve" smooth="yes"/>
      <point x="376.347" y="988"/>
      <point x="453" y="892.862"/>
      <point x="453" y="657" type="curve" smooth="yes"/>
      <point x="453" y="474" type="line" smooth="yes"/>
      <point x="453" y="229"/>
      <point x="372" y="141"/>
      <point x="202" y="141" type="curve" smooth="yes"/>
      <point x="141" y="141"/>
      <point x="89" y="158"/>
      <point x="52.5" y="183" type="curve"/>
      <point x="46" y="333.5" type="line"/>
      <point x="85" y="308"/>
      <point x="125.926" y="291"/>
      <point x="170.5" y="291" type="curve" smooth="yes"/>
      <point x="252" y="291"/>
      <point x="288.5" y="335.053"/>
      <point x="288.5" y="477" type="curve" smooth="yes"/>
      <point x="288.5" y="651.5" type="line" smooth="yes"/>
      <point x="288.5" y="795.656"/>
      <point x="253" y="841"/>
      <point x="175" y="841" type="curve" smooth="yes"/>
      <point x="134.931" y="841"/>
      <point x="97.7586" y="828.693"/>
      <point x="63" y="805.5" type="curve"/>
    </contour>
    <contour>
      <point x="413" y="644" type="line"/>
      <point x="684.5" y="644" type="line"/>
      <point x="684.5" y="499.5" type="line"/>
      <point x="413" y="499.5" type="line"/>
    </contour>
    <contour>
      <point x="812.5" y="1203.5" type="line"/>
      <point x="812.5" y="0" type="line"/>
      <point x="643" y="0" type="line"/>
      <point x="643" y="1203.5" type="line"/>
    </contour>
    <contour>
      <point x="580.5" y="1154.5" type="line"/>
      <point x="570.5" y="1289.5" type="line"/>
      <point x="951.5" y="1289.5" type="line"/>
      <point x="961.5" y="1154.5" type="line"/>
    </contour>
  </outline>
</glyph>
<glyph name="Tta.dv" format="2">
  <advance width="665"/>
  <unicode hex="091F"/>
  <anchor x="394.5" y="25" name="bottom"/>
  <anchor x="355" y="25" name="bottom2"/>
  <anchor x="646.5" y="25" name="bottom3"/>
  <anchor x="374" y="-85" name="bottom4"/>
  <anchor x="378.5" y="44.5" name="bottom5"/>
  <anchor x="481.5" y="1258.5" name="top"/>
  <outline>
    <contour>
      <point x="327.5" y="1154.5" type="line"/>
      <point x="317.5" y="1289.5" type="line"/>
      <point x="678" y="1289.5" type="line"/>
      <point x="688" y="1154.5" type="line"/>
    </contour>
    <contour>
      <point x="564" y="1204" type="line"/>
      <point x="564" y="988.5" type="line"/>
      <point x="400" y="988.5" type="line"/>
      <point x="400" y="1204" type="line"/>
    </contour>
    <contour>
      <point x="-16" y="1155" type="line"/>
      <point x="-26" y="1290" type="line"/>
      <point x="707" y="1290" type="line"/>
      <point x="716" y="1155" type="line"/>
    </contour>
    <contour>
      <point x="399" y="821" type="line"/>
      <point x="399" y="1206" type="line"/>
      <point x="564" y="1206" type="line"/>
      <point x="564" y="792" type="line"/>
    </contour>
    <contour>
      <point x="590" y="57" type="line"/>
      <point x="544.495" y="22.6415"/>
      <point x="474.853" y="2"/>
      <point x="393" y="2" type="curve" smooth="yes"/>
      <point x="195.291" y="2"/>
      <point x="84" y="107"/>
      <point x="84" y="365" type="curve" smooth="yes"/>
      <point x="84" y="582" type="line" smooth="yes"/>
      <point x="84" y="834"/>
      <point x="186.342" y="937"/>
      <point x="395" y="937" type="curve" smooth="yes"/>
      <point x="465.838" y="937"/>
      <point x="513.401" y="928"/>
      <point x="564" y="913" type="curve"/>
      <point x="564" y="782" type="line"/>
      <point x="519.72" y="790"/>
      <point x="483.312" y="794"/>
      <point x="441" y="794" type="curve" smooth="yes"/>
      <point x="308.584" y="794"/>
      <point x="254" y="732"/>
      <point x="254" y="565" type="curve" smooth="yes"/>
      <point x="254" y="383" type="line" smooth="yes"/>
      <point x="254" y="216"/>
      <point x="311" y="161"/>
      <point x="418" y="161" type="curve" smooth="yes"/>
      <point x="481" y="161"/>
      <point x="545" y="181"/>
      <point x="598" y="221" type="curve"/>
    </contour>
  </outline>
</glyph>
<glyph name="Ttha.dv" format="2">
  <advance width="795"/>
  <unicode hex="0920"/>
  <anchor x="423" y="23" name="bottom"/>
  <anchor x="377" y="23" name="bottom2"/>
  <anchor x="684.5" y="23" name="bottom3"/>
  <anchor x="401" y="-85" name="bottom4"/>
  <anchor x="410.5" y="42.5" name="bottom5"/>
  <anchor x="472.5" y="1258.5" name="top"/>
  <outline>
    <contour>
      <point x="318.5" y="1154.5" type="line"/>
      <point x="308.5" y="1289.5" type="line"/>
      <point x="669" y="1289.5" type="line"/>
      <point x="679" y="1154.5" type="line"/>
    </contour>
    <contour>
      <point x="555" y="1204" type="line"/>
      <point x="555" y="988.5" type="line"/>
      <point x="391" y="988.5" type="line"/>
      <point x="391" y="1204" type="line"/>
    </contour>
    <contour>
      <point x="-26" y="1290" type="line"/>
      <point x="819" y="1290" type="line"/>
      <point x="829" y="1155" type="line"/>
      <point x="-16" y="1155" type="line"/>
    </contour>
    <contour>
      <point x="390" y="1207" type="line"/>
      <point x="555" y="1207" type="line"/>
      <point x="555" y="837" type="line"/>
      <point x="390" y="839" type="line"/>
    </contour>
    <contour>
      <point x="543" y="915" type="line"/>
      <point x="660" y="863"/>
      <point x="714" y="786"/>
      <point x="714" y="582" type="curve" smooth="yes"/>
      <point x="714" y="354" type="line" smooth="yes"/>
      <point x="714" y="111"/>
      <point x="611" y="0"/>
      <point x="400" y="0" type="curve" smooth="yes"/>
      <point x="188" y="0"/>
      <point x="84" y="111"/>
      <point x="84" y="353" type="curve" smooth="yes"/>
      <point x="84" y="595" type="line" smooth="yes"/>
      <point x="84" y="837"/>
      <point x="193" y="938"/>
      <point x="395" y="938" type="curve" smooth="yes"/>
      <point x="448" y="938"/>
      <point x="504" y="931"/>
      <point x="552" y="914" type="curve"/>
      <point x="552" y="765" type="line"/>
      <point x="500" y="787"/>
      <point x="451" y="795"/>
      <point x="413" y="795" type="curve" smooth="yes"/>
      <point x="304" y="795"/>
      <point x="254" y="737"/>
      <point x="254" y="590" type="curve" smooth="yes"/>
      <point x="254" y="356" type="line" smooth="yes"/>
      <point x="254" y="212"/>
      <point x="302" y="150"/>
      <point x="400" y="150" type="curve" smooth="yes"/>
      <point x="497" y="150"/>
      <point x="544" y="212"/>
      <point x="544" y="356" type="curve" smooth="yes"/>
      <point x="544" y="575" type="line" smooth="yes"/>
      <point x="544" y="720"/>
      <point x="518" y="775"/>
      <point x="435" y="802" type="curve"/>
    </contour>
  </outline>
</glyph>
<glyph name="Dda.dv" format="2">
  <advance width="727"/>
  <unicode hex="0921"/>
  <anchor x="400.5" y="15" name="bottom"/>
  <anchor x="341.5" y="15" name="bottom2"/>
  <anchor x="647.5" y="15" name="bottom3"/>
  <anchor x="373.5" y="34.5" name="bottom5"/>
  <anchor x="523" y="1258.5" name="top"/>
  <outline>
    <contour>
      <point x="369" y="1154.5" type="line"/>
      <point x="359" y="1289.5" type="line"/>
      <point x="719.5" y="1289.5" type="line"/>
      <point x="729.5" y="1154.5" type="line"/>
    </contour>
    <contour>
      <point x="605.5" y="1204" type="line"/>
      <point x="605.5" y="988.5" type="line"/>
      <point x="441.5" y="988.5" type="line"/>
      <point x="441.5" y="1204" type="line"/>
    </contour>
    <contour>
      <point x="760" y="1155" type="line"/>
      <point x="-23" y="1155" type="line"/>
      <point x="-33" y="1290" type="line"/>
      <point x="750" y="1290" type="line"/>
    </contour>
    <contour>
      <point x="441" y="1193" type="line"/>
      <point x="606" y="1193" type="line"/>
      <point x="606" y="834" type="line"/>
      <point x="577.625" y="843.63"/>
      <point x="470.231" y="880.079"/>
      <point x="441" y="890" type="curve"/>
    </contour>
    <contour>
      <point x="68" y="251" type="line"/>
      <point x="156" y="183.241"/>
      <point x="243" y="143"/>
      <point x="334" y="143" type="curve" smooth="yes"/>
      <point x="441" y="143"/>
      <point x="491" y="193.325"/>
      <point x="491" y="298" type="curve" smooth="yes"/>
      <point x="491" y="310" type="line" smooth="yes"/>
      <point x="491" y="402.359"/>
      <point x="456" y="454"/>
      <point x="374" y="454" type="curve" smooth="yes"/>
      <point x="322" y="454"/>
      <point x="274" y="436"/>
      <point x="229" y="411" type="curve"/>
      <point x="123" y="479"/>
      <point x="75" y="563"/>
      <point x="75" y="694" type="curve" smooth="yes"/>
      <point x="75" y="708" type="line" smooth="yes"/>
      <point x="75" y="890"/>
      <point x="171" y="986"/>
      <point x="370" y="986" type="curve" smooth="yes"/>
      <point x="462" y="986"/>
      <point x="539" y="972"/>
      <point x="606" y="953" type="curve"/>
      <point x="606" y="827" type="line"/>
      <point x="545" y="838"/>
      <point x="483" y="845"/>
      <point x="419" y="845" type="curve" smooth="yes"/>
      <point x="294" y="845"/>
      <point x="243" y="800"/>
      <point x="243" y="705" type="curve" smooth="yes"/>
      <point x="243" y="693" type="line" smooth="yes"/>
      <point x="243" y="635.017"/>
      <point x="253.463" y="602.466"/>
      <point x="282" y="575" type="curve"/>
      <point x="321" y="593"/>
      <point x="366" y="603"/>
      <point x="417" y="603" type="curve" smooth="yes"/>
      <point x="583.318" y="603"/>
      <point x="661" y="507"/>
      <point x="661" y="315" type="curve" smooth="yes"/>
      <point x="661" y="292" type="line" smooth="yes"/>
      <point x="661" y="93.3074"/>
      <point x="570" y="-8"/>
      <point x="350" y="-8" type="curve" smooth="yes"/>
      <point x="241" y="-8"/>
      <point x="146" y="25"/>
      <point x="78" y="77" type="curve"/>
    </contour>
  </outline>
</glyph>
<glyph name="Ddha.dv" format="2">
  <advance width="828"/>
  <unicode hex="0922"/>
  <anchor x="455.5" y="8.5" name="bottom"/>
  <anchor x="411" y="8.5" name="bottom2"/>
  <anchor x="711" y="8.5" name="bottom3"/>
  <anchor x="433.5" y="28" name="bottom5"/>
  <anchor x="609.5" y="1258.5" name="top"/>
  <outline>
    <contour>
      <point x="455.5" y="1154.5" type="line"/>
      <point x="445.5" y="1289.5" type="line"/>
      <point x="806" y="1289.5" type="line"/>
      <point x="816" y="1154.5" type="line"/>
    </contour>
    <contour>
      <point x="692" y="1204" type="line"/>
      <point x="692" y="988.499" type="line"/>
      <point x="528" y="988.499" type="line"/>
      <point x="528" y="1204" type="line"/>
    </contour>
    <contour>
      <point x="-16" y="1155" type="line"/>
      <point x="-26" y="1290" type="line"/>
      <point x="860" y="1290" type="line"/>
      <point x="869" y="1155" type="line"/>
    </contour>
    <contour>
      <point x="527" y="1203" type="line"/>
      <point x="692" y="1203" type="line"/>
      <point x="692" y="803" type="line"/>
      <point x="527" y="861" type="line"/>
    </contour>
    <contour>
      <point x="84" y="579" type="line" smooth="yes"/>
      <point x="84" y="850.295"/>
      <point x="203.73" y="964"/>
      <point x="461" y="964" type="curve" smooth="yes"/>
      <point x="533.893" y="964"/>
      <point x="609.867" y="958"/>
      <point x="692" y="944" type="curve"/>
      <point x="692" y="803" type="line"/>
      <point x="617.895" y="816"/>
      <point x="558.002" y="821"/>
      <point x="500.139" y="821" type="curve" smooth="yes"/>
      <point x="326.351" y="821"/>
      <point x="249" y="752"/>
      <point x="249" y="564" type="curve" smooth="yes"/>
      <point x="249" y="367" type="line" smooth="yes"/>
      <point x="249" y="191.76"/>
      <point x="314.876" y="119"/>
      <point x="449.716" y="119" type="curve" smooth="yes"/>
      <point x="574.373" y="119"/>
      <point x="616" y="163.143"/>
      <point x="616" y="314" type="curve" smooth="yes"/>
      <point x="616" y="420.529" type="line" smooth="yes"/>
      <point x="616" y="498"/>
      <point x="604" y="524"/>
      <point x="561" y="524" type="curve" smooth="yes"/>
      <point x="519.491" y="524"/>
      <point x="507" y="496.88"/>
      <point x="507" y="420" type="curve" smooth="yes"/>
      <point x="507" y="317" type="line" smooth="yes"/>
      <point x="507" y="198.978"/>
      <point x="527.138" y="167.505"/>
      <point x="580" y="138" type="curve"/>
      <point x="480" y="111" type="line"/>
      <point x="480" y="129" type="line"/>
      <point x="393.534" y="166.509"/>
      <point x="365" y="206.045"/>
      <point x="365" y="350.127" type="curve" smooth="yes"/>
      <point x="365" y="437" type="line" smooth="yes"/>
      <point x="365" y="586.636"/>
      <point x="428.969" y="655"/>
      <point x="563" y="655" type="curve" smooth="yes"/>
      <point x="695.68" y="655"/>
      <point x="761" y="586"/>
      <point x="761" y="424.972" type="curve" smooth="yes"/>
      <point x="761" y="314.764" type="line" smooth="yes"/>
      <point x="761" y="90.2532"/>
      <point x="657.337" y="-15"/>
      <point x="438" y="-15" type="curve" smooth="yes"/>
      <point x="204.34" y="-15"/>
      <point x="84" y="104"/>
      <point x="84" y="351" type="curve" smooth="yes"/>
    </contour>
  </outline>
</glyph>
<glyph name="Nna.dv" format="2">
  <advance width="1145"/>
  <unicode hex="0923"/>
  <anchor x="945" y="23" name="bottom"/>
  <anchor x="936.5" y="23" name="bottom2"/>
  <anchor x="1029" y="23" name="bottom3"/>
  <anchor x="944" y="42.5" name="bottom5"/>
  <anchor x="942.5" y="1258.5" name="top"/>
  <outline>
    <contour>
      <point x="1028.5" y="1203.5" type="line"/>
      <point x="1028.5" y="0" type="line"/>
      <point x="859" y="0" type="line"/>
      <point x="859" y="1203.5" type="line"/>
    </contour>
    <contour>
      <point x="796.5" y="1154.5" type="line"/>
      <point x="786.5" y="1289.5" type="line"/>
      <point x="1167.5" y="1289.5" type="line"/>
      <point x="1177.5" y="1154.5" type="line"/>
    </contour>
    <contour>
      <point x="-24" y="1154.5" type="line"/>
      <point x="-33.5" y="1289.5" type="line"/>
      <point x="1156.5" y="1289.5" type="line"/>
      <point x="1166" y="1154.5" type="line"/>
    </contour>
    <contour>
      <point x="381" y="266" type="curve" smooth="yes"/>
      <point x="197" y="266"/>
      <point x="102.5" y="369"/>
      <point x="102.5" y="590" type="curve" smooth="yes"/>
      <point x="102.5" y="1206" type="line"/>
      <point x="272.5" y="1206" type="line"/>
      <point x="272.5" y="584.5" type="line" smooth="yes"/>
      <point x="272.5" y="465"/>
      <point x="303.39" y="414"/>
      <point x="379.991" y="414" type="curve" smooth="yes"/>
      <point x="456.101" y="414"/>
      <point x="486" y="465"/>
      <point x="486" y="584.5" type="curve" smooth="yes"/>
      <point x="486" y="1206" type="line"/>
      <point x="656" y="1206" type="line"/>
      <point x="656" y="590" type="line" smooth="yes"/>
      <point x="656" y="369"/>
      <point x="564" y="266"/>
    </contour>
  </outline>
</glyph>
<glyph name="Ta.dv" format="2">
  <advance width="813"/>
  <unicode hex="0924"/>
  <anchor x="613" y="23" name="bottom"/>
  <anchor x="604.5" y="23" name="bottom2"/>
  <anchor x="697" y="23" name="bottom3"/>
  <anchor x="612" y="42.5" name="bottom5"/>
  <anchor x="610.5" y="1258.5" name="top"/>
  <outline>
    <contour>
      <point x="696.5" y="1203.5" type="line"/>
      <point x="696.5" y="0" type="line"/>
      <point x="527" y="0" type="line"/>
      <point x="527" y="1203.5" type="line"/>
    </contour>
    <contour>
      <point x="464.5" y="1154.5" type="line"/>
      <point x="454.5" y="1289.5" type="line"/>
      <point x="835.5" y="1289.5" type="line"/>
      <point x="845.5" y="1154.5" type="line"/>
    </contour>
    <contour>
      <point x="-23" y="1154.5" type="line"/>
      <point x="-33" y="1289.5" type="line"/>
      <point x="835" y="1289.5" type="line"/>
      <point x="845" y="1154.5" type="line"/>
    </contour>
    <contour>
      <point x="178" y="0" type="line"/>
      <point x="113" y="235"/>
      <point x="75" y="437"/>
      <point x="75" y="605" type="curve" smooth="yes"/>
      <point x="75" y="813"/>
      <point x="161" y="916"/>
      <point x="377" y="916" type="curve" smooth="yes"/>
      <point x="573" y="916" type="line"/>
      <point x="573" y="769" type="line"/>
      <point x="412" y="769" type="line" smooth="yes"/>
      <point x="288" y="769"/>
      <point x="247" y="718"/>
      <point x="247" y="584" type="curve" smooth="yes"/>
      <point x="247" y="436"/>
      <point x="282" y="247"/>
      <point x="347" y="0" type="curve"/>
    </contour>
  </outline>
</glyph>
<glyph name="Tha.dv" format="2">
  <advance width="984"/>
  <unicode hex="0925"/>
  <anchor x="784" y="23" name="bottom"/>
  <anchor x="775.5" y="23" name="bottom2"/>
  <anchor x="868" y="23" name="bottom3"/>
  <anchor x="783" y="42.5" name="bottom5"/>
  <anchor x="781.5" y="1258.5" name="top"/>
  <outline>
    <contour>
      <point x="867.5" y="1203.5" type="line"/>
      <point x="867.5" y="0" type="line"/>
      <point x="698" y="0" type="line"/>
      <point x="698" y="1203.5" type="line"/>
    </contour>
    <contour>
      <point x="635.5" y="1154.5" type="line"/>
      <point x="625.5" y="1289.5" type="line"/>
      <point x="1006.5" y="1289.5" type="line"/>
      <point x="1016.5" y="1154.5" type="line"/>
    </contour>
    <contour>
      <point x="625" y="1290" type="line"/>
      <point x="1004" y="1290" type="line"/>
      <point x="1015" y="1155" type="line"/>
      <point x="635" y="1155" type="line"/>
    </contour>
    <contour>
      <point x="110" y="824" type="line"/>
      <point x="99" y="910"/>
      <point x="92" y="974"/>
      <point x="92" y="1051" type="curve" smooth="yes"/>
      <point x="92" y="1225"/>
      <point x="174.174" y="1308"/>
      <point x="328.501" y="1308" type="curve" smooth="yes"/>
      <point x="488.841" y="1308"/>
      <point x="564" y="1223.11"/>
      <point x="564" y="1035.36" type="curve" smooth="yes"/>
      <point x="564" y="878.57" type="line" smooth="yes"/>
      <point x="564" y="641.885"/>
      <point x="455.194" y="555"/>
      <point x="229.522" y="555" type="curve" smooth="yes"/>
      <point x="159" y="555" type="line"/>
      <point x="86" y="690" type="line"/>
      <point x="195.029" y="690" type="line" smooth="yes"/>
      <point x="346.457" y="690"/>
      <point x="404" y="744.061"/>
      <point x="404" y="890.277" type="curve" smooth="yes"/>
      <point x="404" y="1032.44" type="line" smooth="yes"/>
      <point x="404" y="1131.86"/>
      <point x="381.297" y="1166"/>
      <point x="327.994" y="1166" type="curve" smooth="yes"/>
      <point x="273.703" y="1166"/>
      <point x="251" y="1131.8"/>
      <point x="251" y="1033.22" type="curve" smooth="yes"/>
      <point x="251" y="824" type="line"/>
    </contour>
    <contour>
      <point x="86" y="541" type="line" smooth="yes"/>
      <point x="86" y="612"/>
      <point x="86" y="648"/>
      <point x="86" y="690" type="curve"/>
      <point x="249" y="641" type="line"/>
      <point x="249" y="527" type="line" smooth="yes"/>
      <point x="249" y="378"/>
      <point x="319" y="320"/>
      <point x="456" y="320" type="curve" smooth="yes"/>
      <point x="590" y="320"/>
      <point x="675" y="372"/>
      <point x="700" y="490" type="curve"/>
      <point x="715" y="332" type="line"/>
      <point x="687" y="332" type="line"/>
      <point x="658.008" y="226.059"/>
      <point x="571.957" y="167"/>
      <point x="426" y="167" type="curve" smooth="yes"/>
      <point x="203" y="167"/>
      <point x="86" y="281"/>
      <point x="86" y="524" type="curve" smooth="yes"/>
    </contour>
  </outline>
  <guideline angle="90" x="512" y="0"/>
  <guideline angle="90" x="744" y="0"/>
  <guideline angle="0" x="0" y="9"/>
  <guideline angle="90" x="749" y="0"/>
  <guideline angle="90" x="732" y="0"/>
  <guideline angle="0" x="0" y="1262"/>
  <guideline angle="90" x="782" y="0"/>
  <guideline angle="0" x="0" y="30"/>
</glyph>
<glyph name="Da.dv" format="2">
  <advance width="745"/>
  <unicode hex="0926"/>
  <anchor x="603.5" y="-107.5" name="bottom"/>
  <anchor x="410" y="-117.5" name="bottom2"/>
  <anchor x="687" y="-117.5" name="bottom3"/>
  <anchor x="235" y="3" name="bottom4"/>
  <anchor x="432.5" y="-99" name="bottom5"/>
  <anchor x="557.5" y="1258.5" name="top"/>
  <outline>
    <contour>
      <point x="403.5" y="1154.5" type="line"/>
      <point x="393.5" y="1289.5" type="line"/>
      <point x="754" y="1289.5" type="line"/>
      <point x="764" y="1154.5" type="line"/>
    </contour>
    <contour>
      <point x="640" y="1204" type="line"/>
      <point x="640" y="988.5" type="line"/>
      <point x="476" y="988.5" type="line"/>
      <point x="476" y="1204" type="line"/>
    </contour>
    <contour>
      <point x="-12" y="1154.5" type="line"/>
      <point x="-22" y="1289.5" type="line"/>
      <point x="779.5" y="1289.5" type="line"/>
      <point x="789.5" y="1154.5" type="line"/>
    </contour>
    <contour>
      <point x="475" y="856.5" type="line"/>
      <point x="475" y="1206" type="line"/>
      <point x="640" y="1206" type="line"/>
      <point x="640" y="829" type="line"/>
    </contour>
    <contour>
      <point x="649" y="565.5" type="line"/>
      <point x="649" y="216" type="line"/>
      <point x="695" y="-141" type="line"/>
      <point x="534" y="-141" type="line"/>
      <point x="496" y="205" type="line"/>
      <point x="485" y="234.5" type="line"/>
      <point x="485" y="565.5" type="line"/>
    </contour>
    <contour>
      <point x="381" y="217.5" type="curve" smooth="yes"/>
      <point x="436" y="217.5"/>
      <point x="475" y="240.75"/>
      <point x="495" y="279.5" type="curve"/>
      <point x="516" y="158" type="line"/>
      <point x="494" y="107.829"/>
      <point x="435.466" y="69"/>
      <point x="345.5" y="69" type="curve" smooth="yes"/>
      <point x="178" y="69"/>
      <point x="82" y="171.327"/>
      <point x="82" y="422.5" type="curve" smooth="yes"/>
      <point x="82" y="592" type="line" smooth="yes"/>
      <point x="82" y="862"/>
      <point x="191.608" y="974"/>
      <point x="420" y="974" type="curve" smooth="yes"/>
      <point x="491" y="974"/>
      <point x="571.038" y="967"/>
      <point x="640" y="953" type="curve"/>
      <point x="640" y="820" type="line"/>
      <point x="581" y="828.5"/>
      <point x="532" y="832.5"/>
      <point x="473" y="832.5" type="curve" smooth="yes"/>
      <point x="307.987" y="832.5"/>
      <point x="249.5" y="761.722"/>
      <point x="249.5" y="582" type="curve" smooth="yes"/>
      <point x="249.5" y="429.5" type="line" smooth="yes"/>
      <point x="249.5" y="277.934"/>
      <point x="289.013" y="217.5"/>
    </contour>
  </outline>
</glyph>
<glyph name="Dha.dv" format="2">
  <advance width="970"/>
  <unicode hex="0927"/>
  <anchor x="770" y="23" name="bottom"/>
  <anchor x="761.5" y="23" name="bottom2"/>
  <anchor x="854" y="23" name="bottom3"/>
  <anchor x="769" y="42.5" name="bottom5"/>
  <anchor x="767.5" y="1258.5" name="top"/>
  <outline>
    <contour>
      <point x="853.5" y="1203.5" type="line"/>
      <point x="853.5" y="0" type="line"/>
      <point x="684" y="0" type="line"/>
      <point x="684" y="1203.5" type="line"/>
    </contour>
    <contour>
      <point x="621.5" y="1154.5" type="line"/>
      <point x="611.5" y="1289.5" type="line"/>
      <point x="992.5" y="1289.5" type="line"/>
      <point x="1002.5" y="1154.5" type="line"/>
    </contour>
    <contour>
      <point x="621" y="1155" type="line"/>
      <point x="611" y="1290" type="line"/>
      <point x="991" y="1290" type="line"/>
      <point x="1001" y="1155" type="line"/>
    </contour>
    <contour>
      <point x="90" y="434" type="line" smooth="yes"/>
      <point x="90" y="566"/>
      <point x="143.957" y="642"/>
      <point x="297" y="654" type="curve"/>
      <point x="297" y="662" type="line"/>
      <point x="141.748" y="682"/>
      <point x="71" y="754"/>
      <point x="71" y="941" type="curve" smooth="yes"/>
      <point x="71" y="1030" type="line" smooth="yes"/>
      <point x="71" y="1221"/>
      <point x="154" y="1309"/>
      <point x="316.551" y="1309" type="curve" smooth="yes"/>
      <point x="476.561" y="1309"/>
      <point x="546" y="1225"/>
      <point x="546" y="1053" type="curve" smooth="yes"/>
      <point x="546" y="988.323"/>
      <point x="540" y="928.698"/>
      <point x="529" y="862" type="curve"/>
      <point x="390" y="862" type="line"/>
      <point x="390" y="1032.56" type="line" smooth="yes"/>
      <point x="390" y="1129.88"/>
      <point x="369.131" y="1167"/>
      <point x="315.469" y="1167" type="curve" smooth="yes"/>
      <point x="256.838" y="1167"/>
      <point x="231" y="1128.91"/>
      <point x="231" y="1030.69" type="curve" smooth="yes"/>
      <point x="231" y="937.478" type="line" smooth="yes"/>
      <point x="231" y="787.137"/>
      <point x="285.996" y="738.954"/>
      <point x="419" y="732.011" type="curve" smooth="yes"/>
      <point x="515" y="727" type="line"/>
      <point x="515" y="583" type="line"/>
      <point x="421" y="580" type="line" smooth="yes"/>
      <point x="310" y="576"/>
      <point x="262" y="538"/>
      <point x="262" y="454" type="curve" smooth="yes"/>
      <point x="262" y="438" type="line" smooth="yes"/>
      <point x="262" y="348"/>
      <point x="319" y="302"/>
      <point x="458" y="302" type="curve" smooth="yes"/>
      <point x="586" y="302"/>
      <point x="663" y="347.205"/>
      <point x="688" y="452" type="curve"/>
      <point x="699" y="302" type="line"/>
      <point x="673" y="302" type="line"/>
      <point x="643.008" y="202.942"/>
      <point x="565.956" y="149"/>
      <point x="415" y="149" type="curve" smooth="yes"/>
      <point x="203" y="149"/>
      <point x="90" y="239"/>
      <point x="90" y="416" type="curve" smooth="yes"/>
    </contour>
  </outline>
</glyph>
<glyph name="Na.dv" format="2">
  <advance width="805"/>
  <unicode hex="0928"/>
  <anchor x="605.5" y="23" name="bottom"/>
  <anchor x="597" y="23" name="bottom2"/>
  <anchor x="689.5" y="23" name="bottom3"/>
  <anchor x="604.5" y="42.5" name="bottom5"/>
  <anchor x="603" y="1258.5" name="top"/>
  <outline>
    <contour>
      <point x="689" y="1203.5" type="line"/>
      <point x="689" y="0" type="line"/>
      <point x="519.5" y="0" type="line"/>
      <point x="519.5" y="1203.5" type="line"/>
    </contour>
    <contour>
      <point x="457" y="1154.5" type="line"/>
      <point x="447" y="1289.5" type="line"/>
      <point x="828" y="1289.5" type="line"/>
      <point x="838" y="1154.5" type="line"/>
    </contour>
    <contour>
      <point x="837" y="1154.5" type="line"/>
      <point x="-24" y="1154.5" type="line"/>
      <point x="-34" y="1289.5" type="line"/>
      <point x="827" y="1289.5" type="line"/>
    </contour>
    <contour>
      <point x="581.5" y="823.5" type="line"/>
      <point x="581.5" y="678" type="line"/>
      <point x="244.5" y="678" type="line"/>
      <point x="244.5" y="823.5" type="line"/>
    </contour>
    <contour>
      <point x="144.5" y="281.5" type="line"/>
      <point x="101" y="440.5"/>
      <point x="71" y="575.5"/>
      <point x="57" y="758" type="curve"/>
      <point x="137" y="823.5" type="line"/>
      <point x="277.5" y="823.5" type="line"/>
      <point x="277.5" y="281.5" type="line"/>
    </contour>
  </outline>
</glyph>
<glyph name="Ba.dv" format="2">
  <advance width="852"/>
  <unicode hex="092C"/>
  <anchor x="652" y="23" name="bottom"/>
  <anchor x="643.5" y="23" name="bottom2"/>
  <anchor x="736" y="23" name="bottom3"/>
  <anchor x="651" y="42.5" name="bottom5"/>
  <anchor x="649.5" y="1258.5" name="top"/>
  <outline>
    <contour>
      <point x="735.5" y="1203.5" type="line"/>
      <point x="735.5" y="0" type="line"/>
      <point x="566" y="0" type="line"/>
      <point x="566" y="1203.5" type="line"/>
    </contour>
    <contour>
      <point x="503.5" y="1154.5" type="line"/>
      <point x="493.5" y="1289.5" type="line"/>
      <point x="874.5" y="1289.5" type="line"/>
      <point x="884.5" y="1154.5" type="line"/>
    </contour>
    <contour>
      <point x="-24" y="1155" type="line"/>
      <point x="-34" y="1290" type="line"/>
      <point x="874" y="1290" type="line"/>
      <point x="884" y="1155" type="line"/>
    </contour>
    <contour>
      <point x="221" y="835" type="line"/>
      <point x="317" y="891" type="line"/>
      <point x="584" y="345" type="line"/>
      <point x="497" y="277" type="line"/>
    </contour>
    <contour>
      <point x="81" y="474" type="curve" smooth="yes"/>
      <point x="81" y="654" type="line" smooth="yes"/>
      <point x="81" y="884"/>
      <point x="186" y="993"/>
      <point x="371" y="993" type="curve" smooth="yes"/>
      <point x="410" y="993"/>
      <point x="445" y="988"/>
      <point x="479" y="977" type="curve"/>
      <point x="491" y="838" type="line"/>
      <point x="459.629" y="846.308"/>
      <point x="428.224" y="850"/>
      <point x="396" y="850" type="curve" smooth="yes"/>
      <point x="291" y="850"/>
      <point x="247" y="801"/>
      <point x="247" y="649" type="curve" smooth="yes"/>
      <point x="247" y="491.267" type="line" smooth="yes"/>
      <point x="247" y="343.784"/>
      <point x="300.378" y="285"/>
      <point x="400" y="285" type="curve" smooth="yes"/>
      <point x="492.791" y="285"/>
      <point x="549.419" y="328.391"/>
      <point x="568" y="421" type="curve"/>
      <point x="581" y="268" type="line"/>
      <point x="555" y="268" type="line"/>
      <point x="526.59" y="190.073"/>
      <point x="458.424" y="137"/>
      <point x="347" y="137" type="curve" smooth="yes"/>
      <point x="174.538" y="137"/>
      <point x="81" y="244"/>
    </contour>
  </outline>
  <guideline angle="90" x="612" y="0"/>
  <guideline angle="0" x="0" y="9"/>
  <guideline angle="90" x="617" y="0"/>
  <guideline angle="90" x="600" y="0"/>
  <guideline angle="0" x="0" y="1262"/>
  <guideline angle="90" x="650" y="0"/>
  <guideline angle="0" x="0" y="30"/>
</glyph>
<glyph name="Ma.dv" format="2">
  <advance width="858"/>
  <unicode hex="092E"/>
  <anchor x="658" y="23" name="bottom"/>
  <anchor x="649.5" y="23" name="bottom2"/>
  <anchor x="742" y="23" name="bottom3"/>
  <anchor x="657" y="42.5" name="bottom5"/>
  <anchor x="655.5" y="1258.5" name="top"/>
  <outline>
    <contour>
      <point x="741.5" y="1203.5" type="line"/>
      <point x="741.5" y="0" type="line"/>
      <point x="572" y="0" type="line"/>
      <point x="572" y="1203.5" type="line"/>
    </contour>
    <contour>
      <point x="509.5" y="1154.5" type="line"/>
      <point x="499.5" y="1289.5" type="line"/>
      <point x="880.5" y="1289.5" type="line"/>
      <point x="890.5" y="1154.5" type="line"/>
    </contour>
    <contour>
      <point x="888" y="1155" type="line"/>
      <point x="-25" y="1155" type="line"/>
      <point x="-35" y="1290" type="line"/>
      <point x="878" y="1290" type="line"/>
    </contour>
    <contour>
      <point x="639" y="644" type="line"/>
      <point x="639" y="498" type="line"/>
      <point x="181" y="498" type="line"/>
      <point x="181" y="644" type="line"/>
    </contour>
    <contour>
      <point x="306" y="1206" type="line"/>
      <point x="306" y="517" type="line"/>
      <point x="138" y="517" type="line"/>
      <point x="138" y="1206" type="line"/>
    </contour>
    <contour>
      <point x="166" y="142" type="line"/>
      <point x="117" y="285"/>
      <point x="87" y="412"/>
      <point x="75" y="583" type="curve"/>
      <point x="138" y="631" type="line"/>
      <point x="306" y="631" type="line"/>
      <point x="306" y="142" type="line"/>
    </contour>
  </outline>
</glyph>
<glyph name="Ya.dv" format="2">
  <advance width="874"/>
  <unicode hex="092F"/>
  <anchor x="674" y="23" name="bottom"/>
  <anchor x="665.5" y="23" name="bottom2"/>
  <anchor x="758" y="23" name="bottom3"/>
  <anchor x="673" y="42.5" name="bottom5"/>
  <anchor x="671.5" y="1258.5" name="top"/>
  <outline>
    <contour>
      <point x="757.5" y="1203.5" type="line"/>
      <point x="757.5" y="0" type="line"/>
      <point x="588" y="0" type="line"/>
      <point x="588" y="1203.5" type="line"/>
    </contour>
    <contour>
      <point x="525.5" y="1154.5" type="line"/>
      <point x="515.5" y="1289.5" type="line"/>
      <point x="896.5" y="1289.5" type="line"/>
      <point x="906.5" y="1154.5" type="line"/>
    </contour>
    <contour>
      <point x="-33" y="1289.5" type="line"/>
      <point x="800" y="1289.5" type="line"/>
      <point x="810" y="1154.5" type="line"/>
      <point x="-23" y="1154.5" type="line"/>
    </contour>
    <contour>
      <point x="358" y="1174.5" type="line"/>
      <point x="391" y="1128"/>
      <point x="400" y="1062"/>
      <point x="400" y="957.5" type="curve" smooth="yes"/>
      <point x="400" y="897" type="line" smooth="yes"/>
      <point x="400" y="696"/>
      <point x="334.958" y="616.635"/>
      <point x="165.5" y="611.5" type="curve" smooth="yes"/>
      <point x="132.5" y="610.5" type="line"/>
      <point x="67.5" y="735" type="line"/>
      <point x="89.5" y="735" type="line" smooth="yes"/>
      <point x="188.5" y="735"/>
      <point x="230.5" y="783.098"/>
      <point x="230.5" y="912" type="curve" smooth="yes"/>
      <point x="230.5" y="975" type="line" smooth="yes"/>
      <point x="230.5" y="1080"/>
      <point x="220.5" y="1130.84"/>
      <point x="189" y="1174.5" type="curve"/>
    </contour>
    <contour>
      <point x="67.5" y="551.5" type="line" smooth="yes"/>
      <point x="67.5" y="626.5"/>
      <point x="67.5" y="678.5"/>
      <point x="67.5" y="735" type="curve"/>
      <point x="230" y="687" type="line"/>
      <point x="230" y="538" type="line" smooth="yes"/>
      <point x="230" y="399"/>
      <point x="285.331" y="338"/>
      <point x="402" y="338" type="curve" smooth="yes"/>
      <point x="511.692" y="338"/>
      <point x="573" y="390"/>
      <point x="594" y="499.5" type="curve"/>
      <point x="596" y="332.5" type="line"/>
      <point x="577" y="332.5" type="line"/>
      <point x="552" y="244"/>
      <point x="486.54" y="185"/>
      <point x="354.629" y="185" type="curve" smooth="yes"/>
      <point x="170.153" y="185"/>
      <point x="67.5" y="290.5"/>
      <point x="67.5" y="529" type="curve" smooth="yes"/>
    </contour>
  </outline>
</glyph>
<glyph name="RaNukta.dv" format="2">
  <advance width="516"/>
  <unicode hex="0931"/>
  <anchor x="243.5" y="23" name="bottom2"/>
  <anchor x="570.5" y="23" name="bottom3"/>
  <anchor x="318.5" y="42.5" name="bottom5"/>
  <anchor x="299.5" y="1258.5" name="top"/>
  <outline>
    <contour>
      <point x="550" y="1155" type="line"/>
      <point x="-24" y="1155" type="line"/>
      <point x="-33" y="1290" type="line"/>
      <point x="540" y="1290" type="line"/>
    </contour>
    <contour>
      <point x="447" y="0" type="line"/>
      <point x="266" y="0" type="line"/>
      <point x="111" y="500" type="line"/>
      <point x="33" y="508" type="line"/>
      <point x="33" y="657" type="line"/>
      <point x="224" y="609" type="line"/>
      <point x="224" y="571.011" type="line"/>
      <point x="285" y="480"/>
      <point x="313.337" y="405.486"/>
      <point x="346.458" y="306" type="curve" smooth="yes"/>
      <point x="447" y="4" type="line"/>
    </contour>
    <contour>
      <point x="389" y="1180" type="line"/>
      <point x="420" y="1130.38"/>
      <point x="433" y="1058.47"/>
      <point x="433" y="941" type="curve" smooth="yes"/>
      <point x="433" y="878" type="line" smooth="yes"/>
      <point x="433" y="630.953"/>
      <point x="346.126" y="525.856"/>
      <point x="149" y="516" type="curve" smooth="yes"/>
      <point x="109" y="514" type="line"/>
      <point x="33" y="657" type="line"/>
      <point x="83.5592" y="657" type="line" smooth="yes"/>
      <point x="206.491" y="657"/>
      <point x="263" y="728.176"/>
      <point x="263" y="899" type="curve" smooth="yes"/>
      <point x="263" y="956" type="line" smooth="yes"/>
      <point x="263" y="1070.04"/>
      <point x="253" y="1132.15"/>
      <point x="220" y="1180" type="curve"/>
    </contour>
    <contour>
      <point x="110.46" y="-244.02" type="curve" smooth="yes"/>
      <point x="44.04" y="-244.02"/>
      <point x="15.42" y="-201.36"/>
      <point x="15.42" y="-124.68" type="curve" smooth="yes"/>
      <point x="15.42" y="-122.673"/>
      <point x="15.42" y="-115.781"/>
      <point x="15.42" y="-113.34" type="curve" smooth="yes"/>
      <point x="15.42" y="-36.66"/>
      <point x="44.04" y="6"/>
      <point x="110.46" y="6" type="curve" smooth="yes"/>
      <point x="176.88" y="6"/>
      <point x="205.5" y="-36.66"/>
      <point x="205.5" y="-113.34" type="curve"/>
      <point x="205.5" y="-115.335"/>
      <point x="205.5" y="-122.232"/>
      <point x="205.5" y="-124.68" type="curve" smooth="yes"/>
      <point x="205.5" y="-201.36"/>
      <point x="176.88" y="-244.02"/>
    </contour>
  </outline>
  <guideline angle="90" x="261" y="0"/>
  <guideline angle="90" x="205" y="0"/>
  <guideline angle="0" x="0" y="1262"/>
  <guideline angle="0" x="0" y="-6"/>
</glyph>
<glyph name="Lla.dv" format="2">
  <advance width="1054"/>
  <unicode hex="0933"/>
  <anchor x="769.5" y="30.5" name="bottom"/>
  <anchor x="723.5" y="30.5" name="bottom2"/>
  <anchor x="815" y="30.5" name="bottom3"/>
  <anchor x="549" y="52.5" name="bottom5"/>
  <anchor x="736.5" y="1258.5" name="top"/>
  <outline>
    <contour>
      <point x="582.5" y="1154.5" type="line"/>
      <point x="572.5" y="1289.5" type="line"/>
      <point x="933" y="1289.5" type="line"/>
      <point x="943" y="1154.5" type="line"/>
    </contour>
    <contour>
      <point x="819" y="1204" type="line"/>
      <point x="819" y="988.5" type="line"/>
      <point x="655" y="988.5" type="line"/>
      <point x="655" y="1204" type="line"/>
    </contour>
    <contour>
      <point x="1088.5" y="1154.5" type="line"/>
      <point x="-24" y="1154.5" type="line"/>
      <point x="-34" y="1289.5" type="line"/>
      <point x="1078.5" y="1289.5" type="line"/>
    </contour>
    <contour>
      <point x="819" y="898.5" type="line"/>
      <point x="654" y="898.5" type="line"/>
      <point x="654" y="1177" type="line"/>
      <point x="819" y="1177" type="line"/>
    </contour>
    <contour>
      <point x="973" y="332.5" type="line" smooth="yes"/>
      <point x="973" y="103"/>
      <point x="899.488" y="10"/>
      <point x="749" y="10" type="curve" smooth="yes"/>
      <point x="644" y="10"/>
      <point x="588" y="61"/>
      <point x="565" y="137.5" type="curve"/>
      <point x="533" y="137.5" type="line"/>
      <point x="555" y="286" type="line"/>
      <point x="582.5" y="286" type="line"/>
      <point x="592" y="206.239"/>
      <point x="632" y="159.5"/>
      <point x="697" y="159.5" type="curve" smooth="yes"/>
      <point x="769.807" y="159.5"/>
      <point x="804.5" y="204"/>
      <point x="804.5" y="343" type="curve" smooth="yes"/>
      <point x="804.5" y="614.948" type="line" smooth="yes"/>
      <point x="804.5" y="752"/>
      <point x="775.79" y="790.5"/>
      <point x="715" y="790.5" type="curve" smooth="yes"/>
      <point x="653.92" y="790.5"/>
      <point x="626.628" y="752.409"/>
      <point x="618.649" y="647.683" type="curve" smooth="yes"/>
      <point x="586.765" y="229.217" type="line"/>
      <point x="566.297" y="179.281" type="line"/>
      <point x="547.593" y="71.9221"/>
      <point x="481.433" y="8"/>
      <point x="340.704" y="8" type="curve" smooth="yes"/>
      <point x="169.24" y="8"/>
      <point x="84" y="100"/>
      <point x="84" y="332.5" type="curve" smooth="yes"/>
      <point x="84" y="615.5" type="line" smooth="yes"/>
      <point x="84" y="844"/>
      <point x="169" y="938.5"/>
      <point x="319" y="938.5" type="curve" smooth="yes"/>
      <point x="427" y="938.5"/>
      <point x="474" y="886"/>
      <point x="494" y="803" type="curve"/>
      <point x="518" y="803" type="line"/>
      <point x="487.5" y="669" type="line"/>
      <point x="465" y="669" type="line"/>
      <point x="457" y="741"/>
      <point x="428.013" y="789.5"/>
      <point x="363" y="789.5" type="curve" smooth="yes"/>
      <point x="290.154" y="789.5"/>
      <point x="251.5" y="742.721"/>
      <point x="251.5" y="602.385" type="curve" smooth="yes"/>
      <point x="251.5" y="333.159" type="line" smooth="yes"/>
      <point x="251.5" y="198.297"/>
      <point x="279.235" y="153.5"/>
      <point x="348.095" y="153.5" type="curve" smooth="yes"/>
      <point x="405.885" y="153.5"/>
      <point x="429.945" y="195.51"/>
      <point x="435.727" y="280.182" type="curve" smooth="yes"/>
      <point x="466" y="723.549" type="line"/>
      <point x="493.426" y="758.46" type="line"/>
      <point x="511.331" y="869.676"/>
      <point x="580.394" y="938.5"/>
      <point x="723.124" y="938.5" type="curve" smooth="yes"/>
      <point x="900" y="938.5"/>
      <point x="973" y="837.5"/>
      <point x="973" y="617" type="curve" smooth="yes"/>
    </contour>
  </outline>
</glyph>
<glyph name="Va.dv" format="2">
  <advance width="812"/>
  <unicode hex="0935"/>
  <anchor x="612" y="23" name="bottom"/>
  <anchor x="603.5" y="23" name="bottom2"/>
  <anchor x="696" y="23" name="bottom3"/>
  <anchor x="611" y="42.5" name="bottom5"/>
  <anchor x="609.5" y="1258.5" name="top"/>
  <outline>
    <contour>
      <point x="695.5" y="1203.5" type="line"/>
      <point x="695.5" y="0" type="line"/>
      <point x="526" y="0" type="line"/>
      <point x="526" y="1203.5" type="line"/>
    </contour>
    <contour>
      <point x="463.5" y="1154.5" type="line"/>
      <point x="453.5" y="1289.5" type="line"/>
      <point x="834.5" y="1289.5" type="line"/>
      <point x="844.5" y="1154.5" type="line"/>
    </contour>
    <contour>
      <point x="-23" y="1155" type="line"/>
      <point x="-33" y="1290" type="line"/>
      <point x="733" y="1290" type="line"/>
      <point x="743" y="1155" type="line"/>
    </contour>
    <contour>
      <point x="81" y="478" type="curve" smooth="yes"/>
      <point x="81" y="646.992" type="line" smooth="yes"/>
      <point x="81" y="886"/>
      <point x="165" y="989"/>
      <point x="344" y="989" type="curve" smooth="yes"/>
      <point x="379" y="989"/>
      <point x="413" y="984"/>
      <point x="441" y="974" type="curve"/>
      <point x="453" y="830" type="line"/>
      <point x="431" y="837"/>
      <point x="411" y="840"/>
      <point x="387" y="840" type="curve" smooth="yes"/>
      <point x="293" y="840"/>
      <point x="251" y="788"/>
      <point x="251" y="641" type="curve" smooth="yes"/>
      <point x="251" y="499" type="line" smooth="yes"/>
      <point x="251" y="352"/>
      <point x="295.333" y="303"/>
      <point x="384" y="303" type="curve" smooth="yes"/>
      <point x="461.05" y="303"/>
      <point x="508.745" y="344.442"/>
      <point x="527" y="436" type="curve"/>
      <point x="541" y="284" type="line"/>
      <point x="515" y="284" type="line"/>
      <point x="492" y="204"/>
      <point x="433" y="150"/>
      <point x="324" y="150" type="curve" smooth="yes"/>
      <point x="167.526" y="150"/>
      <point x="81" y="247.094"/>
    </contour>
  </outline>
  <guideline angle="90" x="572" y="0"/>
  <guideline angle="0" x="0" y="9"/>
  <guideline angle="90" x="577" y="0"/>
  <guideline angle="90" x="560" y="0"/>
  <guideline angle="0" x="0" y="1262"/>
  <guideline angle="90" x="610" y="0"/>
  <guideline angle="0" x="0" y="30"/>
</glyph>
<glyph name="Ssa.dv" format="2">
  <advance width="842"/>
  <unicode hex="0937"/>
  <anchor x="642" y="23" name="bottom"/>
  <anchor x="633.5" y="23" name="bottom2"/>
  <anchor x="726" y="23" name="bottom3"/>
  <anchor x="641" y="42.5" name="bottom5"/>
  <anchor x="639.5" y="1258.5" name="top"/>
  <outline>
    <contour>
      <point x="725.5" y="1203.5" type="line"/>
      <point x="725.5" y="0" type="line"/>
      <point x="556" y="0" type="line"/>
      <point x="556" y="1203.5" type="line"/>
    </contour>
    <contour>
      <point x="493.5" y="1154.5" type="line"/>
      <point x="483.5" y="1289.5" type="line"/>
      <point x="864.5" y="1289.5" type="line"/>
      <point x="874.5" y="1154.5" type="line"/>
    </contour>
    <contour>
      <point x="-23.5" y="1154.5" type="line"/>
      <point x="-33.5" y="1289.5" type="line"/>
      <point x="763.5" y="1289.5" type="line"/>
      <point x="773.5" y="1154.5" type="line"/>
    </contour>
    <contour>
      <point x="351" y="275" type="curve" smooth="yes"/>
      <point x="188" y="275"/>
      <point x="102.5" y="370.5"/>
      <point x="102.5" y="588" type="curve" smooth="yes"/>
      <point x="102.5" y="1205" type="line"/>
      <point x="267.5" y="1205" type="line"/>
      <point x="267.5" y="607.5" type="line" smooth="yes"/>
      <point x="267.5" y="473"/>
      <point x="312" y="420.5"/>
      <point x="404.5" y="420.5" type="curve" smooth="yes"/>
      <point x="490" y="420.5"/>
      <point x="541.5" y="460"/>
      <point x="558" y="549.5" type="curve"/>
      <point x="564.5" y="400" type="line"/>
      <point x="545" y="400" type="line"/>
      <point x="519" y="324.5"/>
      <point x="457" y="275"/>
    </contour>
    <contour>
      <point x="247" y="1099" type="curve"/>
      <point x="270" y="1212" type="line"/>
      <point x="479" y="812" type="line" smooth="yes"/>
      <point x="518.627" y="736.158"/>
      <point x="556.421" y="645.271"/>
      <point x="588" y="525" type="curve"/>
      <point x="535" y="468" type="line"/>
      <point x="340" y="843" type="line" smooth="yes"/>
      <point x="290.424" y="938.338"/>
      <point x="267" y="1004.88"/>
    </contour>
  </outline>
</glyph>
<glyph name="Sa.dv" format="2">
  <advance width="919"/>
  <unicode hex="0938"/>
  <anchor x="719" y="23" name="bottom"/>
  <anchor x="710.5" y="23" name="bottom2"/>
  <anchor x="803" y="23" name="bottom3"/>
  <anchor x="718" y="42.5" name="bottom5"/>
  <anchor x="716.5" y="1258.5" name="top"/>
  <outline>
    <contour>
      <point x="802.5" y="1203.5" type="line"/>
      <point x="802.5" y="0" type="line"/>
      <point x="633" y="0" type="line"/>
      <point x="633" y="1203.5" type="line"/>
    </contour>
    <contour>
      <point x="570.5" y="1154.5" type="line"/>
      <point x="560.5" y="1289.5" type="line"/>
      <point x="941.5" y="1289.5" type="line"/>
      <point x="951.5" y="1154.5" type="line"/>
    </contour>
    <contour>
      <point x="845" y="1155" type="line"/>
      <point x="-23" y="1155" type="line"/>
      <point x="-33" y="1290" type="line"/>
      <point x="836" y="1290" type="line"/>
    </contour>
    <contour>
      <point x="340" y="661" type="line"/>
      <point x="674" y="661" type="line"/>
      <point x="674" y="515" type="line"/>
      <point x="360" y="515" type="line"/>
    </contour>
    <contour>
      <point x="447" y="0" type="line"/>
      <point x="267" y="0" type="line"/>
      <point x="111" y="500" type="line"/>
      <point x="33" y="508" type="line"/>
      <point x="33" y="657" type="line"/>
      <point x="228" y="608" type="line"/>
      <point x="228" y="572" type="line"/>
      <point x="285" y="483"/>
      <point x="314.696" y="409.447"/>
      <point x="354" y="289" type="curve" smooth="yes"/>
      <point x="447" y="4" type="line"/>
    </contour>
    <contour>
      <point x="362" y="1180" type="line"/>
      <point x="392" y="1132"/>
      <point x="405" y="1061"/>
      <point x="405" y="944" type="curve" smooth="yes"/>
      <point x="405" y="871" type="line" smooth="yes"/>
      <point x="405" y="629.963"/>
      <point x="328.133" y="529.251"/>
      <point x="136" y="516" type="curve" smooth="yes"/>
      <point x="107" y="514" type="line"/>
      <point x="33" y="657" type="line"/>
      <point x="66" y="657" type="line" smooth="yes"/>
      <point x="189.187" y="657"/>
      <point x="235" y="724"/>
      <point x="235" y="893" type="curve" smooth="yes"/>
      <point x="235" y="955" type="line" smooth="yes"/>
      <point x="235" y="1072.55"/>
      <point x="225" y="1132.95"/>
      <point x="191" y="1180" type="curve"/>
    </contour>
  </outline>
  <guideline angle="0" x="0" y="337"/>
  <guideline angle="90" x="53" y="0"/>
  <guideline angle="90" x="628" y="0"/>
  <guideline angle="90" x="679" y="0"/>
  <guideline angle="0" x="0" y="9"/>
  <guideline angle="90" x="684" y="0"/>
  <guideline angle="90" x="667" y="0"/>
  <guideline angle="0" x="0" y="1262"/>
  <guideline angle="90" x="717" y="0"/>
  <guideline angle="0" x="0" y="30"/>
</glyph>
<glyph name="Ha.dv" format="2">
  <advance width="738"/>
  <unicode hex="0939"/>
  <anchor x="440" y="-70" name="bottom"/>
  <anchor x="378" y="-138" name="bottom2"/>
  <anchor x="669.5" y="-138" name="bottom3"/>
  <anchor x="190" y="-202" name="bottom4"/>
  <anchor x="411.5" y="-117.5" name="bottom5"/>
  <anchor x="545.501" y="1258.3" name="top"/>
  <outline>
    <contour>
      <point x="391.501" y="1154.3" type="line"/>
      <point x="381.501" y="1289.3" type="line"/>
      <point x="742.001" y="1289.3" type="line"/>
      <point x="752.001" y="1154.3" type="line"/>
    </contour>
    <contour>
      <point x="628.001" y="1203.8" type="line"/>
      <point x="628.001" y="988.305" type="line"/>
      <point x="464.001" y="988.305" type="line"/>
      <point x="464.001" y="1203.8" type="line"/>
    </contour>
    <contour>
      <point x="774.5" y="1154.5" type="line"/>
      <point x="-19" y="1154.5" type="line"/>
      <point x="-28.5" y="1289.5" type="line"/>
      <point x="764.5" y="1289.5" type="line"/>
    </contour>
    <contour>
      <point x="462.5" y="1192.5" type="line"/>
      <point x="627.5" y="1192.5" type="line"/>
      <point x="627.5" y="832" type="line"/>
      <point x="462.5" y="890" type="line"/>
    </contour>
    <contour>
      <point x="184" y="501.5" type="line"/>
      <point x="118" y="544.312"/>
      <point x="77" y="611.504"/>
      <point x="77" y="713.5" type="curve" smooth="yes"/>
      <point x="77" y="728.5" type="line" smooth="yes"/>
      <point x="77" y="891.771"/>
      <point x="173.898" y="985.5"/>
      <point x="380" y="985.5" type="curve" smooth="yes"/>
      <point x="463.722" y="985.5"/>
      <point x="549.853" y="976"/>
      <point x="627.5" y="958" type="curve"/>
      <point x="627.5" y="825.5" type="line"/>
      <point x="563.5" y="836.5"/>
      <point x="498" y="843"/>
      <point x="435" y="843" type="curve" smooth="yes"/>
      <point x="301" y="843"/>
      <point x="246" y="797.368"/>
      <point x="246" y="703.49" type="curve" smooth="yes"/>
      <point x="246" y="692.45" type="line" smooth="yes"/>
      <point x="246" y="642"/>
      <point x="261.5" y="606"/>
      <point x="297.5" y="571.5" type="curve"/>
    </contour>
    <contour>
      <point x="580.5" y="-140" type="line"/>
      <point x="544" y="-153.5"/>
      <point x="496" y="-160.5"/>
      <point x="443.5" y="-160.5" type="curve" smooth="yes"/>
      <point x="224" y="-160.5"/>
      <point x="82" y="-41"/>
      <point x="82" y="217.756" type="curve" smooth="yes"/>
      <point x="82" y="258.482" type="line" smooth="yes"/>
      <point x="82" y="385"/>
      <point x="119" y="486"/>
      <point x="209" y="540.019" type="curve"/>
      <point x="231" y="554" type="line" smooth="yes"/>
      <point x="276.284" y="583.861"/>
      <point x="335.205" y="602.5"/>
      <point x="404" y="602.5" type="curve" smooth="yes"/>
      <point x="583.483" y="602.5"/>
      <point x="671" y="504.676"/>
      <point x="671" y="325" type="curve" smooth="yes"/>
      <point x="671" y="270"/>
      <point x="666" y="216.731"/>
      <point x="656" y="167" type="curve"/>
      <point x="508.5" y="167" type="line"/>
      <point x="508.5" y="289" type="line" smooth="yes"/>
      <point x="508.5" y="407.5"/>
      <point x="472.684" y="454.5"/>
      <point x="387.923" y="454.5" type="curve" smooth="yes"/>
      <point x="299" y="454.5"/>
      <point x="253.5" y="394"/>
      <point x="253.5" y="260.5" type="curve" smooth="yes"/>
      <point x="253.5" y="220.5" type="line" smooth="yes"/>
      <point x="253.5" y="53"/>
      <point x="337" y="-11"/>
      <point x="468" y="-11" type="curve" smooth="yes"/>
      <point x="513.631" y="-11"/>
      <point x="553.309" y="-5"/>
      <point x="591.5" y="6" type="curve"/>
    </contour>
  </outline>
</glyph>
<glyph name="uni093A" format="2">
  <unicode hex="093A"/>
  <anchor x="-202.5" y="1258.5" name="_top"/>
  <outline>
    <contour>
      <point x="-275" y="1679" type="line"/>
      <point x="-129" y="1679" type="line"/>
      <point x="-129" y="1265.5" type="line"/>
      <point x="-275" y="1265.5" type="line"/>
    </contour>
  </outline>
</glyph>
<glyph name="uni093B" format="2">
  <advance width="402"/>
  <unicode hex="093B"/>
  <outline>
    <contour>
      <point x="285.5" y="0" type="line"/>
      <point x="116" y="0" type="line"/>
      <point x="116" y="1203.5" type="line"/>
      <point x="285.5" y="1203.5" type="line"/>
    </contour>
    <contour>
      <point x="434.5" y="1154.5" type="line"/>
      <point x="-23" y="1154.5" type="line"/>
      <point x="-33" y="1289.5" type="line"/>
      <point x="424.5" y="1289.5" type="line"/>
    </contour>
    <contour>
      <point x="126.5" y="1679" type="line"/>
      <point x="272.5" y="1679" type="line"/>
      <point x="272.5" y="1265.5" type="line"/>
      <point x="126.5" y="1265.5" type="line"/>
    </contour>
  </outline>
</glyph>
<glyph name="Nukta.dv" format="2">
  <unicode hex="093C"/>
  <anchor x="-470" y="27.5" name="_bottom4"/>
  <outline>
    <contour>
      <point x="-470" y="-240.76" type="curve" smooth="yes"/>
      <point x="-536.42" y="-240.76"/>
      <point x="-565.04" y="-198.1"/>
      <point x="-565.04" y="-121.42" type="curve" smooth="yes"/>
      <point x="-565.04" y="-119.413"/>
      <point x="-565.04" y="-112.521"/>
      <point x="-565.04" y="-110.08" type="curve" smooth="yes"/>
      <point x="-565.04" y="-33.4"/>
      <point x="-536.42" y="9.25999"/>
      <point x="-470" y="9.25999" type="curve" smooth="yes"/>
      <point x="-403.58" y="9.25999"/>
      <point x="-374.96" y="-33.4"/>
      <point x="-374.96" y="-110.08" type="curve"/>
      <point x="-374.96" y="-112.075"/>
      <point x="-374.96" y="-118.972"/>
      <point x="-374.96" y="-121.42" type="curve" smooth="yes"/>
      <point x="-374.96" y="-198.1"/>
      <point x="-403.58" y="-240.76"/>
    </contour>
  </outline>
</glyph>
<glyph name="Avagraha.dv" format="2">
  <advance width="681"/>
  <unicode hex="093D"/>
  <outline>
    <contour>
      <point x="61" y="246" type="line"/>
      <point x="133.067" y="184.412"/>
      <point x="207" y="139"/>
      <point x="291" y="139" type="curve" smooth="yes"/>
      <point x="393.613" y="139"/>
      <point x="442.5" y="195"/>
      <point x="442.5" y="328.5" type="curve" smooth="yes"/>
      <point x="442.5" y="353" type="line" smooth="yes"/>
      <point x="442.5" y="484"/>
      <point x="393.793" y="544.678"/>
      <point x="271.5" y="636.5" type="curve" smooth="yes"/>
      <point x="136.053" y="738.197"/>
      <point x="75" y="816.5"/>
      <point x="75" y="975" type="curve" smooth="yes"/>
      <point x="75" y="990.5" type="line" smooth="yes"/>
      <point x="75" y="1193"/>
      <point x="178.614" y="1289"/>
      <point x="373.87" y="1289" type="curve" smooth="yes"/>
      <point x="554" y="1289" type="line"/>
      <point x="569.5" y="1148" type="line"/>
      <point x="398.305" y="1148" type="line" smooth="yes"/>
      <point x="291.574" y="1148"/>
      <point x="242" y="1105"/>
      <point x="242" y="996" type="curve" smooth="yes"/>
      <point x="242" y="980" type="line" smooth="yes"/>
      <point x="242" y="875"/>
      <point x="293.859" y="825.421"/>
      <point x="412" y="737" type="curve" smooth="yes"/>
      <point x="545.504" y="637.082"/>
      <point x="612.5" y="543.5"/>
      <point x="612.5" y="353.5" type="curve" smooth="yes"/>
      <point x="612.5" y="321" type="line" smooth="yes"/>
      <point x="612.5" y="93"/>
      <point x="515.529" y="-14"/>
      <point x="312" y="-14" type="curve" smooth="yes"/>
      <point x="210" y="-14"/>
      <point x="126.59" y="19.7095"/>
      <point x="67" y="71" type="curve"/>
    </contour>
  </outline>
  <guideline angle="0" x="0" y="709"/>
</glyph>
<glyph name="matraA.dv" format="2">
  <advance width="402"/>
  <unicode hex="093E"/>
  <outline>
    <contour>
      <point x="285.5" y="0" type="line"/>
      <point x="116" y="0" type="line"/>
      <point x="116" y="1203.5" type="line"/>
      <point x="285.5" y="1203.5" type="line"/>
    </contour>
    <contour>
      <point x="434.5" y="1154.5" type="line"/>
      <point x="-23" y="1154.5" type="line"/>
      <point x="-33" y="1289.5" type="line"/>
      <point x="424.5" y="1289.5" type="line"/>
    </contour>
  </outline>
</glyph>
<glyph name="matraI.dv" format="2">
  <advance width="402"/>
  <unicode hex="093F"/>
  <outline>
    <contour>
      <point x="285.5" y="0" type="line"/>
      <point x="116" y="0" type="line"/>
      <point x="116" y="1203.5" type="line"/>
      <point x="285.5" y="1203.5" type="line"/>
    </contour>
    <contour>
      <point x="434.5" y="1154.5" type="line"/>
      <point x="-23" y="1154.5" type="line"/>
      <point x="-33" y="1289.5" type="line"/>
      <point x="424.5" y="1289.5" type="line"/>
    </contour>
    <contour>
      <point x="538.5" y="1738" type="curve" smooth="yes"/>
      <point x="735.5" y="1738"/>
      <point x="893.223" y="1663"/>
      <point x="1004.48" y="1553" type="curve"/>
      <point x="1024.5" y="1365" type="line"/>
      <point x="1017.05" y="1363.5" type="line"/>
      <point x="870" y="1515"/>
      <point x="721.358" y="1587"/>
      <point x="545" y="1587" type="curve" smooth="yes"/>
      <point x="376.449" y="1587"/>
      <point x="282" y="1510.06"/>
      <point x="282" y="1330.63" type="curve" smooth="yes"/>
      <point x="282" y="1258.5" type="line"/>
      <point x="122" y="1258.5" type="line"/>
      <point x="122" y="1338" type="line" smooth="yes"/>
      <point x="122" y="1601"/>
      <point x="261.311" y="1738"/>
    </contour>
  </outline>
</glyph>
<glyph name="matraIi.dv" format="2">
  <advance width="402"/>
  <unicode hex="0940"/>
  <outline>
    <contour>
      <point x="284.75" y="0" type="line"/>
      <point x="115.25" y="0" type="line"/>
      <point x="115.25" y="1203.5" type="line"/>
      <point x="284.75" y="1203.5" type="line"/>
    </contour>
    <contour>
      <point x="433.75" y="1154.5" type="line"/>
      <point x="-23.75" y="1154.5" type="line"/>
      <point x="-33.75" y="1289.5" type="line"/>
      <point x="423.75" y="1289.5" type="line"/>
    </contour>
    <contour>
      <point x="-9.4885" y="1762.5" type="curve" smooth="yes"/>
      <point x="190.174" y="1762.5"/>
      <point x="279" y="1658.03"/>
      <point x="279" y="1426" type="curve" smooth="yes"/>
      <point x="279" y="1268.5" type="line"/>
      <point x="119" y="1268.5" type="line"/>
      <point x="119" y="1422" type="line" smooth="yes"/>
      <point x="119" y="1569.59"/>
      <point x="79.5094" y="1617.5"/>
      <point x="-1.49685" y="1617.5" type="curve" smooth="yes"/>
      <point x="-81.4906" y="1617.5"/>
      <point x="-122.5" y="1573"/>
      <point x="-122.5" y="1463" type="curve" smooth="yes"/>
      <point x="-122.5" y="1361.5" type="line"/>
      <point x="-274" y="1382" type="line"/>
      <point x="-281.333" y="1428.26"/>
      <point x="-285" y="1468"/>
      <point x="-285" y="1507" type="curve" smooth="yes"/>
      <point x="-285" y="1668"/>
      <point x="-184.904" y="1762.5"/>
    </contour>
  </outline>
</glyph>
<glyph name="matraU.dv" format="2">
  <unicode hex="0941"/>
  <anchor x="-210.5" y="23" name="_bottom"/>
  <outline>
    <contour>
      <point x="-483" y="-148.5" type="line"/>
      <point x="-442.669" y="-315.482"/>
      <point x="-389.167" y="-402"/>
      <point x="-281.302" y="-402" type="curve" smooth="yes"/>
      <point x="-198.987" y="-402"/>
      <point x="-163" y="-357.222"/>
      <point x="-163" y="-265" type="curve" smooth="yes"/>
      <point x="-163" y="-246.877" type="line" smooth="yes"/>
      <point x="-163" y="-160.509"/>
      <point x="-190.198" y="-118.5"/>
      <point x="-261" y="-118.5" type="curve" smooth="yes"/>
      <point x="-304.631" y="-118.5"/>
      <point x="-344.384" y="-133.757"/>
      <point x="-388.5" y="-162" type="curve"/>
      <point x="-379" y="-18" type="line"/>
      <point x="-338.931" y="7.13158"/>
      <point x="-289.69" y="23"/>
      <point x="-225" y="23" type="curve" smooth="yes"/>
      <point x="-71.3077" y="23"/>
      <point x="-3" y="-73.5992"/>
      <point x="-3" y="-242.089" type="curve" smooth="yes"/>
      <point x="-3" y="-265" type="line" smooth="yes"/>
      <point x="-3" y="-445.644"/>
      <point x="-83.7568" y="-545"/>
      <point x="-268.181" y="-545" type="curve" smooth="yes"/>
      <point x="-483.779" y="-545"/>
      <point x="-583.417" y="-415"/>
      <point x="-640" y="-148.5" type="curve"/>
    </contour>
  </outline>
</glyph>
<glyph name="matraUu.dv" format="2">
  <unicode hex="0942"/>
  <anchor x="-201" y="23" name="_bottom"/>
  <outline>
    <contour>
      <point x="-172.957" y="-519.989" type="line"/>
      <point x="-198.124" y="-534.197"/>
      <point x="-232.442" y="-541"/>
      <point x="-275" y="-541" type="curve" smooth="yes"/>
      <point x="-409" y="-541"/>
      <point x="-498.5" y="-454.105"/>
      <point x="-498.5" y="-279.394" type="curve" smooth="yes"/>
      <point x="-498.5" y="-254.527" type="line" smooth="yes"/>
      <point x="-498.5" y="-73.1812"/>
      <point x="-405.131" y="22"/>
      <point x="-229.268" y="22" type="curve" smooth="yes"/>
      <point x="8.75127" y="22"/>
      <point x="68.4773" y="-128"/>
      <point x="131" y="-543.5" type="curve"/>
      <point x="-31" y="-543.5" type="line"/>
      <point x="-78.8325" y="-205.069"/>
      <point x="-113.46" y="-119"/>
      <point x="-227.777" y="-119" type="curve" smooth="yes"/>
      <point x="-305.877" y="-119"/>
      <point x="-341.5" y="-165.513"/>
      <point x="-341.5" y="-253.567" type="curve" smooth="yes"/>
      <point x="-341.5" y="-272.26" type="line" smooth="yes"/>
      <point x="-341.5" y="-360.549"/>
      <point x="-306.026" y="-399"/>
      <point x="-241.664" y="-399" type="curve" smooth="yes"/>
      <point x="-212.233" y="-399"/>
      <point x="-185.1" y="-391.947"/>
      <point x="-161" y="-379.5" type="curve"/>
    </contour>
  </outline>
  <guideline angle="0" x="0" y="9"/>
  <guideline angle="90" x="-344" y="0"/>
</glyph>
<glyph name="matraRuu.dv" format="2">
  <unicode hex="0944"/>
  <anchor x="-201" y="23" name="_bottom"/>
  <outline>
    <contour>
      <point x="-117.456" y="20.5" type="line"/>
      <point x="-117.456" y="-100" type="line"/>
      <point x="-209.932" y="-100" type="line" smooth="yes"/>
      <point x="-279.906" y="-100"/>
      <point x="-317" y="-124.025"/>
      <point x="-317" y="-179.08" type="curve" smooth="yes"/>
      <point x="-317" y="-183.218" type="line" smooth="yes"/>
      <point x="-317" y="-230.17"/>
      <point x="-279.713" y="-257"/>
      <point x="-208.196" y="-257" type="curve" smooth="yes"/>
      <point x="-150.732" y="-257"/>
      <point x="-104.572" y="-247.5"/>
      <point x="-57" y="-223.5" type="curve"/>
      <point x="-69" y="-365.88" type="line"/>
      <point x="-105.5" y="-385.955"/>
      <point x="-156.5" y="-398"/>
      <point x="-226" y="-398" type="curve" smooth="yes"/>
      <point x="-378.827" y="-398"/>
      <point x="-477" y="-320.208"/>
      <point x="-477" y="-187.34" type="curve" smooth="yes"/>
      <point x="-477" y="-179.159" type="line" smooth="yes"/>
      <point x="-477" y="-45.6479"/>
      <point x="-388.902" y="22.8093"/>
      <point x="-235" y="21.5" type="curve" smooth="yes"/>
    </contour>
    <contour>
      <point x="-220" y="-395" type="line"/>
      <point x="-290" y="-395"/>
      <point x="-319" y="-424.327"/>
      <point x="-319" y="-465.645" type="curve" smooth="yes"/>
      <point x="-319" y="-469.428" type="line" smooth="yes"/>
      <point x="-319" y="-516.249"/>
      <point x="-278" y="-543"/>
      <point x="-205" y="-543" type="curve" smooth="yes"/>
      <point x="-150.231" y="-543"/>
      <point x="-99.7999" y="-529.026"/>
      <point x="-53" y="-505" type="curve"/>
      <point x="-65.6453" y="-649.191" type="line"/>
      <point x="-106" y="-673"/>
      <point x="-164.608" y="-685"/>
      <point x="-229" y="-685" type="curve" smooth="yes"/>
      <point x="-380.852" y="-685"/>
      <point x="-475" y="-618.356"/>
      <point x="-475" y="-509.014" type="curve" smooth="yes"/>
      <point x="-475" y="-503.147" type="line" smooth="yes"/>
      <point x="-475" y="-441.293"/>
      <point x="-443.065" y="-395.677"/>
      <point x="-372.5" y="-373.5" type="curve"/>
      <point x="-372.5" y="-346" type="line"/>
    </contour>
  </outline>
</glyph>
<glyph name="Chandra.dv" format="2">
  <unicode hex="0945"/>
  <anchor x="-201" y="1258.5" name="_top"/>
  <outline>
    <contour>
      <point x="48.5" y="1732.5" type="line"/>
      <point x="50" y="1709"/>
      <point x="50" y="1698"/>
      <point x="50" y="1684.5" type="curve" smooth="yes"/>
      <point x="50" y="1485.5"/>
      <point x="-37" y="1406.5"/>
      <point x="-201" y="1406.5" type="curve" smooth="yes"/>
      <point x="-365" y="1406.5"/>
      <point x="-452" y="1485.5"/>
      <point x="-452" y="1684.5" type="curve" smooth="yes"/>
      <point x="-452" y="1696.5"/>
      <point x="-452" y="1709"/>
      <point x="-450.5" y="1732.5" type="curve"/>
      <point x="-307" y="1732.5" type="line"/>
      <point x="-307" y="1728.34"/>
      <point x="-307" y="1698.92"/>
      <point x="-307" y="1696.5" type="curve" smooth="yes"/>
      <point x="-307" y="1577.79"/>
      <point x="-275.705" y="1533.5"/>
      <point x="-201" y="1533.5" type="curve" smooth="yes"/>
      <point x="-126.295" y="1533.5"/>
      <point x="-95" y="1577.79"/>
      <point x="-95" y="1696.5" type="curve" smooth="yes"/>
      <point x="-95" y="1699.15"/>
      <point x="-95" y="1729.26"/>
      <point x="-95" y="1732.5" type="curve"/>
    </contour>
  </outline>
</glyph>
<glyph name="matraE.dv" format="2">
  <unicode hex="0947"/>
  <anchor x="-201" y="1258.5" name="_top"/>
  <outline>
    <contour>
      <point x="-710" y="1754.5" type="line"/>
      <point x="-526" y="1754.5" type="line"/>
      <point x="-445.542" y="1656.02"/>
      <point x="-216.53" y="1375.73"/>
      <point x="-137.5" y="1279" type="curve"/>
      <point x="-137.5" y="1258.5" type="line"/>
      <point x="-287.5" y="1258.5" type="line"/>
      <point x="-287.5" y="1294" type="line"/>
      <point x="-394.656" y="1369"/>
      <point x="-453.595" y="1428.86"/>
      <point x="-543" y="1537" type="curve" smooth="yes"/>
      <point x="-710" y="1739" type="line"/>
    </contour>
  </outline>
</glyph>
<glyph name="matraAi.dv" format="2">
  <unicode hex="0948"/>
  <anchor x="-201" y="1258.5" name="_top"/>
  <outline>
    <contour>
      <point x="-592" y="1641" type="line"/>
      <point x="-264" y="1355" type="line"/>
      <point x="-255" y="1362" type="line"/>
      <point x="-343" y="1495"/>
      <point x="-381.998" y="1568.08"/>
      <point x="-424" y="1672" type="curve" smooth="yes"/>
      <point x="-491.5" y="1839" type="line"/>
      <point x="-491.5" y="1850" type="line"/>
      <point x="-330" y="1850" type="line"/>
      <point x="-131.5" y="1282" type="line"/>
      <point x="-131.5" y="1258.5" type="line"/>
      <point x="-292.5" y="1258.5" type="line"/>
      <point x="-292.5" y="1295" type="line"/>
      <point x="-425" y="1338"/>
      <point x="-520.37" y="1391.89"/>
      <point x="-616" y="1476.55" type="curve" smooth="yes"/>
      <point x="-781.5" y="1623.06" type="line"/>
      <point x="-781.5" y="1641" type="line"/>
    </contour>
  </outline>
  <guideline angle="90" x="-169" y="0"/>
  <guideline angle="0" x="0" y="1262"/>
</glyph>
<glyph name="matraAChandra.dv" format="2">
  <advance width="402"/>
  <unicode hex="0949"/>
  <outline>
    <contour>
      <point x="285.5" y="0" type="line"/>
      <point x="116" y="0" type="line"/>
      <point x="116" y="1203.5" type="line"/>
      <point x="285.5" y="1203.5" type="line"/>
    </contour>
    <contour>
      <point x="434.5" y="1154.5" type="line"/>
      <point x="-23" y="1154.5" type="line"/>
      <point x="-33" y="1289.5" type="line"/>
      <point x="424.5" y="1289.5" type="line"/>
    </contour>
    <contour>
      <point x="259.5" y="1732.5" type="line"/>
      <point x="261" y="1709"/>
      <point x="261" y="1698"/>
      <point x="261" y="1684.5" type="curve" smooth="yes"/>
      <point x="261" y="1485.5"/>
      <point x="174" y="1406.5"/>
      <point x="10" y="1406.5" type="curve" smooth="yes"/>
      <point x="-154" y="1406.5"/>
      <point x="-241" y="1485.5"/>
      <point x="-241" y="1684.5" type="curve" smooth="yes"/>
      <point x="-241" y="1696.5"/>
      <point x="-241" y="1709"/>
      <point x="-239.5" y="1732.5" type="curve"/>
      <point x="-96" y="1732.5" type="line"/>
      <point x="-96" y="1728.34"/>
      <point x="-96" y="1698.92"/>
      <point x="-96" y="1696.5" type="curve" smooth="yes"/>
      <point x="-96" y="1577.79"/>
      <point x="-64.7048" y="1533.5"/>
      <point x="10" y="1533.5" type="curve" smooth="yes"/>
      <point x="84.7048" y="1533.5"/>
      <point x="116" y="1577.79"/>
      <point x="116" y="1696.5" type="curve" smooth="yes"/>
      <point x="116" y="1699.15"/>
      <point x="116" y="1729.26"/>
      <point x="116" y="1732.5" type="curve"/>
    </contour>
  </outline>
</glyph>
<glyph name="matraShortO.dv" format="2">
  <advance width="402"/>
  <unicode hex="094A"/>
  <outline>
    <contour>
      <point x="-156.13" y="1757.89" type="curve" smooth="yes"/>
      <point x="-156.13" y="1653.33"/>
      <point x="-126.33" y="1617.47"/>
      <point x="-18.2381" y="1612.42" type="curve" smooth="yes"/>
      <point x="28.7362" y="1610.4" type="line" smooth="yes"/>
      <point x="210.572" y="1602.82"/>
      <point x="273.71" y="1514.93"/>
      <point x="273.71" y="1344.21" type="curve" smooth="yes"/>
      <point x="273.71" y="1257.84" type="line"/>
      <point x="124.705" y="1257.84" type="line"/>
      <point x="124.705" y="1338.32" type="line" smooth="yes"/>
      <point x="124.705" y="1426.76"/>
      <point x="100.003" y="1466.42"/>
      <point x="4.49139" y="1470.98" type="curve" smooth="yes"/>
      <point x="-47.5339" y="1473.46" type="line" smooth="yes"/>
      <point x="-222.806" y="1481.83"/>
      <point x="-301.599" y="1549.48"/>
      <point x="-301.599" y="1694.39" type="curve" smooth="yes"/>
      <point x="-301.599" y="1720.2"/>
      <point x="-298.569" y="1749.3"/>
      <point x="-290.992" y="1776.57" type="curve"/>
      <point x="-156.13" y="1776.57" type="line"/>
      <point x="-156.13" y="1773.53"/>
      <point x="-156.13" y="1761.11"/>
    </contour>
    <contour>
      <point x="285.5" y="3.34186e-07" type="line"/>
      <point x="116" y="3.34186e-07" type="line"/>
      <point x="116" y="1203.5" type="line"/>
      <point x="285.5" y="1203.5" type="line"/>
    </contour>
    <contour>
      <point x="434.5" y="1154.5" type="line"/>
      <point x="-23" y="1154.5" type="line"/>
      <point x="-33" y="1289.5" type="line"/>
      <point x="424.5" y="1289.5" type="line"/>
    </contour>
  </outline>
  <guideline angle="90" x="150" y="0"/>
</glyph>
<glyph name="matraO.dv" format="2">
  <advance width="402"/>
  <unicode hex="094B"/>
  <outline>
    <contour>
      <point x="285.5" y="0" type="line"/>
      <point x="116" y="0" type="line"/>
      <point x="116" y="1203.5" type="line"/>
      <point x="285.5" y="1203.5" type="line"/>
    </contour>
    <contour>
      <point x="434.5" y="1154.5" type="line"/>
      <point x="-23" y="1154.5" type="line"/>
      <point x="-33" y="1289.5" type="line"/>
      <point x="424.5" y="1289.5" type="line"/>
    </contour>
    <contour>
      <point x="-307" y="1754.5" type="line"/>
      <point x="-123" y="1754.5" type="line"/>
      <point x="-42.5424" y="1656.02"/>
      <point x="186.47" y="1375.73"/>
      <point x="265.5" y="1279" type="curve"/>
      <point x="265.5" y="1258.5" type="line"/>
      <point x="115.5" y="1258.5" type="line"/>
      <point x="115.5" y="1294" type="line"/>
      <point x="8.34398" y="1369"/>
      <point x="-50.5954" y="1428.86"/>
      <point x="-140" y="1537" type="curve" smooth="yes"/>
      <point x="-307" y="1739" type="line"/>
    </contour>
  </outline>
</glyph>
<glyph name="matraAu.dv" format="2">
  <advance width="402"/>
  <unicode hex="094C"/>
  <outline>
    <contour>
      <point x="285.5" y="0" type="line"/>
      <point x="116" y="0" type="line"/>
      <point x="116" y="1203.5" type="line"/>
      <point x="285.5" y="1203.5" type="line"/>
    </contour>
    <contour>
      <point x="434.5" y="1154.5" type="line"/>
      <point x="-23" y="1154.5" type="line"/>
      <point x="-33" y="1289.5" type="line"/>
      <point x="424.5" y="1289.5" type="line"/>
    </contour>
    <contour>
      <point x="-190.5" y="1641" type="line"/>
      <point x="137.5" y="1355" type="line"/>
      <point x="146.5" y="1362" type="line"/>
      <point x="58.5" y="1495"/>
      <point x="19.5019" y="1568.08"/>
      <point x="-22.5" y="1672" type="curve" smooth="yes"/>
      <point x="-90" y="1839" type="line"/>
      <point x="-90" y="1850" type="line"/>
      <point x="71.5" y="1850" type="line"/>
      <point x="270" y="1282" type="line"/>
      <point x="270" y="1258.5" type="line"/>
      <point x="109" y="1258.5" type="line"/>
      <point x="109" y="1295" type="line"/>
      <point x="-23.5" y="1338"/>
      <point x="-118.87" y="1391.89"/>
      <point x="-214.5" y="1476.55" type="curve" smooth="yes"/>
      <point x="-380" y="1623.06" type="line"/>
      <point x="-380" y="1641" type="line"/>
    </contour>
  </outline>
</glyph>
<glyph name="Halant.dv" format="2">
  <unicode hex="094D"/>
  <anchor x="-208.5" y="23" name="_bottom2"/>
  <outline>
    <contour>
      <point x="-297.5" y="-121" type="line"/>
      <point x="-115" y="-121" type="line"/>
      <point x="105" y="-527" type="line"/>
      <point x="105" y="-535.5" type="line"/>
      <point x="-57" y="-535.5" type="line"/>
      <point x="-297.5" y="-138" type="line"/>
    </contour>
  </outline>
  <guideline angle="90" x="-169" y="0"/>
  <guideline angle="90" x="-45" y="0"/>
  <guideline angle="90" x="-174" y="0"/>
  <guideline angle="0" x="0" y="9"/>
</glyph>
<glyph name="uni094E" format="2">
  <advance width="402"/>
  <unicode hex="094E"/>
  <outline>
    <contour>
      <point x="285.5" y="1203.5" type="line"/>
      <point x="285.5" y="0" type="line"/>
      <point x="117" y="0" type="line"/>
      <point x="117" y="1203.5" type="line"/>
    </contour>
    <contour>
      <point x="117" y="1154.5" type="line"/>
      <point x="117" y="1289.5" type="line"/>
      <point x="424" y="1289.5" type="line"/>
      <point x="434.5" y="1154.5" type="line"/>
    </contour>
  </outline>
</glyph>
<glyph name="uni094F" format="2">
  <advance width="402"/>
  <unicode hex="094F"/>
  <outline>
    <contour>
      <point x="-382" y="1577" type="curve" smooth="yes"/>
      <point x="-382" y="1598"/>
      <point x="-378" y="1622.35"/>
      <point x="-371" y="1644" type="curve"/>
      <point x="-243.5" y="1644" type="line"/>
      <point x="-243.5" y="1625.49" type="line" smooth="yes"/>
      <point x="-243.5" y="1556.63"/>
      <point x="-216.167" y="1532.43"/>
      <point x="-107.372" y="1518" type="curve" smooth="yes"/>
      <point x="-54.5984" y="1511" type="line" smooth="yes"/>
      <point x="71.7783" y="1494.24"/>
      <point x="120" y="1466.93"/>
      <point x="160" y="1398" type="curve"/>
      <point x="166" y="1399" type="line"/>
      <point x="164.713" y="1497.2"/>
      <point x="136.511" y="1551.5"/>
      <point x="27.0391" y="1596" type="curve" smooth="yes"/>
      <point x="-32" y="1620" type="line" smooth="yes"/>
      <point x="-131.936" y="1660.62"/>
      <point x="-175" y="1712.39"/>
      <point x="-175" y="1795" type="curve" smooth="yes"/>
      <point x="-175" y="1820.68"/>
      <point x="-170.636" y="1847.4"/>
      <point x="-163" y="1870" type="curve"/>
      <point x="-36.5" y="1869" type="line"/>
      <point x="-36.5" y="1853.59" type="line" smooth="yes"/>
      <point x="-36.5" y="1787.28"/>
      <point x="-19.4977" y="1756.92"/>
      <point x="65" y="1721" type="curve" smooth="yes"/>
      <point x="107.342" y="1703" type="line" smooth="yes"/>
      <point x="239.807" y="1646.69"/>
      <point x="274" y="1555.37"/>
      <point x="274" y="1380.22" type="curve" smooth="yes"/>
      <point x="274" y="1265.5" type="line"/>
      <point x="114" y="1265.5" type="line"/>
      <point x="114" y="1287.5" type="line" smooth="yes"/>
      <point x="114" y="1336.31"/>
      <point x="77.4593" y="1367.06"/>
      <point x="-59" y="1384" type="curve" smooth="yes"/>
      <point x="-131.5" y="1393" type="line" smooth="yes"/>
      <point x="-309.583" y="1415.11"/>
      <point x="-382" y="1469.84"/>
    </contour>
    <contour>
      <point x="285.5" y="0" type="line"/>
      <point x="116" y="0" type="line"/>
      <point x="116" y="1203.5" type="line"/>
      <point x="285.5" y="1203.5" type="line"/>
    </contour>
    <contour>
      <point x="434.5" y="1154.5" type="line"/>
      <point x="-23" y="1154.5" type="line"/>
      <point x="-33" y="1289.5" type="line"/>
      <point x="424.5" y="1289.5" type="line"/>
    </contour>
  </outline>
</glyph>
<glyph name="Om.dv" format="2">
  <advance width="1194"/>
  <unicode hex="0950"/>
  <outline>
    <contour>
      <point x="803.036" y="1351.7" type="curve" smooth="yes"/>
      <point x="751.645" y="1351.7"/>
      <point x="732.231" y="1388.73"/>
      <point x="732.231" y="1459.99" type="curve" smooth="yes"/>
      <point x="732.231" y="1474.09" type="line" smooth="yes"/>
      <point x="732.231" y="1543.07"/>
      <point x="751.645" y="1580.61"/>
      <point x="803.036" y="1580.61" type="curve" smooth="yes"/>
      <point x="854.426" y="1580.61"/>
      <point x="873.269" y="1543.07"/>
      <point x="873.269" y="1474.09" type="curve" smooth="yes"/>
      <point x="873.269" y="1459.99" type="line" smooth="yes"/>
      <point x="873.269" y="1388.73"/>
      <point x="854.426" y="1351.7"/>
    </contour>
    <contour>
      <point x="1076" y="1466.5" type="line"/>
      <point x="1078" y="1436"/>
      <point x="1078" y="1422"/>
      <point x="1078" y="1410.5" type="curve" smooth="yes"/>
      <point x="1078" y="1227.2"/>
      <point x="981.184" y="1140.5"/>
      <point x="802.735" y="1140.5" type="curve" smooth="yes"/>
      <point x="624.286" y="1140.5"/>
      <point x="528" y="1227.2"/>
      <point x="528" y="1410.5" type="curve" smooth="yes"/>
      <point x="528" y="1421.11"/>
      <point x="528" y="1436"/>
      <point x="530" y="1466.5" type="curve"/>
      <point x="658" y="1466.5" type="line"/>
      <point x="658" y="1426.6" type="line" smooth="yes"/>
      <point x="658" y="1309.27"/>
      <point x="704.939" y="1259"/>
      <point x="803" y="1259" type="curve" smooth="yes"/>
      <point x="901.061" y="1259"/>
      <point x="948.5" y="1309.27"/>
      <point x="948.5" y="1426.6" type="curve" smooth="yes"/>
      <point x="948.5" y="1466.5" type="line"/>
    </contour>
    <contour>
      <point x="696" y="353" type="line"/>
      <point x="732.388" y="331.268"/>
      <point x="773" y="316.5"/>
      <point x="812" y="316.5" type="curve" smooth="yes"/>
      <point x="906.793" y="316.5"/>
      <point x="945" y="367"/>
      <point x="945" y="554" type="curve" smooth="yes"/>
      <point x="945" y="715.5" type="line" smooth="yes"/>
      <point x="945" y="850.5"/>
      <point x="927.282" y="900"/>
      <point x="869" y="900" type="curve" smooth="yes"/>
      <point x="812.725" y="900"/>
      <point x="794.763" y="863.276"/>
      <point x="766.5" y="726" type="curve" smooth="yes"/>
      <point x="756" y="675" type="line" smooth="yes"/>
      <point x="728.723" y="542.514"/>
      <point x="678.857" y="499"/>
      <point x="576" y="499" type="curve" smooth="yes"/>
      <point x="523.5" y="499"/>
      <point x="474.5" y="516.925"/>
      <point x="428.5" y="567.5" type="curve"/>
      <point x="394" y="661" type="line"/>
      <point x="430.82" y="648.448"/>
      <point x="466.127" y="635"/>
      <point x="509" y="635" type="curve" smooth="yes"/>
      <point x="564.304" y="635"/>
      <point x="594.507" y="654.778"/>
      <point x="615" y="751.88" type="curve" smooth="yes"/>
      <point x="626" y="804" type="line" smooth="yes"/>
      <point x="662.786" y="978.301"/>
      <point x="734.66" y="1048"/>
      <point x="870" y="1048" type="curve" smooth="yes"/>
      <point x="1039.3" y="1048"/>
      <point x="1113.5" y="944"/>
      <point x="1113.5" y="720" type="curve" smooth="yes"/>
      <point x="1113.5" y="529" type="line" smooth="yes"/>
      <point x="1113.5" y="267"/>
      <point x="1025" y="168"/>
      <point x="849" y="168" type="curve" smooth="yes"/>
      <point x="792" y="168"/>
      <point x="743.51" y="180.936"/>
      <point x="705.5" y="202.5" type="curve"/>
    </contour>
    <contour>
      <point x="31" y="245" type="line"/>
      <point x="91" y="203"/>
      <point x="156" y="176"/>
      <point x="225" y="176" type="curve" smooth="yes"/>
      <point x="325" y="176"/>
      <point x="371.5" y="232"/>
      <point x="371.5" y="359.5" type="curve" smooth="yes"/>
      <point x="371.5" y="376"/>
      <point x="371.5" y="411.5"/>
      <point x="371.5" y="419" type="curve" smooth="yes"/>
      <point x="371.5" y="543.045"/>
      <point x="326.481" y="593.175"/>
      <point x="204" y="598.5" type="curve" smooth="yes"/>
      <point x="123.5" y="602" type="line"/>
      <point x="123.5" y="751" type="line"/>
      <point x="198.5" y="756" type="line" smooth="yes"/>
      <point x="316.331" y="763.855"/>
      <point x="362.5" y="814.025"/>
      <point x="362.5" y="934.5" type="curve" smooth="yes"/>
      <point x="362.5" y="940"/>
      <point x="362.5" y="977"/>
      <point x="362.5" y="989" type="curve" smooth="yes"/>
      <point x="362.5" y="1106"/>
      <point x="323" y="1156"/>
      <point x="228" y="1156" type="curve" smooth="yes"/>
      <point x="166.5" y="1156"/>
      <point x="116" y="1137.5"/>
      <point x="66" y="1104" type="curve"/>
      <point x="73.0593" y="1257" type="line"/>
      <point x="121.97" y="1286"/>
      <point x="185" y="1304"/>
      <point x="266" y="1304" type="curve" smooth="yes"/>
      <point x="441" y="1304"/>
      <point x="527" y="1207"/>
      <point x="527" y="1010" type="curve" smooth="yes"/>
      <point x="527" y="1004.53"/>
      <point x="527" y="969.416"/>
      <point x="527" y="953" type="curve" smooth="yes"/>
      <point x="527" y="783"/>
      <point x="469.095" y="696"/>
      <point x="337" y="683" type="curve"/>
      <point x="337" y="675" type="line"/>
      <point x="466.912" y="658.259"/>
      <point x="537" y="576.064"/>
      <point x="537" y="396" type="curve" smooth="yes"/>
      <point x="537" y="375.214"/>
      <point x="537" y="333.286"/>
      <point x="537" y="325.5" type="curve" smooth="yes"/>
      <point x="537" y="133.5"/>
      <point x="454" y="26"/>
      <point x="255.5" y="26" type="curve" smooth="yes"/>
      <point x="168.666" y="26"/>
      <point x="90.4739" y="49"/>
      <point x="39" y="84" type="curve"/>
    </contour>
  </outline>
</glyph>
<glyph name="Udatta.dv" format="2">
  <unicode hex="0951"/>
  <anchor x="-201" y="1258.5" name="_top"/>
  <outline>
    <contour>
      <point x="-273" y="1477.5" type="line"/>
      <point x="-273" y="1923" type="line"/>
      <point x="-127" y="1923" type="line"/>
      <point x="-127" y="1477.5" type="line"/>
    </contour>
  </outline>
</glyph>
<glyph name="Anudatta.dv" format="2">
  <unicode hex="0952"/>
  <anchor x="-116" y="23" name="_bottom3"/>
  <outline>
    <contour>
      <point x="-675" y="-383" type="line"/>
      <point x="-686" y="-243" type="line"/>
      <point x="-110" y="-243" type="line"/>
      <point x="-100" y="-383" type="line"/>
    </contour>
  </outline>
  <guideline angle="90" x="-151" y="0"/>
  <guideline angle="0" x="0" y="9"/>
</glyph>
<glyph name="uni0953" format="2">
  <unicode hex="0953"/>
  <anchor x="-201" y="1258.5" name="_top"/>
  <outline>
    <contour>
      <point x="-287" y="1406.5" type="line"/>
      <point x="-494" y="1749" type="line"/>
      <point x="-494" y="1758" type="line"/>
      <point x="-309" y="1758" type="line"/>
      <point x="-132.5" y="1412.5" type="line"/>
      <point x="-132.5" y="1406.5" type="line"/>
    </contour>
  </outline>
</glyph>
<glyph name="uni0954" format="2">
  <unicode hex="0954"/>
  <anchor x="-201" y="1258.5" name="_top"/>
  <outline>
    <contour>
      <point x="-112.5" y="1406.5" type="line"/>
      <point x="-267" y="1406.5" type="line"/>
      <point x="-267" y="1412.5" type="line"/>
      <point x="-90.5" y="1758" type="line"/>
      <point x="94.5" y="1758" type="line"/>
      <point x="94.5" y="1749" type="line"/>
    </contour>
  </outline>
</glyph>
<glyph name="uni0955" format="2">
  <unicode hex="0955"/>
  <anchor x="-201" y="1258.5" name="_top"/>
  <outline>
    <contour>
      <point x="-117" y="1849" type="line"/>
      <point x="9" y="1849" type="line"/>
      <point x="11" y="1827"/>
      <point x="11" y="1817"/>
      <point x="11" y="1808.5" type="curve" smooth="yes"/>
      <point x="11" y="1657.5"/>
      <point x="-58.5" y="1583.5"/>
      <point x="-206" y="1583.5" type="curve" smooth="yes"/>
      <point x="-352" y="1583.5"/>
      <point x="-422.5" y="1657.5"/>
      <point x="-422.5" y="1808.5" type="curve" smooth="yes"/>
      <point x="-422.5" y="1817"/>
      <point x="-422" y="1831"/>
      <point x="-420.5" y="1849" type="curve"/>
      <point x="-294" y="1849" type="line"/>
      <point x="-294" y="1821.16" type="line" smooth="yes"/>
      <point x="-294" y="1730.32"/>
      <point x="-267.065" y="1697"/>
      <point x="-205.928" y="1697" type="curve" smooth="yes"/>
      <point x="-144.362" y="1697"/>
      <point x="-117" y="1730.32"/>
      <point x="-117" y="1821.16" type="curve" smooth="yes"/>
    </contour>
    <contour>
      <point x="-425" y="1386" type="line"/>
      <point x="-425" y="1504" type="line"/>
      <point x="13" y="1504" type="line"/>
      <point x="13" y="1386" type="line"/>
    </contour>
  </outline>
</glyph>
<glyph name="uni0956" format="2">
  <unicode hex="0956"/>
  <anchor x="-201" y="42.5" name="_bottom5"/>
  <outline>
    <contour>
      <point x="-204.5" y="-341" type="curve" smooth="yes"/>
      <point x="-317" y="-341"/>
      <point x="-410" y="-322.24"/>
      <point x="-483.048" y="-289" type="curve"/>
      <point x="-487.979" y="-143.5" type="line"/>
      <point x="-408.979" y="-177.613"/>
      <point x="-306" y="-197.5"/>
      <point x="-204.5" y="-197.5" type="curve" smooth="yes"/>
      <point x="-103" y="-197.5"/>
      <point x="-1" y="-178.632"/>
      <point x="79" y="-143.5" type="curve"/>
      <point x="74.069" y="-289" type="line"/>
      <point x="0" y="-324.32"/>
      <point x="-92" y="-341"/>
    </contour>
  </outline>
</glyph>
<glyph name="uni0957" format="2">
  <unicode hex="0957"/>
  <anchor x="-201" y="42.5" name="_bottom5"/>
  <outline>
    <contour>
      <point x="-204.5" y="-336" type="curve" smooth="yes"/>
      <point x="-315" y="-336"/>
      <point x="-410" y="-317"/>
      <point x="-483.048" y="-286" type="curve"/>
      <point x="-487.979" y="-144.5" type="line"/>
      <point x="-408.979" y="-178"/>
      <point x="-310" y="-197.5"/>
      <point x="-204.5" y="-197.5" type="curve" smooth="yes"/>
      <point x="-99" y="-197.5"/>
      <point x="-1" y="-179"/>
      <point x="79" y="-144.5" type="curve"/>
      <point x="74.069" y="-286" type="line"/>
      <point x="0" y="-319"/>
      <point x="-94" y="-336"/>
    </contour>
    <contour>
      <point x="-204.5" y="-596" type="curve" smooth="yes"/>
      <point x="-315" y="-596"/>
      <point x="-410" y="-577"/>
      <point x="-483.048" y="-546" type="curve"/>
      <point x="-487.979" y="-404.5" type="line"/>
      <point x="-408.979" y="-439"/>
      <point x="-311" y="-457.5"/>
      <point x="-204.5" y="-457.5" type="curve" smooth="yes"/>
      <point x="-98" y="-457.5"/>
      <point x="-1" y="-440"/>
      <point x="79" y="-404.5" type="curve"/>
      <point x="74.069" y="-546" type="line"/>
      <point x="0" y="-579"/>
      <point x="-94" y="-596"/>
    </contour>
  </outline>
  <guideline angle="90" x="-169" y="0"/>
  <guideline angle="0" x="0" y="9"/>
</glyph>
<glyph name="GaNukta.dv" format="2">
  <advance width="843"/>
  <unicode hex="095A"/>
  <anchor x="643.5" y="23" name="bottom"/>
  <anchor x="635" y="23" name="bottom2"/>
  <anchor x="727.5" y="23" name="bottom3"/>
  <anchor x="642.5" y="42.5" name="bottom5"/>
  <anchor x="641" y="1258.5" name="top"/>
  <outline>
    <contour>
      <point x="776" y="1155.5" type="line"/>
      <point x="-20" y="1154.5" type="line"/>
      <point x="-30" y="1289.5" type="line"/>
      <point x="766" y="1289.5" type="line"/>
    </contour>
    <contour>
      <point x="135.5" y="1174" type="curve"/>
      <point x="306.5" y="1174" type="line"/>
      <point x="341" y="1112.5"/>
      <point x="351" y="1027"/>
      <point x="351" y="838" type="curve" smooth="yes"/>
      <point x="351" y="735" type="line" smooth="yes"/>
      <point x="351" y="442.335"/>
      <point x="272.454" y="345.5"/>
      <point x="114" y="345.5" type="curve" smooth="yes"/>
      <point x="86.3061" y="345.5"/>
      <point x="56.0491" y="350.409"/>
      <point x="34" y="359" type="curve"/>
      <point x="27" y="518.5" type="line"/>
      <point x="39.6894" y="513.729"/>
      <point x="53.8106" y="512.5"/>
      <point x="68.5" y="512.5" type="curve" smooth="yes"/>
      <point x="147.389" y="512.5"/>
      <point x="180.5" y="555.943"/>
      <point x="180.5" y="760.5" type="curve" smooth="yes"/>
      <point x="180.5" y="857.5" type="line" smooth="yes"/>
      <point x="180.5" y="1024.5"/>
      <point x="171.5" y="1113.5"/>
    </contour>
    <contour>
      <point x="727" y="1203.5" type="line"/>
      <point x="727" y="0" type="line"/>
      <point x="557.5" y="0" type="line"/>
      <point x="557.5" y="1203.5" type="line"/>
    </contour>
    <contour>
      <point x="495" y="1154.5" type="line"/>
      <point x="485" y="1289.5" type="line"/>
      <point x="866" y="1289.5" type="line"/>
      <point x="876" y="1154.5" type="line"/>
    </contour>
    <contour>
      <point x="180.5" y="-43.7599" type="curve" smooth="yes"/>
      <point x="114.08" y="-43.7599"/>
      <point x="85.46" y="-1.09993"/>
      <point x="85.46" y="75.5801" type="curve" smooth="yes"/>
      <point x="85.46" y="77.5871"/>
      <point x="85.46" y="84.4791"/>
      <point x="85.46" y="86.92" type="curve" smooth="yes"/>
      <point x="85.46" y="163.6"/>
      <point x="114.08" y="206.26"/>
      <point x="180.5" y="206.26" type="curve" smooth="yes"/>
      <point x="246.92" y="206.26"/>
      <point x="275.54" y="163.6"/>
      <point x="275.54" y="86.92" type="curve"/>
      <point x="275.54" y="84.9251"/>
      <point x="275.54" y="78.0284"/>
      <point x="275.54" y="75.5801" type="curve" smooth="yes"/>
      <point x="275.54" y="-1.09993"/>
      <point x="246.92" y="-43.7599"/>
    </contour>
  </outline>
</glyph>
<glyph name="DdhaNukta.dv" format="2">
  <advance width="828"/>
  <unicode hex="095D"/>
  <anchor x="446" y="-447" name="bottom"/>
  <anchor x="415" y="-327" name="bottom2"/>
  <anchor x="702" y="-224" name="bottom3"/>
  <anchor x="433.5" y="28" name="bottom5"/>
  <anchor x="609.5" y="1258.5" name="top"/>
  <outline>
    <contour>
      <point x="455.5" y="1154.5" type="line"/>
      <point x="445.5" y="1289.5" type="line"/>
      <point x="806" y="1289.5" type="line"/>
      <point x="816" y="1154.5" type="line"/>
    </contour>
    <contour>
      <point x="692" y="1204" type="line"/>
      <point x="692" y="988.499" type="line"/>
      <point x="528" y="988.499" type="line"/>
      <point x="528" y="1204" type="line"/>
    </contour>
    <contour>
      <point x="-16" y="1155" type="line"/>
      <point x="-26" y="1290" type="line"/>
      <point x="860" y="1290" type="line"/>
      <point x="869" y="1155" type="line"/>
    </contour>
    <contour>
      <point x="527" y="1203" type="line"/>
      <point x="692" y="1203" type="line"/>
      <point x="692" y="803" type="line"/>
      <point x="527" y="861" type="line"/>
    </contour>
    <contour>
      <point x="84" y="579" type="line" smooth="yes"/>
      <point x="84" y="850.295"/>
      <point x="203.73" y="964"/>
      <point x="461" y="964" type="curve" smooth="yes"/>
      <point x="533.893" y="964"/>
      <point x="609.867" y="958"/>
      <point x="692" y="944" type="curve"/>
      <point x="692" y="803" type="line"/>
      <point x="617.895" y="816"/>
      <point x="558.002" y="821"/>
      <point x="500.139" y="821" type="curve" smooth="yes"/>
      <point x="326.351" y="821"/>
      <point x="249" y="752"/>
      <point x="249" y="564" type="curve" smooth="yes"/>
      <point x="249" y="367" type="line" smooth="yes"/>
      <point x="249" y="191.76"/>
      <point x="314.876" y="119"/>
      <point x="449.716" y="119" type="curve" smooth="yes"/>
      <point x="574.373" y="119"/>
      <point x="616" y="163.143"/>
      <point x="616" y="314" type="curve" smooth="yes"/>
      <point x="616" y="420.529" type="line" smooth="yes"/>
      <point x="616" y="498"/>
      <point x="604" y="524"/>
      <point x="561" y="524" type="curve" smooth="yes"/>
      <point x="519.491" y="524"/>
      <point x="507" y="496.88"/>
      <point x="507" y="420" type="curve" smooth="yes"/>
      <point x="507" y="317" type="line" smooth="yes"/>
      <point x="507" y="198.978"/>
      <point x="527.138" y="167.505"/>
      <point x="580" y="138" type="curve"/>
      <point x="480" y="111" type="line"/>
      <point x="480" y="129" type="line"/>
      <point x="393.534" y="166.509"/>
      <point x="365" y="206.045"/>
      <point x="365" y="350.127" type="curve" smooth="yes"/>
      <point x="365" y="437" type="line" smooth="yes"/>
      <point x="365" y="586.636"/>
      <point x="428.969" y="655"/>
      <point x="563" y="655" type="curve" smooth="yes"/>
      <point x="695.68" y="655"/>
      <point x="761" y="586"/>
      <point x="761" y="424.972" type="curve" smooth="yes"/>
      <point x="761" y="314.764" type="line" smooth="yes"/>
      <point x="761" y="90.2532"/>
      <point x="657.337" y="-15"/>
      <point x="438" y="-15" type="curve" smooth="yes"/>
      <point x="204.34" y="-15"/>
      <point x="84" y="104"/>
      <point x="84" y="351" type="curve" smooth="yes"/>
    </contour>
    <contour>
      <point x="420.5" y="-357.76" type="curve" smooth="yes"/>
      <point x="354.08" y="-357.76"/>
      <point x="325.46" y="-315.1"/>
      <point x="325.46" y="-238.42" type="curve" smooth="yes"/>
      <point x="325.46" y="-236.413"/>
      <point x="325.46" y="-229.521"/>
      <point x="325.46" y="-227.08" type="curve" smooth="yes"/>
      <point x="325.46" y="-150.4"/>
      <point x="354.08" y="-107.74"/>
      <point x="420.5" y="-107.74" type="curve" smooth="yes"/>
      <point x="486.92" y="-107.74"/>
      <point x="515.54" y="-150.4"/>
      <point x="515.54" y="-227.08" type="curve"/>
      <point x="515.54" y="-229.075"/>
      <point x="515.54" y="-235.972"/>
      <point x="515.54" y="-238.42" type="curve" smooth="yes"/>
      <point x="515.54" y="-315.1"/>
      <point x="486.92" y="-357.76"/>
    </contour>
  </outline>
</glyph>
